<svg width="93" height="93" viewBox="0 0 93 93" fill="none" xmlns="http://www.w3.org/2000/svg">
<path d="M67.6776 32.8828C67.6008 33.6466 67.4551 34.4104 67.4551 35.1743C67.4551 48.7704 67.4551 62.369 67.4551 75.9702C67.4897 76.596 67.4897 77.2233 67.4551 77.8492C67.3782 78.6106 67.0232 79.3174 66.4577 79.8355C65.8921 80.3537 65.1552 80.6471 64.3867 80.6601C63.624 80.6847 62.8778 80.4351 62.2847 79.9568C61.6917 79.4785 61.2914 78.8035 61.1573 78.0554C61.0663 77.436 61.033 76.8096 61.0576 76.184C61.0576 68.668 61.0576 61.1469 61.0576 53.6206C61.0576 52.9256 60.9271 52.2305 60.8658 51.5278H60.2981C60.1656 52.183 60.0784 52.8465 60.0373 53.5137C60.0373 61.0985 60.0373 68.6833 60.0373 76.2681C60.0686 76.9544 60.0145 77.642 59.8762 78.3151C59.7327 79.0352 59.3226 79.6753 58.7272 80.1082C58.1318 80.5412 57.3947 80.7355 56.6621 80.6524C55.9068 80.6742 55.1722 80.4054 54.6108 79.9018C54.0493 79.3983 53.7043 78.6987 53.6474 77.9485C53.5771 77.2634 53.5566 76.5742 53.5861 75.8862C53.5861 62.285 53.5861 48.6838 53.5861 35.0826C53.5402 34.3451 53.4531 33.6107 53.3253 32.8828H52.6886C52.6349 33.5015 52.5352 34.1202 52.5275 34.7465C52.5275 39.3295 52.5275 43.9124 52.5275 48.4954C52.5275 50.5501 51.7604 51.5507 50.2799 51.5507C48.7994 51.5507 48.0323 50.5577 48.0247 48.4954C48.0247 42.731 48.0247 36.9642 48.0247 31.1947C48.0247 27.7422 49.904 25.573 53.3406 25.4813C58.1196 25.3515 62.9139 25.3515 67.6929 25.4813C70.9991 25.5806 73.0089 27.8263 73.0089 31.0725C73.0089 36.903 73.0089 42.731 73.0089 48.5565C73.0089 50.5653 72.2418 51.6118 70.7076 51.5048C68.8896 51.3979 68.506 50.1529 68.5137 48.6176C68.5137 44.0346 68.5137 39.4517 68.5137 34.8687C68.5137 34.2195 68.437 33.5702 68.3986 32.921L67.6776 32.8828ZM65.6141 18.0951C65.5485 16.7658 64.9677 15.5136 63.9939 14.6019C63.02 13.6903 61.729 13.1903 60.3925 13.2071C59.056 13.2239 57.7781 13.7562 56.8277 14.6921C55.8773 15.628 55.3285 16.8944 55.2967 18.225C55.3056 18.8976 55.4485 19.5618 55.7169 20.1791C55.9854 20.7965 56.3741 21.3546 56.8607 21.8213C57.3472 22.288 57.9219 22.654 58.5514 22.8981C59.181 23.1422 59.8529 23.2595 60.5283 23.2433C61.2045 23.2476 61.8747 23.1167 62.4992 22.8584C63.1237 22.6001 63.6898 22.2197 64.1641 21.7397C64.6383 21.2597 65.011 20.6898 65.26 20.0637C65.5091 19.4377 65.6295 18.7683 65.6141 18.0951Z" fill="#404040"/>
<path d="M40.6606 32.8828C40.5839 33.6466 40.4381 34.4105 40.4381 35.1743C40.4381 48.7704 40.4381 62.369 40.4381 75.9702C40.4612 76.5969 40.4458 77.2244 40.3921 77.8492C40.3168 78.6113 39.9623 79.319 39.3964 79.8375C38.8305 80.3559 38.0926 80.6488 37.3237 80.6601C36.5615 80.6861 35.8155 80.4368 35.2233 79.9581C34.6312 79.4794 34.2329 78.8036 34.1019 78.0554C34.0228 77.4298 34.0023 76.7982 34.0406 76.1688C34.0406 68.6528 34.0406 61.1291 34.0406 53.6054C34.0406 52.9103 33.9178 52.2152 33.8488 51.5125H33.2888C33.1537 52.1676 33.064 52.8311 33.0203 53.4985C33.0203 61.0832 33.0203 68.668 33.0203 76.2528C33.0452 76.9394 32.9886 77.6265 32.8516 78.2999C32.7114 79.0217 32.302 79.6639 31.7058 80.0975C31.1096 80.5311 30.3706 80.7239 29.6375 80.6372C28.8864 80.6553 28.1568 80.3871 27.5979 79.8873C27.0389 79.3875 26.6928 78.694 26.6305 77.9485C26.5601 77.2634 26.5396 76.5742 26.5691 75.8862C26.5691 62.285 26.5691 48.6838 26.5691 35.0826C26.5232 34.3451 26.4362 33.6107 26.3083 32.8828H25.6793C25.6179 33.5015 25.5182 34.1202 25.5182 34.7465C25.5182 39.3295 25.5182 43.9124 25.5182 48.4954C25.5182 50.5501 24.7511 51.5507 23.2706 51.5507C21.7901 51.5507 21 50.5272 21 48.4954C21 42.7311 21 36.9642 21 31.1948C21 27.7423 22.8794 25.573 26.3236 25.4813C31.1 25.354 35.8816 25.354 40.6682 25.4813C43.9744 25.5806 45.9842 27.8263 45.9919 31.0725C45.9919 36.9031 45.9919 42.7311 45.9919 48.5565C45.9919 50.5654 45.2248 51.6118 43.6906 51.5049C41.8726 51.3979 41.4967 50.1529 41.4967 48.6176C41.4967 44.0347 41.4967 39.4517 41.4967 34.8688C41.4967 34.2195 41.4277 33.5703 41.3893 32.921L40.6606 32.8828Z" fill="#404040"/>
<path d="M33.5113 23.2433C32.8359 23.2595 32.164 23.1422 31.5344 22.8981C30.9049 22.654 30.3302 22.288 29.8437 21.8213C29.3571 21.3546 28.9684 20.7965 28.6999 20.1791C28.4315 19.5618 28.2886 18.8976 28.2797 18.225C28.2624 16.8566 28.7918 15.5373 29.7513 14.5575C30.7108 13.5777 32.0219 13.0176 33.3962 13.0004C34.7705 12.9832 36.0953 13.5103 37.0793 14.4657C38.0633 15.4212 38.6258 16.7267 38.6431 18.0951C38.6576 18.7719 38.5351 19.4447 38.2828 20.0733C38.0305 20.7019 37.6536 21.2735 37.1747 21.7539C36.6958 22.2344 36.1246 22.6139 35.4952 22.8698C34.8658 23.1257 34.1911 23.2527 33.5113 23.2433Z" fill="#404040"/>
<path d="M47.2423 72.3572C43.6235 72.3587 40.0856 71.2916 37.076 69.2908C34.0663 67.2899 31.7202 64.4453 30.3343 61.1167C28.9484 57.7881 28.585 54.1249 29.2901 50.5906C29.9951 47.0563 31.737 43.8096 34.2953 41.2611C36.8536 38.7127 40.1135 36.9769 43.6626 36.2733C47.2117 35.5698 50.8906 35.9301 54.2341 37.3087C57.5775 38.6873 60.4353 41.0222 62.4459 44.0182C64.4566 47.0142 65.5298 50.5366 65.5298 54.14C65.5237 58.9683 63.5952 63.5972 60.1672 67.0121C56.7392 70.427 52.0913 72.3491 47.2423 72.3572ZM37.0016 47.5176C35.7022 49.4837 35.0114 51.7864 35.0148 54.14C35.027 57.3654 36.3191 60.4552 38.6096 62.7359C40.9 65.0166 44.0031 66.3033 47.2423 66.3153C49.6059 66.3188 51.9185 65.6309 53.893 64.337L37.0016 47.5176ZM58.0046 59.8916C59.2473 57.5895 59.712 54.9499 59.3299 52.3641C58.9478 49.7784 57.7392 47.384 55.8832 45.5359C54.0272 43.6878 51.6226 42.4843 49.0257 42.1038C46.4289 41.7233 43.778 42.1861 41.4661 43.4235L58.0046 59.8916Z" fill="#DF0A56"/>
<path d="M47.2423 36.7019C50.7097 36.7019 54.0991 37.7259 56.9819 39.6444C59.8647 41.5629 62.1113 44.2896 63.4375 47.4797C64.7638 50.6698 65.11 54.1799 64.4324 57.5659C63.7548 60.952 62.0839 64.0619 59.631 66.5022C57.1782 68.9425 54.0535 70.6035 50.6524 71.2752C47.2513 71.947 43.7265 71.5991 40.5239 70.2758C37.3214 68.9524 34.5849 66.713 32.6608 63.8408C30.7366 60.9686 29.7112 57.5927 29.7142 54.1401C29.7223 49.515 31.5721 45.0819 34.858 41.813C38.1438 38.544 42.5974 36.706 47.2423 36.7019ZM58.158 61.1443C59.7732 58.6639 60.485 55.7068 60.1745 52.7668C59.8641 49.8267 58.5502 47.0817 56.4523 44.99C54.3543 42.8983 51.5992 41.5865 48.647 41.2736C45.6948 40.9607 42.7242 41.6657 40.2311 43.2708L58.158 61.1443ZM47.2423 67.1022C50.0735 67.1013 52.8258 66.1725 55.0743 64.4593L36.9019 46.3414C35.4345 48.2568 34.5347 50.5428 34.3042 52.9409C34.0737 55.339 34.5218 57.7534 35.5977 59.9112C36.6736 62.0689 38.3344 63.8838 40.3923 65.1506C42.4501 66.4173 44.8229 67.0854 47.2423 67.0793V67.1022ZM47.2423 35.1666C43.4715 35.1651 39.7849 36.2772 36.649 38.3623C33.513 40.4474 31.0686 43.4118 29.6249 46.8804C28.1811 50.3491 27.803 54.1662 28.5383 57.8488C29.2735 61.5315 31.0892 64.9143 33.7556 67.5693C36.4219 70.2243 39.8192 72.0323 43.5176 72.7644C47.2161 73.4965 51.0495 73.12 54.533 71.6824C58.0164 70.2449 60.9935 67.8108 63.0875 64.6882C65.1815 61.5657 66.2984 57.8948 66.2968 54.1401C66.2867 49.1118 64.2757 44.2925 60.7042 40.7377C57.1328 37.1829 52.292 35.1823 47.2423 35.1743V35.1666ZM42.7778 43.6451C44.8785 42.7432 47.2026 42.4892 49.4497 42.9161C51.6968 43.343 53.7637 44.4311 55.3834 46.0397C57.0031 47.6484 58.1011 49.7038 58.5355 51.9402C58.97 54.1767 58.7209 56.4915 57.8205 58.5855L42.7778 43.6451ZM47.2423 65.5516C44.2065 65.5395 41.2986 64.3334 39.152 62.1959C37.0054 60.0584 35.794 57.1629 35.7819 54.1401C35.7835 52.2715 36.2556 50.4332 37.155 48.7933L52.6503 64.1996C51.0033 65.0952 49.1572 65.5653 47.2806 65.5669L47.2423 65.5516Z" fill="white"/>
</svg>
