<svg width="321" height="321" viewBox="0 0 321 321" fill="none" xmlns="http://www.w3.org/2000/svg">
<path d="M227.146 143.699C227.146 143.699 242.636 179.325 230.537 207.247C220.369 224.095 159.377 184.137 168.575 151.402C173.899 138.404 185.032 140.33 192.294 148.994C199.555 157.659 203.911 173.064 209.721 176.916C215.53 180.768 203.916 148.512 206.331 142.735C208.747 136.958 221.823 135.036 227.146 143.698" fill="white"/>
<path d="M227.146 143.699C227.146 143.699 242.636 179.325 230.537 207.247C220.369 224.095 159.377 184.137 168.575 151.402C173.899 138.404 185.032 140.33 192.294 148.994C199.555 157.659 203.911 173.064 209.721 176.916C215.53 180.768 203.916 148.512 206.331 142.735C208.747 136.958 221.822 135.034 227.146 143.699Z" stroke="#0A053A" stroke-width="0.75" stroke-miterlimit="10"/>
<path d="M126.943 118.844C126.943 118.844 108.926 125.663 100.562 148.167C92.1973 170.672 90.2663 250.745 97.3444 271.882C104.422 293.018 177.78 292.34 200.938 277.337C220.241 261.652 199.651 227.27 196.436 199.309C193.221 171.349 193.221 147.486 181.636 138.625C170.05 129.764 126.943 118.844 126.943 118.844Z" fill="white"/>
<path d="M186.744 144.617C185.455 142.301 183.719 140.265 181.636 138.625C170.053 129.756 126.943 118.844 126.943 118.844C126.943 118.844 108.926 125.663 100.562 148.167C92.1973 170.672 90.2664 250.745 97.3456 271.882C104.425 293.018 177.775 292.34 200.939 277.336C220.242 261.651 199.653 227.268 196.437 199.308C195.59 191.941 194.961 184.85 194.287 178.245" stroke="#0A053A" stroke-width="0.75" stroke-miterlimit="10"/>
<path d="M168.241 153.344C168.241 153.344 176.351 209.764 172.535 213.622C168.72 217.48 155.359 218.926 151.066 214.104C150.589 202.048 148.68 153.344 148.68 150.451C148.68 147.559 168.241 153.344 168.241 153.344Z" fill="#FF4591"/>
<path d="M181.849 147.888C181.849 147.888 167.258 168.157 141.644 156.89C116.031 145.623 120.569 117.645 124.46 114.106C128.026 122.471 135.16 152.713 181.849 147.888Z" fill="#C62E73"/>
<path d="M184.904 138.016C184.904 138.016 189.228 149.546 172.411 155.31C155.594 161.074 130.61 148.584 125.324 134.172C120.038 119.761 122.442 105.349 133.012 102.466C143.582 99.5827 182.021 127.933 184.898 138.016" fill="#FF4591"/>
<path d="M177.111 136.187C177.111 136.187 146.132 150.538 132.095 114.184C143.713 106.525 177.111 136.187 177.111 136.187Z" fill="#DADFE5"/>
<path d="M190.165 72.7265C190.165 72.7265 196.443 111.21 188.452 131.583C182.174 140.639 154.192 132.714 140.488 118C126.785 103.287 122.786 78.3848 129.067 63.1059C135.348 47.827 164.47 47.2585 173.605 50.6544C182.741 54.0504 189.594 66.5007 190.165 72.7265Z" fill="white"/>
<path d="M136.834 113.525C126.113 98.6197 123.386 76.9255 129.067 63.1047C135.346 47.8247 164.47 47.2585 173.609 50.6544C182.748 54.0504 189.595 66.5007 190.165 72.7265C190.165 72.7265 196.444 111.21 188.452 131.584C183.832 138.245 167.467 135.718 153.683 128.057" stroke="#0A053A" stroke-width="0.75" stroke-miterlimit="10"/>
<path d="M158.157 105.814C158.157 106.517 158.365 107.204 158.756 107.789C159.146 108.373 159.701 108.828 160.351 109.097C161 109.366 161.715 109.437 162.404 109.3C163.093 109.162 163.727 108.824 164.224 108.327C164.721 107.83 165.059 107.197 165.196 106.508C165.333 105.818 165.263 105.104 164.994 104.454C164.725 103.805 164.269 103.25 163.685 102.86C163.101 102.469 162.413 102.261 161.711 102.261C160.768 102.261 159.864 102.635 159.198 103.302C158.531 103.968 158.157 104.872 158.157 105.814" fill="#DADFE5"/>
<path d="M179.186 113.473C179.186 113.473 174.468 110.921 171.898 116.793C169.329 122.666 174.253 127.519 178.973 125.477C182.189 123.435 179.83 121.137 179.83 118.583C179.83 116.029 180.474 114.751 179.186 113.473Z" fill="#0E2549"/>
<path d="M179.48 131.126C178.752 131.46 177.949 131.595 177.152 131.518C176.355 131.442 175.592 131.155 174.942 130.689C173.808 131.419 177.779 135.362 179.48 131.126Z" fill="#0E2549"/>
<path d="M192.056 58.6735C192.056 58.6735 196.024 60.2134 194.26 65.9393C192.497 71.6652 188.308 72.3261 182.798 70.5588C177.288 68.7915 174.861 75.6238 168.692 74.9628C162.522 74.3019 157.229 71.6604 153.261 74.0815C149.292 76.5027 150.838 82.8942 141.797 83.9958C137.168 86.1966 137.609 91.0412 138.05 95.0046C138.748 99.4059 139.779 103.748 141.135 107.993C140.628 108.449 139.981 108.72 139.3 108.76C138.619 108.8 137.945 108.606 137.388 108.212C136.287 107.552 134.524 99.1847 131.658 97.6436C128.793 96.1026 125.261 96.1038 123.943 95.2225C122.624 94.3413 121.298 83.9934 119.535 82.8919C118.116 81.7273 116.996 80.2409 116.267 78.5563C115.538 76.8717 115.222 75.0375 115.345 73.2062C115.787 68.8022 117.991 69.6823 118.652 64.403C119.313 59.1237 119.534 55.1556 122.179 52.7321C124.824 50.3086 126.036 41.9448 130.226 42.6081C134.416 43.2715 138.493 43.0429 144.665 39.5201C150.837 35.9974 152.163 23.0331 162.517 38.1959C165.153 42.055 170.454 37.3146 175.744 38.8556C181.033 40.3967 182.189 49.5624 182.357 46.7835C183.14 33.7658 185.62 49.1525 190.294 52.2879C193.361 54.3477 192.058 58.6735 192.058 58.6735" fill="#0E2549"/>
<path d="M134.597 100.173C134.597 100.173 123.973 88.4436 119.628 97.2409C115.283 106.038 137.495 118.743 137.977 112.391C138.459 106.038 134.597 100.173 134.597 100.173Z" fill="white"/>
<path d="M136.682 108.776C136.17 105.725 135.07 102.802 133.446 100.169C133.446 100.169 122.801 88.4448 118.445 97.2409C114.089 106.037 136.35 118.743 136.834 112.392" stroke="#0A053A" stroke-width="0.75" stroke-miterlimit="10"/>
<path d="M130.983 101.991C130.983 101.991 127.317 99.816 126.409 102.176C124.514 107.117 134.531 112.987 134.464 109.496C134.251 106.655 133.014 103.988 130.983 101.991Z" fill="#DADFE5"/>
<path d="M133.28 108.702C133.28 108.702 131.052 99.8397 125.845 98.8424C121.646 97.9741 120.95 101.534 121.693 102.563C122.436 103.592 123.053 102.526 123.06 101.532C123.067 100.539 124.728 98.8507 127.525 101.499C129.605 103.325 131.166 105.667 132.051 108.289C132.332 109.621 132.96 109.672 133.28 108.702Z" fill="#DADFE5"/>
<path d="M177.062 222.014C177.062 222.014 185.429 212.064 188.068 213.808C190.708 215.551 185.526 219.197 184.751 221.723C184.376 222.934 197.249 219.14 198.35 220.985C199.45 222.829 189.473 225.647 189.473 225.647C189.473 225.647 199.027 224.535 198.358 226.217C197.689 227.899 189.65 229.149 187.6 229.21C187.6 229.21 197.66 228.144 196.709 230.05C195.758 231.955 186.706 233.113 186.706 233.113C186.706 233.113 193.381 232.732 192.456 234.39C191.531 236.047 180.847 238.298 175.373 236.8C171.722 234.969 170.464 226.882 177.062 222.014Z" fill="white"/>
<path d="M177.062 222.014C177.062 222.014 185.429 212.064 188.068 213.808C190.708 215.551 185.526 219.197 184.751 221.723C184.376 222.934 197.249 219.14 198.35 220.985C199.45 222.829 189.473 225.647 189.473 225.647C189.473 225.647 199.027 224.535 198.358 226.217C197.689 227.899 189.65 229.149 187.6 229.21C187.6 229.21 197.66 228.144 196.709 230.05C195.758 231.955 186.706 233.113 186.706 233.113C186.706 233.113 193.381 232.732 192.456 234.39C191.531 236.047 180.847 238.298 175.373 236.8C171.722 234.969 170.464 226.882 177.062 222.014Z" stroke="#0A053A" stroke-width="0.75" stroke-miterlimit="10"/>
<path d="M172.017 221.474C172.017 221.474 175.536 219.003 178.805 222.954C182.073 226.906 183.582 235.55 178.805 238.514C177.45 239.346 175.865 239.723 174.281 239.588C172.697 239.454 171.198 238.816 170.003 237.768L172.017 221.474Z" fill="#DADFE5"/>
<path d="M124.751 164.417C124.751 164.417 124.751 145.614 108.668 146.097C92.5858 146.58 92.5882 179.364 95.9987 205.399C99.4092 231.434 99.4104 242.283 112.079 246.62C123.2 250.428 151.465 250.398 170.402 243.161C172.88 242.238 174.988 240.529 176.404 238.296C177.819 236.062 178.465 233.427 178.243 230.792C177.872 226.822 176.433 222.738 172.337 221.387C163.57 218.495 136.443 223.477 131.081 217.208C125.72 210.94 124.751 164.417 124.751 164.417Z" fill="white"/>
<path d="M98.8929 151.485C92.5327 162.272 93.1843 185.314 95.6921 204.64C99.0765 230.669 99.0765 241.514 111.643 245.853C122.674 249.661 150.713 249.631 169.497 242.394C171.963 241.46 174.056 239.748 175.46 237.516C176.864 235.285 177.501 232.656 177.275 230.029C176.908 226.06 175.479 221.975 171.416 220.627C162.716 217.734 135.809 222.715 130.493 216.449C125.176 210.183 124.214 163.668 124.214 163.668" fill="white"/>
<path d="M98.8929 151.485C92.5327 162.272 93.1843 185.314 95.6921 204.64C99.0765 230.669 99.0765 241.514 111.643 245.853C122.674 249.661 150.713 249.631 169.497 242.394C171.963 241.46 174.056 239.748 175.46 237.516C176.864 235.285 177.501 232.656 177.275 230.029C176.908 226.06 175.48 221.975 171.416 220.627C162.716 217.734 135.809 222.715 130.493 216.449C125.176 210.183 124.214 163.668 124.214 163.668" stroke="#0A053A" stroke-width="0.75" stroke-miterlimit="10"/>
<path d="M128.541 219.592C128.541 219.592 118.599 221.502 116.942 231.371C115.948 228.506 117.605 218.637 128.541 219.592Z" fill="#DADFE5"/>
<path d="M126.172 218.175C126.172 218.175 119.411 217.114 115.548 221.895C115.065 221.098 119.17 214.722 126.172 218.175Z" fill="#DADFE5"/>
<path d="M221.821 142.209C222.274 142.101 222.699 141.902 223.072 141.625C223.446 141.348 223.759 140.999 223.994 140.598C224.229 140.196 224.381 139.752 224.44 139.291C224.499 138.83 224.464 138.362 224.338 137.914C224.032 136.95 223.467 136.09 222.703 135.427C220.334 133.413 211.197 133.956 206.883 137.047C206.455 137.345 206.116 137.755 205.904 138.232C204.806 140.806 206.406 143.198 208.006 143.415C209.567 143.624 214.111 144.398 221.821 142.209Z" fill="#DADFE5"/>
<path d="M220.941 134.664C220.941 134.664 219.212 122.192 216.492 120.028C215.847 119.407 215.022 119.004 214.135 118.877C213.249 118.749 212.344 118.903 211.55 119.318C211.55 119.318 207.349 118.599 205.124 120.277C203.272 121.565 201.679 123.191 200.43 125.07C198.206 127.948 198.206 129.386 198.699 130.587C199.336 131.624 200.176 132.522 201.17 133.225C200.895 133.808 200.795 134.458 200.883 135.097C200.971 135.736 201.242 136.335 201.664 136.822C203.148 138.502 207.487 138.007 207.487 138.007L208.832 138.98C208.832 138.98 217.729 138.022 220.941 134.664Z" fill="white"/>
<path d="M220.706 135.054C220.706 135.054 218.982 122.323 216.274 120.118C215.641 119.483 214.821 119.068 213.935 118.935C213.048 118.801 212.142 118.957 211.351 119.378C211.351 119.378 207.167 118.644 204.954 120.358C203.099 121.682 201.511 123.345 200.274 125.259C198.059 128.198 198.059 129.668 198.551 130.891C199.18 131.946 200.017 132.863 201.011 133.585C200.737 134.181 200.638 134.842 200.725 135.492C200.812 136.142 201.082 136.754 201.503 137.257C202.981 138.972 207.308 138.467 207.308 138.467L208.647 139.46" fill="white"/>
<path d="M220.706 135.054C220.706 135.054 218.982 122.323 216.274 120.118C215.641 119.483 214.821 119.068 213.935 118.935C213.048 118.801 212.142 118.957 211.351 119.378C211.351 119.378 207.167 118.644 204.954 120.358C203.099 121.682 201.511 123.345 200.274 125.259C198.059 128.198 198.059 129.668 198.551 130.891C199.18 131.946 200.017 132.863 201.011 133.585C200.737 134.181 200.638 134.842 200.725 135.492C200.812 136.142 201.082 136.754 201.503 137.257C202.981 138.972 207.308 138.467 207.308 138.467L208.647 139.46" stroke="#0A053A" stroke-width="0.75" stroke-miterlimit="10"/>
<path d="M211.637 123.582C211.873 125.189 211.948 126.816 211.861 128.438C212.854 128.55 213.828 128.795 214.755 129.167C215.422 129.404 216.091 126.984 216.091 126.984C216.338 128.131 216.18 129.329 215.646 130.374C214.533 131.102 211.415 130.374 210.301 130.137C210.08 129.161 211.637 123.582 211.637 123.582Z" fill="#0E2549"/>
<path d="M147.021 88.0468C147.021 88.0468 150.338 91.7863 147.575 92.722C145.093 93.4233 147.021 88.0468 147.021 88.0468Z" fill="white"/>
<path d="M145.837 108.183C145.837 108.183 149.154 111.923 146.39 112.859C143.908 113.559 145.837 108.183 145.837 108.183Z" fill="white"/>
<path d="M157.689 76.2018C157.689 76.2018 161.006 79.9412 158.241 80.877C155.754 81.577 157.689 76.2018 157.689 76.2018Z" fill="white"/>
<path d="M184.158 91.6003C184.108 91.6005 184.058 91.5965 184.009 91.5885C183.697 91.5236 183.422 91.3407 183.242 91.078C183.062 90.8152 182.991 90.493 183.043 90.1789L183.169 89.1354C183.177 88.9808 183.217 88.8297 183.286 88.6911C183.355 88.5524 183.451 88.4291 183.569 88.3285C183.686 88.2279 183.823 88.1522 183.971 88.1058C184.118 88.0594 184.274 88.0434 184.428 88.0586C184.74 88.1237 185.014 88.3067 185.194 88.5694C185.374 88.8321 185.445 89.1541 185.393 89.4682L185.269 90.5153C185.248 90.8005 185.123 91.0683 184.919 91.2681C184.714 91.4679 184.443 91.5861 184.158 91.6003Z" fill="#0E2549"/>
<path d="M164.019 93.9693C163.969 93.9694 163.92 93.9655 163.87 93.9575C163.559 93.8924 163.284 93.7094 163.104 93.4467C162.924 93.184 162.853 92.862 162.905 92.5479L163.03 91.5032C163.039 91.3487 163.08 91.1977 163.149 91.0592C163.218 90.9207 163.314 90.7975 163.431 90.697C163.549 90.5966 163.686 90.521 163.834 90.4747C163.981 90.4284 164.137 90.4124 164.291 90.4277C164.602 90.493 164.876 90.6761 165.056 90.9388C165.236 91.2014 165.307 91.5233 165.255 91.8372L165.131 92.8843C165.11 93.1696 164.985 93.4375 164.781 93.6374C164.576 93.8373 164.305 93.9553 164.019 93.9693Z" fill="#0E2549"/>
<path d="M167.018 87.4487C166.859 87.5011 166.689 87.5153 166.524 87.4901C164.154 87.2415 161.77 87.7923 159.75 89.0548C159.538 89.1953 159.282 89.2551 159.029 89.2234C158.776 89.1916 158.543 89.0705 158.372 88.8819C158.292 88.7955 158.232 88.6926 158.196 88.5805C158.16 88.4684 158.148 88.3497 158.163 88.2328C158.177 88.1158 158.217 88.0035 158.28 87.9037C158.343 87.8038 158.426 87.7189 158.525 87.6548C160.978 86.0938 163.895 85.4249 166.783 85.7607C166.905 85.7715 167.023 85.806 167.131 85.8624C167.239 85.9189 167.335 85.996 167.413 86.0896C167.491 86.1831 167.55 86.2911 167.587 86.4074C167.623 86.5238 167.636 86.6461 167.625 86.7676C167.597 86.9263 167.525 87.074 167.418 87.1943C167.311 87.3145 167.172 87.4026 167.018 87.4487Z" fill="#0E2549"/>
<path d="M175.254 108.183C174.511 108.174 173.77 108.103 173.038 107.971C172.629 107.901 172.327 107.315 172.377 106.668C172.427 106.022 172.786 105.541 173.201 105.606C174.38 105.864 175.601 105.857 176.777 105.585C176.742 105.438 176.687 105.241 176.637 105.059C175.877 102.251 175.447 99.3641 175.354 96.4568C175.315 95.8029 175.613 95.2225 176.024 95.1538C176.435 95.0851 176.797 95.5696 176.836 96.2199C176.911 98.8791 177.299 101.52 177.992 104.089C178.314 104.932 178.369 105.854 178.148 106.73C178.029 107.136 177.703 108.183 175.254 108.183Z" fill="#0E2549"/>
<path d="M186.95 85.2774C186.789 85.3058 186.622 85.2808 186.476 85.2064C185.388 84.7341 184.206 84.5204 183.021 84.5821C181.837 84.6437 180.682 84.979 179.649 85.5617C179.53 85.6245 179.397 85.6587 179.263 85.6618C179.128 85.6648 178.994 85.6365 178.872 85.5791C178.75 85.5217 178.642 85.4368 178.559 85.331C178.475 85.2252 178.417 85.1015 178.389 84.9695C178.279 84.6858 178.265 84.3736 178.351 84.0816C178.437 83.7895 178.617 83.5341 178.863 83.355C180.115 82.631 181.522 82.2159 182.967 82.1442C184.412 82.0726 185.854 82.3463 187.172 82.9428C187.425 83.1067 187.615 83.3514 187.712 83.6371C187.809 83.9229 187.806 84.2329 187.705 84.517C187.66 84.7006 187.566 84.8685 187.433 85.0025C187.3 85.1365 187.132 85.2316 186.949 85.2774" fill="#0E2549"/>
<path d="M124.071 161.486C124.071 161.486 121.838 161.88 121.295 168.965C120.752 176.049 124.116 182.511 121.295 188.761C118.474 195.012 121.782 213.862 126.136 216.942C130.491 220.022 130.555 219.408 132.389 221.383C134.223 223.357 150.663 224.818 157.664 223.564C164.665 222.311 167.97 221.609 172.161 224.028C173.352 224.67 174.401 225.547 175.244 226.605C176.087 227.664 176.707 228.882 177.065 230.187C177.065 230.187 178.961 217.625 158.036 220.126C136.805 220.334 128.493 221.29 127.828 208.881C124.483 195.836 124.071 161.486 124.071 161.486Z" fill="#4AEAFF"/>
<path d="M97.7415 223.317C97.7415 223.317 115.926 220.613 119.983 233.563C124.039 246.513 122.205 247.955 122.205 247.955C122.205 247.955 109.454 246.686 104.123 241.46C98.7922 236.234 97.7415 223.317 97.7415 223.317Z" fill="#4AEAFF"/>
<path d="M93.5952 189.914C93.5952 189.914 97.5281 257.264 99.8026 262.461C102.077 267.659 107.455 277.488 112.623 279.328C116.059 280.735 119.088 282.98 121.434 285.859C121.434 285.859 101.311 282.464 96.9394 271.735C90.9121 243.335 93.5952 189.914 93.5952 189.914Z" fill="#4AEAFF"/>
<path d="M193.695 175.949C193.695 175.949 199.115 174.251 198.41 179.739C197.705 185.227 197.225 196.192 198.765 198.722C200.305 201.252 199.282 202.943 199.282 202.943L196.407 201.099L193.695 175.949Z" fill="#4AEAFF"/>
<path d="M212.649 209.565C212.649 209.565 212.719 190.862 233.972 195.348L230.3 207.175C230.3 207.175 225.579 212.09 220.08 211.104C214.581 210.117 212.649 209.565 212.649 209.565Z" fill="#4AEAFF"/>
<path d="M208.934 143.151C208.934 143.151 208.316 149.509 210.608 153.418C212.9 157.327 213.834 173.768 213.834 173.768C213.834 173.768 214.154 183.663 207.478 176.874C200.803 170.084 198.106 156.574 197.289 155.186C196.473 153.797 208.23 174.66 209.189 175.407C210.147 176.155 213.413 179.327 210.61 166.76C207.808 154.194 205.819 144.548 206.752 142.195C207.686 139.843 208.934 143.152 208.934 143.152" fill="#4AEAFF"/>
<path d="M122.618 120.028C122.099 122.771 121.864 125.559 121.917 128.35C122.221 131.131 108.102 142.297 106.775 146.625C105.448 150.953 94.1875 167.408 94.1875 167.408C94.1875 167.408 97.6999 148.338 105.639 135.419C113.578 122.499 122.618 120.028 122.618 120.028Z" fill="#4AEAFF"/>
<path d="M191.326 119.572L187.598 117.659L187.04 118.753L183.406 117.659L183.034 118.844L187.972 120.028C187.972 120.028 187.693 118.661 187.972 118.844C189.077 119.145 190.196 119.388 191.326 119.572Z" fill="#505E83"/>
<path d="M191.326 127.135L188.567 123.786L187.772 124.81L184.872 122.397L184.218 123.582L188.246 126.529C188.246 126.529 188.376 124.925 188.573 125.218C189.453 125.91 190.372 126.55 191.326 127.135Z" fill="#505E83"/>
<path d="M187.772 133.058L186.161 128.858L185.005 129.393L182.922 125.951L181.849 126.694L184.881 131.118C184.881 131.118 185.57 129.77 185.665 130.117C186.315 131.133 187.019 132.115 187.772 133.058Z" fill="#505E83"/>
<path d="M197.249 123.353L194.586 122.397L194.189 122.943L191.594 122.397L191.326 122.99L194.854 123.582C194.854 123.582 194.654 122.898 194.854 122.99C195.054 123.081 197.249 123.353 197.249 123.353Z" fill="#505E83"/>
<path d="M198.434 116.94L195.472 116.475L195.287 117.092L192.544 117.021L192.51 117.659L196.183 117.605C196.183 117.605 195.727 116.962 195.957 117.013C196.186 117.064 198.434 116.94 198.434 116.94Z" fill="#505E83"/>
<path d="M196.064 131.873L193.61 130.027L193.061 130.747L190.568 129.504L190.141 130.313L193.57 131.783C193.57 131.783 193.547 130.762 193.726 130.928C194.489 131.283 195.269 131.599 196.064 131.873Z" fill="#505E83"/>
</svg>
