<svg width="93" height="93" viewBox="0 0 93 93" fill="none" xmlns="http://www.w3.org/2000/svg">
<path d="M39.776 25.3199H34.9553V31.127H39.776V25.3199Z" fill="white" stroke="#404040" stroke-width="3" stroke-miterlimit="10"/>
<path d="M49.001 25.4868C49.001 25.4868 48.8914 29.1815 50.9657 31.7221C51.1923 31.9935 51.3064 32.3404 51.2847 32.6924C51.263 33.0443 51.1071 33.3749 50.8489 33.6167C50.614 33.8254 50.3146 33.9484 50 33.9655C49.6854 33.9827 49.3743 33.8929 49.1178 33.711C47.4087 32.4698 43.8516 29.4574 43.1724 25.4868H49.001Z" fill="white" stroke="#404040" stroke-width="3" stroke-miterlimit="10"/>
<path d="M41.8577 32.3972V39.3294H33.0345V32.3972H41.8577ZM41.8577 30.2196H33.0345C32.4533 30.2196 31.896 30.449 31.485 30.8574C31.0741 31.2658 30.8433 31.8197 30.8433 32.3972V39.3294C30.8433 39.9069 31.0741 40.4608 31.485 40.8692C31.896 41.2776 32.4533 41.507 33.0345 41.507H41.8577C42.4389 41.507 42.9962 41.2776 43.4071 40.8692C43.8181 40.4608 44.0489 39.9069 44.0489 39.3294V32.3972C44.0489 31.8197 43.8181 31.2658 43.4071 30.8574C42.9962 30.449 42.4389 30.2196 41.8577 30.2196Z" fill="#404040"/>
<path d="M47.7228 65.5772C46.1159 62.2817 46.5395 58.616 48.9571 56.6416C49.2395 56.3977 49.4645 56.095 49.6159 55.7551C49.7674 55.4151 49.8417 55.0462 49.8336 54.6744V49.2449C49.8336 45.9721 48.5254 42.8334 46.1968 40.5192C43.8682 38.205 40.71 36.9049 37.4168 36.9049C34.1237 36.9049 30.9654 38.205 28.6368 40.5192C26.3082 42.8334 25 45.9721 25 49.2449V75.2894C25 77.2146 25.7695 79.0609 27.1393 80.4222C28.5091 81.7835 30.3669 82.5482 32.304 82.5482H42.5296C44.4668 82.5482 46.3246 81.7835 47.6943 80.4222C49.0641 79.0609 49.8336 77.2146 49.8336 75.2894V69.3953C49.833 68.709 49.5722 68.0481 49.1032 67.5443C48.5428 66.964 48.0771 66.3003 47.7228 65.5772Z" fill="#DF0A56"/>
<path d="M47.7228 65.5772C46.1159 62.2817 46.5395 58.616 48.9571 56.6416C49.2395 56.3977 49.4645 56.095 49.6159 55.7551C49.7674 55.4151 49.8417 55.0462 49.8336 54.6744V49.2449C49.8336 45.9721 48.5254 42.8334 46.1968 40.5192C43.8682 38.205 40.71 36.9049 37.4168 36.9049C34.1237 36.9049 30.9654 38.205 28.6368 40.5192C26.3082 42.8334 25 45.9721 25 49.2449V75.2894C25 77.2146 25.7695 79.0609 27.1393 80.4222C28.5091 81.7835 30.3669 82.5482 32.304 82.5482H42.5296C44.4668 82.5482 46.3246 81.7835 47.6943 80.4222C49.0641 79.0609 49.8336 77.2146 49.8336 75.2894V69.3953C49.833 68.709 49.5722 68.0481 49.1032 67.5443C48.5428 66.964 48.0771 66.3003 47.7228 65.5772V65.5772Z" stroke="#404040" stroke-width="3" stroke-miterlimit="10"/>
<path d="M32.6766 16.8634H51.9446V26.612H32.6766C31.3768 26.612 30.1302 26.0988 29.2111 25.1854C28.292 24.272 27.7756 23.0331 27.7756 21.7413C27.7747 21.1011 27.9007 20.4669 28.1466 19.8752C28.3925 19.2834 28.7533 18.7456 29.2085 18.2925C29.6637 17.8395 30.2043 17.4801 30.7994 17.2349C31.3945 16.9896 32.0324 16.8634 32.6766 16.8634Z" fill="white" stroke="#404040" stroke-width="3" stroke-linejoin="round"/>
<path d="M55.7646 24.8408L51.9446 26.612V16.8634L55.7646 18.6345V24.8408Z" fill="white" stroke="#404040" stroke-width="3" stroke-linejoin="round"/>
<g style="mix-blend-mode:screen">
<path d="M43.1652 52.7872C43.1652 49.2914 40.3137 46.4575 36.7961 46.4575C33.2785 46.4575 30.427 49.2914 30.427 52.7872V68.1105C30.427 71.6063 33.2785 74.4402 36.7961 74.4402C40.3137 74.4402 43.1652 71.6063 43.1652 68.1105V52.7872Z" fill="#EFFFF4"/>
</g>
<path d="M58.6934 18.3442L59.2119 17.8289" stroke="#DF0A56" stroke-miterlimit="10" stroke-linecap="round"/>
<path d="M60.2783 16.7618L64.0253 13.0453" stroke="#DF0A56" stroke-miterlimit="10" stroke-linecap="round" stroke-dasharray="2.07 2.07"/>
<path d="M64.5586 12.5154L65.0772 12" stroke="#DF0A56" stroke-miterlimit="10" stroke-linecap="round"/>
<path d="M59.5625 20.275L60.2418 20.0137" stroke="#DF0A56" stroke-miterlimit="10" stroke-linecap="round"/>
<path d="M61.6516 19.462L66.5818 17.553" stroke="#DF0A56" stroke-miterlimit="10" stroke-linecap="round" stroke-dasharray="2.07 2.07"/>
<path d="M67.2903 17.2772L67.9696 17.0159" stroke="#DF0A56" stroke-miterlimit="10" stroke-linecap="round"/>
<path d="M59.5698 22.3947L60.3002 22.4237" stroke="#DF0A56" stroke-miterlimit="10" stroke-linecap="round"/>
<path d="M61.8123 22.4817L67.1077 22.6995" stroke="#DF0A56" stroke-miterlimit="10" stroke-linecap="round" stroke-dasharray="2.07 2.07"/>
<path d="M67.8599 22.7357L68.5903 22.7648" stroke="#DF0A56" stroke-miterlimit="10" stroke-linecap="round"/>
<path d="M58.73 24.34L59.3873 24.6594" stroke="#DF0A56" stroke-miterlimit="10" stroke-linecap="round"/>
<path d="M60.7458 25.3126L65.5008 27.6282" stroke="#DF0A56" stroke-miterlimit="10" stroke-linecap="round" stroke-dasharray="2.07 2.07"/>
<path d="M66.1799 27.9548L66.8373 28.2742" stroke="#DF0A56" stroke-miterlimit="10" stroke-linecap="round"/>
<path d="M57.1667 25.7772L57.6415 26.3361" stroke="#DF0A56" stroke-miterlimit="10" stroke-linecap="round"/>
<path d="M58.6204 27.483L62.0459 31.4971" stroke="#DF0A56" stroke-miterlimit="10" stroke-linecap="round" stroke-dasharray="2.07 2.07"/>
<path d="M62.5354 32.0706L63.0029 32.6222" stroke="#DF0A56" stroke-miterlimit="10" stroke-linecap="round"/>
</svg>
