<svg width="321" height="321" viewBox="0 0 321 321" fill="none" xmlns="http://www.w3.org/2000/svg">
<path d="M218.44 243.364C216.823 236.511 215.588 230.877 214.673 226.525C216.081 206.478 203.233 171.166 199.692 159.231C195.498 145.095 186.169 141.903 186.169 141.903L186.636 238.109C188.547 239.529 190.622 240.716 192.815 241.643L201.196 276.659C201.196 276.659 222.638 261.145 218.44 243.364Z" fill="white"/>
<path d="M218.44 243.364C216.823 236.511 215.588 230.877 214.673 226.525C216.081 206.478 203.233 171.166 199.692 159.231C195.498 145.095 186.169 141.903 186.169 141.903L186.636 238.109C188.547 239.529 190.622 240.716 192.815 241.643L201.196 276.659C201.196 276.659 222.638 261.145 218.44 243.364Z" stroke="#0A053A" stroke-width="0.75" stroke-miterlimit="10"/>
<path d="M125.835 117.622C125.835 117.622 107.534 124.514 99.0459 147.257C90.5576 169.999 88.5911 250.922 95.7777 272.289C102.964 293.656 177.452 292.964 200.978 277.802C220.579 261.951 199.671 227.205 196.404 198.949C193.137 170.692 193.139 146.568 181.376 137.609C169.614 128.649 125.835 117.622 125.835 117.622Z" fill="white"/>
<path d="M186.563 143.668C185.253 141.325 183.49 139.265 181.376 137.609C169.615 128.649 125.835 117.622 125.835 117.622C125.835 117.622 107.534 124.514 99.0447 147.257C90.5553 169.999 88.5912 250.922 95.7778 272.289C102.964 293.656 177.452 292.964 200.978 277.802C220.58 261.953 199.671 227.205 196.404 198.949C195.541 191.497 194.908 184.332 194.224 177.657" stroke="#0A053A" stroke-width="0.75" stroke-miterlimit="10"/>
<path d="M168.562 152.916C168.562 152.916 176.884 209.733 172.968 213.618C169.052 217.502 155.345 218.959 150.942 214.103C150.451 201.959 148.493 152.916 148.493 150.003C148.493 147.089 168.562 152.916 168.562 152.916Z" fill="#FF4591"/>
<path d="M93.1926 189.25C93.1926 189.25 97.2277 257.426 99.5613 262.686C101.895 267.946 107.413 277.896 112.714 279.761C116.232 281.178 119.339 283.45 121.754 286.372C121.754 286.372 101.108 282.933 96.6225 272.073C90.441 243.328 93.1926 189.25 93.1926 189.25Z" fill="#4AEAFF"/>
<path d="M140.174 196.922C140.174 196.922 139.256 183.108 142.468 182.573C145.68 182.037 144.454 188.62 145.697 191.158C146.293 192.372 153.152 180.123 155.299 180.777C157.445 181.431 152.038 190.828 152.038 190.828C152.038 190.828 158.358 183.072 159.061 184.879C159.765 186.687 154.686 193.453 153.203 194.976C153.203 194.976 159.93 186.892 160.594 189.07C161.258 191.248 155.352 198.674 155.352 198.674C155.352 198.674 160.05 193.566 160.553 195.531C161.056 197.497 154.719 206.963 149.564 209.735C145.526 210.921 138.769 205.493 140.174 196.922Z" fill="white"/>
<path d="M140.174 196.922C140.174 196.922 139.256 183.108 142.468 182.573C145.68 182.037 144.454 188.62 145.697 191.158C146.293 192.372 153.152 180.123 155.299 180.777C157.445 181.431 152.038 190.828 152.038 190.828C152.038 190.828 158.358 183.072 159.061 184.879C159.765 186.687 154.686 193.453 153.203 194.976C153.203 194.976 159.93 186.892 160.594 189.07C161.258 191.248 155.352 198.674 155.352 198.674C155.352 198.674 160.05 193.566 160.553 195.531C161.056 197.497 154.719 206.963 149.564 209.735C145.526 210.921 138.769 205.493 140.174 196.922Z" stroke="#0A053A" stroke-width="0.75" stroke-miterlimit="10"/>
<path d="M148.23 217.172C148.23 217.172 152.502 212.139 152.119 208.267C151.337 205.556 142.015 200.912 137.354 203.234C133.082 205.945 132.693 211.364 132.693 211.364L148.23 217.172Z" fill="#DADFE5"/>
<path d="M99.3692 146.448C99.3692 146.448 57.0239 216.146 91.5518 256.803C122.172 292.944 150.184 232.927 152.139 214.211C150.148 210.9 147.25 208.229 143.786 206.513C140.322 204.797 136.439 204.109 132.595 204.531C132.595 204.531 120.868 225.185 111.748 227.763C102.628 230.342 133.898 180.006 125.429 162.583C116.961 145.159 106.535 141.285 99.3692 146.448Z" fill="white"/>
<path d="M99.7727 147.444C99.7727 147.444 57.4627 217.118 91.9614 257.762C122.555 293.889 150.543 233.892 152.496 215.183C150.508 211.873 147.612 209.203 144.152 207.488C140.691 205.773 136.81 205.085 132.97 205.506C132.97 205.506 121.252 226.144 112.139 228.73C105.182 230.701 121.753 201.832 126.211 180.311C127.59 173.648 127.81 167.691 125.81 163.573" fill="white"/>
<path d="M99.7727 147.444C99.7727 147.444 57.4627 217.118 91.9614 257.762C122.555 293.889 150.543 233.892 152.496 215.183C150.508 211.873 147.612 209.203 144.152 207.488C140.691 205.773 136.81 205.085 132.97 205.506C132.97 205.506 121.252 226.144 112.139 228.73C105.182 230.701 121.753 201.832 126.211 180.311C127.59 173.648 127.81 167.691 125.81 163.573" stroke="#0A053A" stroke-width="0.75" stroke-miterlimit="10"/>
<path d="M193.735 172.691C193.735 172.691 195.714 170.384 197.114 176.38C198.514 182.376 198.982 191.69 201.003 200.453C203.024 209.216 204.428 212.689 204.892 218.689C205.576 224.309 206.952 229.824 208.991 235.107C209.873 237.159 213.454 249.788 212.83 254.046C212.207 258.303 213.782 265.336 208.19 270.678C202.598 276.02 204.539 273.746 204.539 273.746C204.539 273.746 211.435 265.257 207.076 244.103C202.718 222.949 196.858 204.334 195.747 192.968C194.636 181.603 192.756 173.123 193.735 172.691Z" fill="#4AEAFF"/>
<path d="M182.523 147.716C182.523 147.716 167.846 167.957 142.083 156.714C116.319 145.471 120.885 117.514 124.792 113.98C128.385 122.333 135.561 152.535 182.523 147.716Z" fill="#C62E73"/>
<path d="M185.668 137.69C185.668 137.69 190.02 149.25 173.092 155.03C156.164 160.81 131.014 148.287 125.692 133.837C120.37 119.386 122.791 104.935 133.433 102.045C144.075 99.156 182.766 127.577 185.668 137.69Z" fill="#FF4591"/>
<path d="M177.662 135.398C177.662 135.398 146.715 150.106 132.693 112.846C144.298 104.997 177.662 135.398 177.662 135.398Z" fill="#DADFE5"/>
<path d="M189.884 72.4499C189.884 72.4499 196.211 111.352 188.157 131.948C181.827 141.103 153.64 133.093 139.827 118.217C126.014 103.342 121.989 78.1667 128.317 62.7244C134.646 47.282 163.991 46.7053 173.196 50.1386C182.402 53.5719 189.308 66.1564 189.884 72.4499Z" fill="white"/>
<path d="M136.138 113.693C125.342 98.6254 122.593 76.6965 128.317 62.7231C134.648 47.2783 163.991 46.7053 173.197 50.1374C182.402 53.5694 189.308 66.1625 189.883 72.4499C189.883 72.4499 196.211 111.353 188.155 131.948C183.499 138.682 167.008 136.128 153.12 128.384" stroke="#0A053A" stroke-width="0.75" stroke-miterlimit="10"/>
<path d="M158.216 105.482C158.216 106.203 158.429 106.907 158.83 107.506C159.231 108.105 159.8 108.571 160.466 108.847C161.133 109.123 161.866 109.195 162.573 109.054C163.28 108.914 163.93 108.567 164.44 108.058C164.95 107.548 165.297 106.899 165.438 106.193C165.579 105.486 165.506 104.754 165.23 104.089C164.954 103.423 164.487 102.854 163.887 102.454C163.288 102.054 162.583 101.84 161.862 101.84C160.895 101.84 159.967 102.224 159.284 102.907C158.6 103.59 158.216 104.516 158.216 105.482" fill="#DADFE5"/>
<path d="M184.954 128.549C184.285 129.041 183.511 129.371 182.692 129.514C181.873 129.657 181.033 129.609 180.236 129.373C179.212 130.337 183.992 132.837 184.954 128.549Z" fill="#0E2549"/>
<path d="M193.133 57.9423C193.133 57.9423 197.143 59.4975 195.362 65.2787C193.58 71.0599 189.344 71.7251 183.774 69.9466C178.204 68.168 175.753 75.0601 169.514 74.3923C163.276 73.7246 157.927 71.0586 153.916 73.5037C149.905 75.9487 151.466 82.3964 142.328 83.5084C137.649 85.7313 138.094 90.6214 138.54 94.6228C139.245 99.066 140.288 103.449 141.659 107.734C141.146 108.195 140.492 108.467 139.804 108.508C139.116 108.548 138.434 108.353 137.872 107.955C136.757 107.289 134.974 98.8415 132.078 97.2852C129.182 95.7288 125.616 95.7288 124.279 94.8401C122.942 93.9515 121.605 83.5024 119.822 82.3903C118.388 81.2147 117.256 79.7144 116.52 78.014C115.783 76.3137 115.464 74.4623 115.587 72.6138C116.034 68.168 118.261 69.0567 118.93 63.7223C119.598 58.3879 119.822 54.3853 122.496 51.939C125.17 49.4927 126.393 41.0492 130.628 41.7182C134.862 42.3871 138.984 42.1576 145.225 38.6005C151.466 35.0435 152.805 21.9563 163.273 37.2651C165.937 41.1609 171.295 36.3765 176.642 37.9316C181.99 39.4868 183.158 48.7364 183.327 45.9344C184.119 32.7927 186.624 48.3212 191.348 51.4935C194.449 53.5731 193.131 57.9399 193.131 57.9399" fill="#0E2549"/>
<path d="M134.044 99.6999C134.044 99.6999 123.146 87.6786 118.685 96.6951C114.225 105.712 137.016 118.733 137.51 112.223C138.005 105.712 134.044 99.6999 134.044 99.6999Z" fill="white"/>
<path d="M137.399 108.517C136.872 105.391 135.745 102.397 134.078 99.6998C134.078 99.6998 123.155 87.6798 118.686 96.6951C114.217 105.71 137.057 118.733 137.554 112.224" stroke="#0A053A" stroke-width="0.75" stroke-miterlimit="10"/>
<path d="M130.335 102.66C130.335 102.66 126.573 100.71 125.643 102.826C123.699 107.261 133.975 112.524 133.908 109.391C133.642 106.768 132.359 104.352 130.335 102.66Z" fill="#DADFE5"/>
<path d="M133.908 108.442C133.908 108.442 131.621 99.3575 126.28 98.3365C121.972 97.4466 121.258 101.094 122.02 102.15C122.782 103.206 123.417 102.112 123.423 101.092C123.429 100.073 125.135 98.3438 128.004 101.06C130.138 102.931 131.739 105.332 132.648 108.02C132.936 109.384 133.579 109.436 133.908 108.442Z" fill="#DADFE5"/>
<path d="M146.791 87.2719C146.791 87.2719 150.194 91.1046 147.359 92.0636C144.812 92.7811 146.791 87.2719 146.791 87.2719Z" fill="white"/>
<path d="M145.576 106.696C145.576 106.696 148.979 110.53 146.143 111.488C143.597 112.207 145.576 106.696 145.576 106.696Z" fill="white"/>
<path d="M157.729 75.1317C157.729 75.1317 161.133 78.9656 158.297 79.9234C155.751 80.6421 157.729 75.1317 157.729 75.1317Z" fill="white"/>
<path d="M184.892 90.914C184.841 90.9139 184.79 90.9103 184.739 90.9031C184.419 90.8361 184.138 90.6483 183.953 90.3789C183.768 90.1094 183.695 89.7792 183.748 89.4572L183.877 88.3888C183.886 88.2303 183.927 88.0753 183.998 87.9331C184.068 87.7908 184.167 87.6643 184.287 87.5611C184.408 87.4578 184.548 87.3801 184.7 87.3325C184.851 87.2849 185.011 87.2684 185.169 87.2841C185.489 87.3508 185.771 87.5383 185.955 87.8075C186.14 88.0768 186.213 88.4068 186.16 88.7287L186.038 89.8019C186.016 90.0952 185.888 90.3702 185.676 90.5751C185.465 90.78 185.186 90.9006 184.892 90.914Z" fill="#0E2549"/>
<path d="M164.231 93.342C164.179 93.342 164.128 93.3383 164.077 93.3311C163.757 93.2641 163.476 93.0763 163.291 92.8069C163.107 92.5375 163.033 92.2073 163.087 91.8852L163.217 90.8144C163.226 90.6562 163.268 90.5016 163.338 90.3597C163.409 90.2178 163.507 90.0916 163.628 89.9887C163.749 89.8857 163.889 89.8082 164.04 89.7607C164.192 89.7132 164.351 89.6966 164.509 89.7121C164.828 89.7794 165.109 89.9671 165.294 90.2362C165.478 90.5053 165.551 90.8351 165.498 91.1568L165.371 92.23C165.349 92.5223 165.221 92.7967 165.011 93.0015C164.801 93.2063 164.524 93.3274 164.231 93.342Z" fill="#0E2549"/>
<path d="M167.306 86.6588C167.143 86.712 166.97 86.7265 166.8 86.7013C164.369 86.4468 161.923 87.0113 159.85 88.3051C159.632 88.4486 159.369 88.5091 159.109 88.4755C158.849 88.4418 158.611 88.3163 158.436 88.1217C158.355 88.0332 158.294 87.9281 158.257 87.8137C158.221 87.6994 158.21 87.5785 158.225 87.4594C158.24 87.3404 158.281 87.226 158.344 87.1242C158.408 87.0225 158.493 86.9358 158.594 86.8701C161.111 85.2703 164.103 84.5849 167.066 84.9289C167.191 84.9397 167.312 84.975 167.423 85.0328C167.534 85.0906 167.632 85.1697 167.712 85.2656C167.793 85.3615 167.853 85.4723 167.89 85.5916C167.927 85.7109 167.941 85.8364 167.929 85.9608C167.9 86.1234 167.827 86.2748 167.716 86.3981C167.606 86.5214 167.464 86.6116 167.306 86.6588Z" fill="#0E2549"/>
<path d="M175.757 107.91C174.995 107.901 174.235 107.835 173.483 107.711C173.064 107.647 172.754 107.104 172.805 106.497C172.856 105.89 173.226 105.452 173.646 105.514C174.858 105.751 176.105 105.74 177.313 105.482C177.278 105.346 177.221 105.162 177.17 104.997C176.395 102.392 175.955 99.6995 175.859 96.984C175.819 96.377 176.127 95.8344 176.547 95.77C176.968 95.7057 177.34 96.1573 177.38 96.7655C177.458 99.2501 177.857 101.714 178.566 104.097C178.896 104.876 178.952 105.744 178.726 106.559C178.604 106.939 178.269 107.91 175.757 107.91Z" fill="#0E2549"/>
<path d="M187.757 84.5707C187.593 84.5903 187.427 84.5737 187.271 84.5222C184.968 83.8694 182.518 83.9543 180.266 84.765C180.037 84.8632 179.779 84.8762 179.541 84.8017C179.303 84.7271 179.099 84.5698 178.966 84.3583C178.917 84.256 178.891 84.1444 178.889 84.031C178.887 83.9177 178.91 83.8053 178.955 83.7015C179.001 83.5977 179.069 83.5051 179.154 83.4298C179.239 83.3546 179.339 83.2986 179.447 83.2656C182.187 82.2529 185.181 82.1507 187.984 82.9743C188.096 83.0011 188.2 83.0518 188.29 83.1229C188.38 83.194 188.454 83.2838 188.506 83.386C188.558 83.4883 188.587 83.6006 188.592 83.7152C188.596 83.8298 188.575 83.944 188.531 84.0499C188.456 84.1948 188.346 84.3184 188.21 84.4094C188.075 84.5005 187.918 84.5559 187.756 84.5707" fill="#0E2549"/>
<path d="M122.97 120.051C122.438 122.861 122.196 125.718 122.25 128.578C122.565 131.43 108.076 142.872 106.715 147.31C105.354 151.749 93.8003 168.611 93.8003 168.611C93.8003 168.611 97.4039 149.066 105.549 135.824C113.695 122.583 122.97 120.051 122.97 120.051Z" fill="#4AEAFF"/>
<path d="M184.64 120.415C184.64 120.415 180.924 125.475 178.314 124.854C175.705 124.234 174.552 123.751 174.116 122.219C173.681 120.687 174.662 117.25 176.711 118.251C178.76 119.253 179.171 115.58 180.503 116.583C181.835 117.586 186.143 119.655 184.636 120.409" fill="#0E2549"/>
<path d="M91.3694 256.703C91.3694 256.703 102.234 247.99 108.772 248.789C115.311 249.588 126.347 252.5 129.046 259.828C129.046 259.828 120.181 269.037 109.053 268.095C97.9252 267.152 91.3694 256.703 91.3694 256.703Z" fill="#4AEAFF"/>
<path d="M127.316 167.397L127.271 167.629C125.503 175.931 122.607 183.952 118.665 191.47C110.688 205.956 98.8042 229.632 108.187 232.59C117.57 235.549 128.672 219.566 130.55 217.2C132.428 214.834 136.339 204.877 136.339 204.877H133.519C133.519 204.877 122.104 225.428 112.097 228.697C112.097 228.697 108.656 229.79 111.94 219.818C115.224 209.846 124.379 191.532 127.385 174.368L127.316 167.397Z" fill="#4AEAFF"/>
</svg>
