<svg width="321" height="321" viewBox="0 0 321 321" fill="none" xmlns="http://www.w3.org/2000/svg">
<path d="M68.9341 261.53C68.9341 261.53 20.2195 240.738 33.2749 220.909C46.3302 201.08 79.8724 206.681 81.7239 209.901C83.5753 213.122 121.839 237.712 68.9341 261.53Z" fill="#DADFE5"/>
<path d="M202.221 238.353C202.221 238.353 154.408 217.561 167.223 197.732C180.038 177.903 212.957 183.504 214.775 186.723C216.594 189.942 254.146 214.535 202.221 238.353Z" fill="#DADFE5"/>
<path d="M46.944 231.034C46.944 231.034 48.6262 223.302 55.7751 222.822C62.9239 222.341 72.6113 216.009 78.2802 218.118C83.9491 220.227 169.392 218.138 181.007 211.115C192.621 204.092 194.959 187.572 205.891 188.468C216.823 189.365 222.29 186.289 222.29 186.289C222.29 186.289 199 162.112 199.713 149.304C200.425 136.496 195.889 123.687 195.889 123.687C195.889 123.687 148.438 149.493 110.305 141.945C72.1716 134.396 51.5703 127.986 44.8416 136.899C38.1129 145.813 33.4879 138.262 33.4879 138.262C33.4879 138.262 51.15 162.966 42.7453 184.623C34.3406 206.281 46.944 231.034 46.944 231.034Z" fill="#BDCBDB"/>
<path d="M162.604 143.205C162.604 143.205 172.125 145.204 178.074 158.838C184.023 172.473 207.015 217.343 200.397 234.029C193.78 250.714 175.664 239.614 175.664 239.614L162.604 143.205Z" fill="white"/>
<path d="M162.604 143.205C162.604 143.205 172.125 145.204 178.074 158.838C184.023 172.473 207.015 217.343 200.397 234.029C193.78 250.714 175.664 239.614 175.664 239.614L162.604 143.205Z" stroke="#0A053A" stroke-width="0.75" stroke-miterlimit="10"/>
<path d="M102.999 116.368C102.999 116.368 84.8519 123.293 76.4265 146.145C68.001 168.996 66.057 250.308 73.1852 271.777C80.3134 293.246 154.201 292.551 177.532 277.316C196.975 261.39 176.234 226.477 172.996 198.083C169.757 169.69 169.755 145.455 158.089 136.452C146.422 127.448 102.999 116.368 102.999 116.368Z" fill="white"/>
<path d="M69.4213 189.559C69.4213 189.559 73.4653 258.062 75.804 263.349C78.1427 268.636 83.6728 278.631 88.986 280.505C92.5115 281.928 95.6259 284.211 98.0461 287.147C98.0461 287.147 77.3546 283.693 72.8587 272.781C66.6636 243.897 69.4213 189.559 69.4213 189.559Z" fill="#4AEAFF"/>
<path d="M163.234 142.539C161.938 140.188 160.189 138.118 158.089 136.449C146.422 127.448 102.999 116.368 102.999 116.368C102.999 116.368 84.8518 123.293 76.4251 146.145C67.9985 168.996 66.0568 250.308 73.185 271.777C80.3132 293.246 154.199 292.552 177.531 277.317C196.974 261.391 176.234 226.478 172.995 198.085C172.143 190.596 169 182.199 168.322 175.491" stroke="#0A053A" stroke-width="0.75" stroke-miterlimit="10"/>
<path d="M25.97 251.287C18.4094 250.46 39.7696 250.747 54.9505 251.287C70.1314 251.827 70.241 261.217 86.9153 251.287C103.59 241.357 116.902 222.556 131.788 224.761C146.674 226.967 194.762 224.048 198.57 216.158C202.378 208.268 213.085 196.091 228.206 205.487C243.327 214.882 272.309 206.742 272.309 206.742L292.452 254.288L315 300.569L37.3103 293.43L14 246.52L25.97 251.287Z" fill="#EDF1F4"/>
<path d="M26.2403 255.822C31.0406 258.727 36.0044 261.352 41.107 263.683C46.1853 266.036 51.4181 268.039 56.769 269.677C62.0917 271.347 67.5995 272.354 73.1679 272.676C78.7136 273.093 84.2768 272.14 89.3683 269.899C90.6238 269.312 91.8314 268.627 92.9799 267.85L96.5124 265.549L103.51 260.858C108.175 257.741 112.752 254.41 117.869 252.01C123.022 249.696 128.553 248.342 134.191 248.017C139.802 247.519 145.417 247.549 151.009 247.231C156.604 246.952 162.195 246.543 167.722 245.746C173.253 245.04 178.682 243.693 183.902 241.732C186.488 240.725 188.982 239.495 191.355 238.055C193.723 236.587 195.986 234.957 198.129 233.176C202.557 229.73 206.905 226.079 211.936 223.381C214.455 222.017 217.165 221.044 219.975 220.494C222.787 219.979 225.662 219.913 228.495 220.299C229.9 220.49 231.294 220.756 232.671 221.096L236.741 222.183C239.447 222.883 242.189 223.45 244.941 223.969C255.988 225.891 267.131 227.212 278.321 227.928V228.04C267.101 227.562 255.919 226.41 244.836 224.588C242.069 224.094 239.307 223.55 236.575 222.873L232.501 221.84C231.149 221.529 229.781 221.291 228.403 221.126C225.659 220.797 222.88 220.905 220.17 221.447C217.47 222.022 214.873 223.004 212.467 224.359C207.595 227.01 203.267 230.626 198.85 234.092C196.675 235.91 194.376 237.575 191.971 239.075C189.534 240.54 186.971 241.783 184.314 242.792C179.004 244.745 173.486 246.074 167.87 246.752C162.28 247.484 156.663 247.792 151.049 247.985C145.438 248.215 139.82 248.098 134.24 248.495C128.641 248.739 123.138 250.036 118.017 252.317C113.045 254.913 108.292 257.91 103.804 261.276L96.8985 266.117L93.4111 268.492C92.2469 269.311 91.0211 270.039 89.7447 270.669C84.5488 273.056 78.8357 274.093 73.1338 273.682C67.4893 273.318 61.9116 272.255 56.5278 270.518C51.1547 268.821 45.9171 266.721 40.8597 264.235C35.7911 261.785 30.8873 259.007 26.1794 255.919L26.2403 255.822Z" fill="#0A053A"/>
<path d="M32.3309 270.461C37.1289 273.366 42.0907 275.99 47.1915 278.321C52.2703 280.674 57.5035 282.677 62.8547 284.316C68.1774 285.985 73.6852 286.992 79.2536 287.314C84.7993 287.731 90.3624 286.778 95.4541 284.538C96.7094 283.95 97.9169 283.265 99.0657 282.488L102.598 280.188L109.595 275.496C114.26 272.379 118.837 269.048 123.955 266.649C129.107 264.333 134.639 262.98 140.277 262.655C145.887 262.157 151.501 262.188 157.094 261.869C162.689 261.59 168.279 261.181 173.807 260.385C179.337 259.679 184.767 258.332 189.986 256.371C192.573 255.365 195.067 254.135 197.44 252.695C199.808 251.227 202.072 249.596 204.215 247.815C208.64 244.37 212.992 240.719 218.03 238.021C220.548 236.657 223.257 235.683 226.066 235.133C228.877 234.617 231.752 234.551 234.584 234.937C235.989 235.128 237.384 235.394 238.761 235.735L242.832 236.822C245.538 237.522 248.28 238.089 251.03 238.608C262.078 240.53 273.221 241.852 284.412 242.566V242.679C273.187 242.201 262.001 241.048 250.915 239.226C248.148 238.732 245.387 238.188 242.655 237.511L238.58 236.478C237.228 236.167 235.86 235.929 234.483 235.764C231.739 235.435 228.96 235.543 226.25 236.085C223.55 236.66 220.953 237.642 218.547 238.997C213.674 241.648 209.345 245.265 204.93 248.73C202.754 250.548 200.454 252.213 198.049 253.713C195.613 255.178 193.05 256.422 190.393 257.43C185.081 259.384 179.56 260.713 173.942 261.39C168.352 262.122 162.736 262.43 157.123 262.623C151.511 262.854 145.893 262.737 140.313 263.134C134.715 263.378 129.211 264.674 124.091 266.955C119.118 269.551 114.364 272.547 109.876 275.913L102.971 280.754L99.4835 283.129C98.3198 283.948 97.0944 284.676 95.8183 285.306C90.6223 287.693 84.9093 288.73 79.2074 288.32C73.5626 287.953 67.9849 286.888 62.6013 285.149C57.2277 283.452 51.9897 281.352 46.932 278.865C41.87 276.417 36.9723 273.642 32.27 270.557L32.3309 270.461Z" fill="#0A053A"/>
<path d="M118.753 287.052C125.307 282.92 132.069 279.131 139.014 275.7C142.492 273.957 146.077 272.435 149.747 271.145C151.616 270.474 153.567 270.06 155.548 269.917C156.065 269.899 156.582 269.948 157.086 270.062C157.573 270.152 158.048 270.278 158.523 270.394C159.469 270.637 160.402 270.903 161.334 271.171C165.054 272.251 168.764 273.331 172.533 274.181C176.302 275.039 180.129 275.624 183.982 275.929C191.682 276.626 199.441 275.633 206.719 273.021C213.856 270.176 220.399 266.019 226.01 260.765C228.841 258.179 231.369 255.289 234.161 252.552C235.565 251.128 237.188 249.941 238.97 249.036C240.843 248.221 242.903 247.934 244.928 248.204C252.63 249.535 260.163 251.122 267.769 252.646C275.375 254.17 282.933 255.797 290.502 257.434L290.48 257.544L267.647 253.262C260.05 251.857 252.403 250.353 244.824 249.172C242.984 248.966 241.123 249.269 239.443 250.049C237.779 250.908 236.265 252.03 234.958 253.372C232.239 256.041 229.696 259.004 226.814 261.626C221.066 266.94 214.335 271.076 207.002 273.802C199.577 276.235 191.724 277.083 183.952 276.29C176.23 275.512 168.591 274.056 161.124 271.937C160.187 271.699 159.251 271.465 158.315 271.25C157.419 271.007 156.498 270.872 155.57 270.85C153.685 271.011 151.832 271.426 150.058 272.083C146.423 273.35 142.863 274.823 139.395 276.495C132.429 279.81 125.582 283.409 118.812 287.147L118.753 287.052Z" fill="#0A053A"/>
<path d="M225.944 287.077C226.952 285.637 228.051 284.262 229.233 282.96C230.401 281.634 231.667 280.398 233.021 279.263C234.362 278.053 235.9 277.083 237.568 276.394C238.002 276.228 238.45 276.105 238.908 276.028C239.326 275.945 239.751 275.879 240.159 275.761C240.988 275.554 241.792 275.256 242.555 274.87C244.079 274.03 245.522 273.05 246.864 271.943C248.247 270.853 249.685 269.835 251.172 268.893C251.966 268.439 252.837 268.135 253.742 267.995C254.621 267.837 255.51 267.735 256.402 267.689C258.172 267.602 259.946 267.617 261.714 267.735C268.748 268.256 275.726 269.366 282.575 271.056C286.009 271.866 289.394 272.874 292.713 274.074C294.379 274.751 295.909 275.508 297.585 276.038C298.403 276.328 299.24 276.558 300.091 276.728C300.919 276.953 301.795 276.932 302.612 276.667L302.683 276.75C301.852 277.111 300.931 277.211 300.042 277.037C299.16 276.93 298.288 276.76 297.43 276.527C295.725 276.084 294.059 275.372 292.436 274.812C289.141 273.729 285.726 272.915 282.315 272.157C275.5 270.584 268.597 269.426 261.642 268.688C259.905 268.532 258.165 268.444 256.43 268.456C254.72 268.375 253.013 268.679 251.436 269.346C249.906 270.184 248.445 271.14 247.064 272.206C245.721 273.35 244.307 274.409 242.833 275.378C242.062 275.847 241.241 276.227 240.385 276.511C239.96 276.668 239.522 276.773 239.086 276.894C238.685 276.995 238.292 277.121 237.908 277.272C237.134 277.603 236.395 278.01 235.702 278.486C234.979 278.947 234.28 279.447 233.609 279.982C230.931 282.203 228.4 284.596 226.033 287.147L225.944 287.077Z" fill="#0A053A"/>
<path d="M278.321 294.417C278.687 293.199 279.313 292.076 280.157 291.125C281 290.175 282.041 289.42 283.206 288.913C284.373 288.517 285.602 288.332 286.834 288.367C288.041 288.376 289.244 288.492 290.43 288.713C291.648 288.921 292.755 289.272 293.892 289.517C295.015 289.765 296.155 289.932 297.302 290.016C298.43 290.11 299.565 290.062 300.681 289.873C301.826 289.704 302.905 289.234 303.809 288.512L303.901 288.584C303.179 289.635 302.124 290.411 300.907 290.787C299.723 291.177 298.479 291.347 297.234 291.291C294.82 291.044 292.465 290.385 290.273 289.343C289.186 288.904 288.018 288.703 286.848 288.755C285.697 288.878 284.584 289.244 283.584 289.828C281.52 290.94 279.751 292.53 278.425 294.466L278.321 294.417Z" fill="#0A053A"/>
<path d="M144.958 153.051C144.958 153.051 153.298 210.14 149.373 214.044C145.449 217.947 131.711 219.411 127.297 214.532C126.807 202.328 124.844 153.051 124.844 150.124C124.844 147.196 144.958 153.051 144.958 153.051Z" fill="#FF4591"/>
<path d="M158.95 146.607C158.95 146.607 144.242 166.944 118.421 155.647C92.6001 144.35 97.1752 116.259 101.091 112.708C104.693 121.103 111.883 151.448 158.95 146.607Z" fill="#C62E73"/>
<path d="M162.101 137.331C162.101 137.331 166.463 149.205 149.497 155.141C132.532 161.077 107.326 148.215 101.992 133.371C96.6585 118.528 99.0849 103.689 109.75 100.721C120.416 97.7531 159.192 126.948 162.101 137.332" fill="#FF4591"/>
<path d="M154.078 134.229C154.078 134.229 123.062 149.008 109.009 111.569C120.64 103.682 154.078 134.229 154.078 134.229Z" fill="#DADFE5"/>
<path d="M166.369 72.1985C166.369 72.1985 172.592 111.287 164.675 131.982C158.447 141.181 130.704 133.132 117.116 118.186C103.529 103.239 99.5613 77.9428 105.789 62.4263C112.017 46.9098 140.892 46.3304 149.951 49.7801C159.009 53.2299 165.803 65.8748 166.369 72.1985Z" fill="white"/>
<path d="M113.484 113.638C102.861 98.4984 100.156 76.4643 105.789 62.4251C112.017 46.9062 140.892 46.3304 149.951 49.7789C159.01 53.2274 165.803 65.8748 166.369 72.1985C166.369 72.1985 172.596 111.289 164.671 131.983C160.09 138.749 143.863 136.182 130.2 128.401" stroke="#0A053A" stroke-width="0.75" stroke-miterlimit="10"/>
<path d="M134.588 105.389C134.588 106.113 134.803 106.821 135.204 107.423C135.606 108.024 136.176 108.493 136.844 108.77C137.512 109.047 138.247 109.12 138.956 108.979C139.664 108.837 140.315 108.489 140.827 107.977C141.338 107.465 141.686 106.813 141.827 106.103C141.968 105.393 141.895 104.658 141.619 103.989C141.342 103.32 140.874 102.749 140.273 102.347C139.672 101.944 138.965 101.73 138.243 101.73C137.273 101.73 136.344 102.115 135.659 102.802C134.973 103.488 134.588 104.419 134.588 105.389" fill="#DADFE5"/>
<path d="M159.755 118.911C159.755 118.911 150.657 118.433 145.696 119.534C140.735 120.634 150.243 121.54 159.338 121.16C165.542 120.777 160.994 120.346 160.994 119.868C160.994 119.39 162.239 119.15 159.755 118.911Z" fill="#0E2549"/>
<path d="M155.296 130.238C154.547 130.581 153.721 130.721 152.902 130.641C152.082 130.562 151.298 130.267 150.629 129.786C149.463 130.538 153.546 134.597 155.296 130.238Z" fill="#0E2549"/>
<path d="M169.659 57.9738C169.659 57.9738 173.679 59.5449 171.891 65.3831C170.103 71.2213 165.866 71.8947 160.29 70.0991C154.713 68.3035 152.25 75.259 146.004 74.5881C139.758 73.9172 134.401 71.2201 130.383 73.6891C126.366 76.1581 127.929 82.6696 118.779 83.7931C114.094 86.0388 114.54 90.9768 114.986 95.0157C115.691 99.5038 116.735 103.932 118.109 108.262C117.598 108.728 116.942 109.005 116.252 109.045C115.562 109.086 114.878 108.888 114.316 108.485C113.2 107.813 111.413 99.2803 108.514 97.7104C105.615 96.1404 102.043 96.1392 100.704 95.2414C99.3652 94.3436 98.0277 83.798 96.242 82.6696C94.8031 81.4778 93.6681 79.96 92.9308 78.2419C92.1935 76.5238 91.8751 74.6546 92.0019 72.7888C92.4489 68.2974 94.6817 69.1964 95.3492 63.8083C96.0167 58.4202 96.2433 54.3789 98.9206 51.9099C101.598 49.4409 102.825 40.9191 107.06 41.5912C111.295 42.2633 115.429 42.034 121.677 38.4416C127.924 34.8491 129.269 21.6345 139.752 37.0997C142.419 41.0337 147.791 36.2019 153.141 37.7731C158.491 39.3442 159.666 48.6895 159.84 45.8546C160.633 32.5814 163.142 48.265 167.873 51.4659C170.978 53.5677 169.659 57.9762 169.659 57.9762" fill="#0E2549"/>
<path d="M110.363 99.2048C110.363 99.2048 99.4406 87.8358 94.9703 96.3625C90.5 104.889 113.343 117.204 113.838 111.047C114.334 104.89 110.363 99.2048 110.363 99.2048Z" fill="white"/>
<path d="M113.725 107.546C113.189 104.569 112.057 101.731 110.397 99.2036C110.397 99.2036 99.4504 87.8359 94.9716 96.3626C90.4927 104.889 113.383 117.204 113.881 111.047" stroke="#0A053A" stroke-width="0.75" stroke-miterlimit="10"/>
<path d="M106.646 101.452C106.646 101.452 102.876 99.212 101.944 101.641C99.995 106.731 110.294 112.776 110.227 109.181C110.007 106.255 108.734 103.509 106.646 101.452Z" fill="#DADFE5"/>
<path d="M110.227 108.288C110.227 108.288 107.935 98.146 102.581 97.0054C98.2642 96.0125 97.5492 100.084 98.3129 101.261C99.0767 102.439 99.7125 101.22 99.7186 100.082C99.7247 98.9438 101.436 97.014 104.311 100.044C106.486 102.204 108.085 104.876 108.964 107.814C109.252 109.339 109.897 109.4 110.227 108.288Z" fill="#DADFE5"/>
<path d="M124.357 87.0917C124.357 87.0917 127.767 90.9427 124.925 91.9064C122.374 92.6286 124.357 87.0917 124.357 87.0917Z" fill="white"/>
<path d="M123.138 106.609C123.138 106.609 126.549 110.46 123.707 111.424C121.155 112.146 123.138 106.609 123.138 106.609Z" fill="white"/>
<path d="M134.101 74.8932C134.101 74.8932 137.512 78.7455 134.67 79.708C132.118 80.4301 134.101 74.8932 134.101 74.8932Z" fill="white"/>
<path d="M161.324 89.5313C161.272 89.5309 161.22 89.5268 161.169 89.5191C160.849 89.4518 160.567 89.2633 160.382 88.9928C160.197 88.7223 160.124 88.3908 160.178 88.0675L160.307 86.9928C160.316 86.8336 160.357 86.6779 160.428 86.535C160.498 86.3921 160.597 86.265 160.718 86.1614C160.84 86.0578 160.98 85.9798 161.132 85.9322C161.284 85.8845 161.444 85.8681 161.603 85.884C161.923 85.951 162.205 86.1395 162.39 86.4101C162.575 86.6806 162.648 87.0123 162.594 87.3356L162.472 88.4127C162.451 88.7076 162.322 88.9843 162.11 89.1904C161.898 89.3965 161.619 89.5178 161.324 89.5313Z" fill="#0E2549"/>
<path d="M140.617 91.9711C140.565 91.971 140.513 91.9674 140.462 91.9601C140.141 91.8925 139.86 91.7037 139.675 91.4331C139.49 91.1624 139.417 90.8307 139.47 90.5073L139.601 89.4326C139.61 89.2735 139.651 89.118 139.722 88.9753C139.793 88.8326 139.891 88.7056 140.012 88.6021C140.133 88.4985 140.274 88.4205 140.426 88.3727C140.577 88.3249 140.737 88.3082 140.895 88.3238C141.216 88.3911 141.498 88.5796 141.682 88.8501C141.867 89.1206 141.94 89.4521 141.887 89.7754L141.759 90.8525C141.738 91.1465 141.61 91.4225 141.399 91.6285C141.189 91.8345 140.91 91.9564 140.617 91.9711Z" fill="#0E2549"/>
<path d="M143.7 85.8633C143.54 85.934 143.363 85.9544 143.192 85.9219C141.945 85.7561 140.677 85.8621 139.475 86.2324C138.273 86.6027 137.165 87.2287 136.227 88.0676C136.124 88.1612 136.002 88.2303 135.87 88.2697C135.737 88.3091 135.597 88.3178 135.461 88.2951C135.324 88.2725 135.194 88.219 135.081 88.1388C134.969 88.0586 134.875 87.9538 134.809 87.8322C134.64 87.5751 134.563 87.2679 134.592 86.9614C134.621 86.6549 134.753 86.3674 134.967 86.1463C136.102 85.1103 137.453 84.3396 138.921 83.8898C140.39 83.4401 141.94 83.3225 143.46 83.5456C143.747 83.6304 143.994 83.8178 144.154 84.0724C144.313 84.327 144.374 84.6313 144.324 84.9277C144.31 85.1244 144.245 85.3141 144.136 85.4779C144.026 85.6418 143.876 85.7742 143.7 85.8621" fill="#0E2549"/>
<path d="M152.169 106.609C151.405 106.6 150.643 106.534 149.89 106.409C149.47 106.345 149.159 105.799 149.21 105.189C149.261 104.579 149.63 104.139 150.052 104.201C151.267 104.439 152.517 104.429 153.728 104.17C153.693 104.033 153.635 103.848 153.584 103.682C152.808 101.064 152.367 98.3592 152.271 95.6306C152.231 95.0207 152.539 94.4742 152.961 94.4108C153.382 94.3473 153.755 94.7999 153.795 95.4111C153.874 97.9075 154.274 100.383 154.984 102.778C155.315 103.56 155.372 104.432 155.146 105.252C155.022 105.633 154.687 106.609 152.169 106.609Z" fill="#0E2549"/>
<path d="M164.195 84.2397C164.029 84.2682 163.858 84.2426 163.708 84.1665C162.589 83.6798 161.373 83.4596 160.155 83.5231C158.937 83.5866 157.75 83.9321 156.688 84.5324C156.565 84.5971 156.429 84.6323 156.29 84.6354C156.152 84.6385 156.014 84.6094 155.888 84.5503C155.763 84.4912 155.653 84.4038 155.566 84.2948C155.48 84.1859 155.421 84.0585 155.392 83.9225C155.279 83.6302 155.265 83.3085 155.353 83.0076C155.441 82.7067 155.626 82.4434 155.879 82.2586C157.167 81.5135 158.614 81.0863 160.1 81.0125C161.585 80.9387 163.067 81.2203 164.423 81.8341C164.683 82.0033 164.879 82.2555 164.978 82.5499C165.078 82.8443 165.075 83.1638 164.971 83.4565C164.925 83.6455 164.828 83.8183 164.691 83.9562C164.554 84.0942 164.382 84.1922 164.194 84.2397" fill="#0E2549"/>
<path d="M100.482 118.808C99.949 121.632 99.7074 124.503 99.761 127.376C100.076 130.24 85.5558 141.739 84.1916 146.198C82.8273 150.658 71.2483 167.602 71.2483 167.602C71.2483 167.602 74.8599 147.962 83.0222 134.657C91.1845 121.352 100.482 118.808 100.482 118.808Z" fill="#4AEAFF"/>
<path d="M122.407 39.5175L123.287 48.1492L125.988 47.8515L128.286 55.3756L130.934 54.651L127.253 44.7702C127.253 44.7702 125.043 46.8366 125.048 46.1389C124.291 43.8846 123.409 41.6741 122.407 39.5175" fill="#F7AA84"/>
<path d="M133.827 33.4183L132.152 42.0402L134.61 42.5099L134.488 50.456L137.025 50.4962L136.595 39.8835C136.595 39.8835 134.068 41.2607 134.269 40.5898C134.244 38.1933 134.096 35.7997 133.827 33.4183" fill="#F7AA84"/>
<path d="M149.068 33.4183L144.139 40.6923L146.298 42.1342L143.115 49.4215L145.511 50.4962L149.205 40.5166C149.205 40.5166 146.267 40.7521 146.718 40.2166C147.619 37.9932 148.404 35.724 149.068 33.4183" fill="#F7AA84"/>
<path d="M122.407 26.0992L123.036 32.0765L124.965 31.8691L126.606 37.0779L128.498 36.5765L125.868 29.7381C125.868 29.7381 124.284 31.1628 124.293 30.6847C123.752 29.1216 123.122 27.5907 122.407 26.0992" fill="#F7AA84"/>
<path d="M109.009 30.9786L111.221 36.69L112.963 36.0215L115.908 40.7374L117.535 39.7884L113.223 33.7135C113.223 33.7135 112.139 35.4921 112.014 35.0212C111.085 33.6208 110.082 32.2713 109.009 30.9786" fill="#F7AA84"/>
<path d="M137.576 20L137.025 26.3591L139.112 26.4652L139.79 32.1985L141.897 31.9948L140.505 24.3915C140.505 24.3915 138.539 25.6113 138.642 25.1148C138.386 23.3907 138.03 21.6828 137.576 20Z" fill="#F7AA84"/>
<path d="M122.61 212.831C122.61 212.831 110.349 204.423 108.066 207.199C105.783 209.976 112.558 212.392 114.216 214.957C115.01 216.187 99.8733 216.057 99.2862 218.461C98.6991 220.865 110.383 220.829 110.383 220.829C110.383 220.829 99.7052 222.629 100.977 224.289C102.249 225.95 111.331 224.785 113.564 224.201C113.564 224.201 102.358 226.215 103.999 228.034C105.64 229.853 115.789 228.265 115.789 228.265C115.789 228.265 108.457 229.964 109.996 231.522C111.534 233.08 123.802 232.184 129.225 228.772C132.575 225.57 131.315 216.164 122.61 212.836" fill="white"/>
<path d="M122.61 212.831C122.61 212.831 110.349 204.423 108.066 207.199C105.783 209.976 112.558 212.392 114.216 214.957C115.01 216.187 99.8733 216.057 99.2862 218.461C98.6991 220.865 110.383 220.829 110.383 220.829C110.383 220.829 99.7052 222.629 100.977 224.289C102.249 225.95 111.331 224.785 113.564 224.201C113.564 224.201 102.358 226.215 103.999 228.034C105.64 229.853 115.789 228.265 115.789 228.265C115.789 228.265 108.457 229.964 109.996 231.522C111.534 233.08 123.802 232.184 129.225 228.772C132.575 225.565 131.317 216.159 122.61 212.831Z" stroke="#0A053A" stroke-width="0.75" stroke-miterlimit="10"/>
<path d="M133.08 215.42C133.08 215.42 128.703 214.385 127.036 216.579C125.37 218.772 125.523 231.278 130.129 231.034C134.734 230.79 133.08 215.42 133.08 215.42Z" fill="#DADFE5"/>
<path d="M194.248 216.659C194.248 216.659 164.323 208.435 131.381 212.786C131.381 212.786 128.748 223.521 130.105 230.363C131.103 234.447 183.655 253.188 198.167 239.561C203.436 234.61 202.965 219.255 194.248 216.659Z" fill="white"/>
<path d="M175.083 213.241C161.881 211.439 148.515 211.172 135.252 212.446C134.097 212.57 133.013 213.069 132.168 213.868C131.322 214.666 130.76 215.72 130.569 216.868C129.938 220.603 129.275 226.235 130.103 230.417C131.071 234.387 180.775 252.266 196.552 240.502C197.266 239.963 197.833 239.253 198.2 238.436C199.351 235.913 201.893 229.703 201.551 224.744C201.551 224.744 199.564 210.936 198.464 209.078" stroke="#0A053A" stroke-width="0.75" stroke-miterlimit="10"/>
<path d="M168.243 173.701C168.243 173.701 170.785 175.316 172.836 183.234C174.887 191.152 176.152 189.322 176.996 197.175C177.84 205.027 180.601 211.825 179.326 213.998C178.574 215.225 177.49 216.213 176.199 216.845C174.907 217.478 173.463 217.73 172.034 217.57C168.774 217.222 145.274 214.277 142.262 214.698C139.25 215.119 130.934 216.471 130.934 216.471L131.648 213.023L160.355 211.76C160.355 211.76 177.661 216.152 175.641 211.01C174.635 206.46 168.243 173.701 168.243 173.701Z" fill="#4AEAFF"/>
<path d="M180.875 243.47C180.875 243.47 180.979 232.522 186.467 230.157C191.956 227.791 201.583 228.814 201.583 228.814C201.421 232.686 200.002 236.4 197.542 239.392C196.868 240.14 196.105 240.802 195.27 241.365C189.057 245.55 180.875 244.267 180.875 244.267V243.47Z" fill="#4AEAFF"/>
<path d="M112.663 72.0022C112.663 72.0022 117.462 79.5786 118.78 84.652C122.993 81.8122 131.813 72.9183 153.517 73.505C153.517 73.505 162.202 74.4601 163.822 72.8219C163.822 72.8219 160.122 61.5993 160.297 58.9486C160.297 58.9486 137.353 55.289 129.625 61.137C124.211 65.122 118.545 68.7514 112.663 72.0022" fill="#97D3E8"/>
<path d="M155.028 221.397C155.028 221.397 163.239 211.15 165.828 212.946C168.418 214.742 163.335 218.496 162.57 221.097C162.204 222.345 174.843 218.437 175.92 220.337C176.997 222.238 167.208 225.138 167.208 225.138C167.208 225.138 176.588 223.994 175.925 225.725C175.262 227.456 167.378 228.746 165.367 228.808C165.367 228.808 175.24 227.71 174.307 229.673C173.374 231.635 164.494 232.827 164.494 232.827C164.494 232.827 171.045 232.436 170.138 234.142C169.23 235.849 158.74 238.168 153.371 236.626C149.785 234.74 148.55 226.412 155.028 221.397Z" fill="white"/>
<path d="M155.028 221.397C155.028 221.397 163.239 211.15 165.828 212.946C168.418 214.742 163.335 218.496 162.57 221.097C162.204 222.345 174.843 218.437 175.92 220.337C176.997 222.238 167.208 225.138 167.208 225.138C167.208 225.138 176.588 223.994 175.925 225.725C175.262 227.456 167.378 228.746 165.367 228.808C165.367 228.808 175.24 227.71 174.307 229.673C173.374 231.635 164.494 232.827 164.494 232.827C164.494 232.827 171.045 232.436 170.138 234.142C169.23 235.849 158.74 238.168 153.371 236.626C149.785 234.74 148.55 226.412 155.028 221.397Z" stroke="#0A053A" stroke-width="0.75" stroke-miterlimit="10"/>
<path d="M148.84 222.007C149.974 221.34 151.316 221.117 152.604 221.382C153.893 221.647 155.039 222.381 155.819 223.441C159.182 227.257 160.732 235.602 155.819 238.464C154.414 239.273 152.798 239.637 151.183 239.508C149.567 239.379 148.029 238.764 146.769 237.743L148.84 222.007Z" fill="#DADFE5"/>
<path d="M101.012 163.088C101.012 163.088 101.012 143.946 84.7104 144.437C68.4089 144.927 68.4089 178.3 71.867 204.807C75.3251 231.314 75.3263 242.354 88.1685 246.77C99.443 250.648 128.097 250.616 147.295 243.249C149.81 242.305 151.947 240.564 153.382 238.291C154.817 236.018 155.471 233.338 155.244 230.658C154.868 226.617 153.409 222.458 149.257 221.084C140.366 218.139 112.869 223.211 107.435 216.83C102.001 210.449 101.012 163.088 101.012 163.088Z" fill="white"/>
<path d="M75.3253 151.83C68.8829 162.794 69.5383 186.217 72.0816 205.859C75.5105 232.317 75.5105 243.34 88.2382 247.749C99.4116 251.62 127.809 251.59 146.835 244.234C149.333 243.281 151.453 241.54 152.875 239.273C154.297 237.006 154.943 234.337 154.715 231.669C154.342 227.635 152.896 223.483 148.781 222.112C139.969 219.172 112.718 224.234 107.333 217.866C101.948 211.497 100.968 164.215 100.968 164.215" fill="white"/>
<path d="M75.3253 151.83C68.8829 162.794 69.5383 186.217 72.0816 205.859C75.5105 232.317 75.5105 243.34 88.2382 247.749C99.4116 251.62 127.809 251.59 146.835 244.234C149.333 243.281 151.453 241.54 152.875 239.273C154.297 237.006 154.943 234.337 154.715 231.669C154.342 227.635 152.896 223.483 148.781 222.112C139.969 219.172 112.718 224.234 107.333 217.866C101.948 211.497 100.968 164.215 100.968 164.215" stroke="#0A053A" stroke-width="0.75" stroke-miterlimit="10"/>
<path d="M105.354 220.122C105.354 220.122 95.1312 222.09 93.4271 232.254C92.4051 229.303 94.1092 219.139 105.354 220.122Z" fill="#DADFE5"/>
<path d="M104.136 218.663C104.136 218.663 97.1849 217.57 93.2127 222.495C92.7158 221.673 96.9364 215.107 104.136 218.663Z" fill="#DADFE5"/>
<path d="M100.757 161.502C100.757 161.502 98.4601 161.9 97.9035 169.073C97.3468 176.246 100.804 182.781 97.9035 189.109C95.0032 195.436 98.4053 214.511 102.881 217.629C107.356 220.747 107.425 220.127 109.311 222.129C111.196 224.131 128.102 225.596 135.3 224.325C142.497 223.054 145.897 222.346 150.205 224.794C151.426 225.436 152.503 226.32 153.37 227.393C154.238 228.466 154.877 229.705 155.25 231.034C155.25 231.034 157.199 218.319 135.683 220.849C113.853 221.062 105.306 222.029 104.622 209.471C101.181 196.268 100.757 161.502 100.757 161.502Z" fill="#4AEAFF"/>
<path d="M74.9028 223.959C74.9028 223.959 93.6015 221.174 97.7722 234.51C101.943 247.847 100.057 249.332 100.057 249.332C100.057 249.332 86.946 248.025 81.4634 242.642C75.9808 237.259 74.9028 223.959 74.9028 223.959Z" fill="#4AEAFF"/>
<path d="M194.274 220.177L199.743 211.516L201.912 220.903C201.912 220.903 203.909 227.844 201.912 232.254L194.274 220.177Z" fill="white"/>
<path d="M189.587 122.969L187.273 123.077L174.311 123.687C173.559 123.719 172.808 123.597 172.105 123.33C171.401 123.062 170.759 122.654 170.217 122.131C169.675 121.608 169.032 121.201 168.329 120.934C167.625 120.668 166.874 120.547 166.122 120.58L159.151 120.905L157.567 120.979C157.435 120.985 157.302 120.963 157.178 120.916C157.054 120.869 156.94 120.796 156.845 120.703L156.833 120.691C156.641 120.504 156.527 120.25 156.516 119.981C156.504 119.713 156.595 119.45 156.771 119.247L156.784 119.231C156.871 119.131 156.978 119.049 157.097 118.991C157.216 118.933 157.346 118.9 157.478 118.893L159.062 118.82L166.034 118.494C166.788 118.456 167.525 118.266 168.203 117.935C168.881 117.604 169.486 117.139 169.98 116.568C170.474 115.998 171.078 115.534 171.756 115.203C172.434 114.872 173.172 114.682 173.925 114.643L186.89 114.038L189.2 113.928C189.515 113.92 189.829 113.974 190.124 114.088C190.419 114.201 190.688 114.372 190.917 114.59C191.146 114.808 191.329 115.069 191.456 115.358C191.584 115.648 191.653 115.959 191.66 116.275L191.838 120.401C191.876 121.039 191.662 121.666 191.241 122.146C190.819 122.625 190.226 122.919 189.589 122.963" fill="white"/>
<path d="M189.587 122.969L187.273 123.077L174.311 123.687C173.559 123.719 172.808 123.597 172.105 123.33C171.401 123.062 170.759 122.654 170.217 122.131C169.675 121.608 169.032 121.201 168.329 120.934C167.625 120.668 166.874 120.547 166.122 120.58L159.151 120.905L157.567 120.979C157.435 120.985 157.302 120.963 157.178 120.916C157.054 120.869 156.94 120.796 156.845 120.703L156.833 120.691C156.641 120.504 156.527 120.25 156.516 119.981C156.504 119.713 156.595 119.45 156.771 119.247L156.784 119.231C156.871 119.131 156.978 119.049 157.097 118.991C157.216 118.933 157.346 118.9 157.478 118.893L159.062 118.82L166.034 118.494C166.788 118.456 167.525 118.266 168.203 117.935C168.881 117.604 169.486 117.139 169.98 116.568C170.474 115.998 171.078 115.534 171.756 115.203C172.434 114.872 173.172 114.682 173.925 114.643L186.89 114.038L189.2 113.928C189.515 113.92 189.829 113.974 190.124 114.088C190.419 114.201 190.688 114.372 190.917 114.59C191.145 114.808 191.329 115.069 191.456 115.358C191.584 115.648 191.653 115.959 191.66 116.275L191.838 120.401C191.878 121.04 191.664 121.669 191.242 122.15C190.82 122.631 190.225 122.926 189.587 122.969V122.969Z" stroke="#0A053A" stroke-width="0.5" stroke-miterlimit="10"/>
<path d="M157.732 121.163L156.27 121.247C156.142 121.252 156.015 121.226 155.9 121.172C155.784 121.118 155.682 121.038 155.603 120.938L155.589 120.923C155.41 120.691 155.308 120.408 155.299 120.114C155.29 119.821 155.374 119.532 155.539 119.29V119.273C155.611 119.164 155.707 119.073 155.819 119.007C155.931 118.941 156.056 118.901 156.186 118.891L157.649 118.808L157.732 121.163Z" fill="#0E2549"/>
<path d="M189.645 122.38L187.392 122.467L186.966 114.017L189.223 113.928C189.834 113.905 190.431 114.124 190.883 114.537C191.335 114.95 191.607 115.524 191.641 116.136L191.838 119.993C191.853 120.295 191.809 120.597 191.706 120.881C191.604 121.165 191.446 121.426 191.242 121.648C191.038 121.87 190.792 122.049 190.517 122.175C190.243 122.3 189.947 122.37 189.645 122.38Z" fill="#F4405F"/>
<path d="M173.127 116.645L178.694 116.368C178.981 116.368 179.266 116.424 179.532 116.535C179.797 116.645 180.038 116.807 180.241 117.011C180.444 117.215 180.604 117.458 180.713 117.724C180.822 117.991 180.877 118.276 180.875 118.564C180.924 119.146 180.743 119.725 180.37 120.174C179.997 120.624 179.462 120.909 178.881 120.967L173.312 121.248C173.025 121.248 172.74 121.191 172.474 121.081C172.209 120.971 171.968 120.809 171.765 120.605C171.562 120.4 171.402 120.158 171.293 119.892C171.184 119.625 171.129 119.34 171.131 119.052C171.081 118.468 171.262 117.889 171.636 117.438C172.01 116.988 172.545 116.703 173.127 116.645Z" fill="#FF4591"/>
<path d="M184.133 117.907C184.311 118.07 184.437 118.282 184.494 118.517C184.552 118.751 184.538 118.997 184.456 119.224C184.374 119.45 184.226 119.648 184.032 119.791C183.838 119.933 183.606 120.015 183.365 120.026C183.125 120.037 182.886 119.976 182.68 119.851C182.474 119.726 182.31 119.543 182.208 119.324C182.106 119.106 182.071 118.862 182.107 118.623C182.144 118.385 182.25 118.162 182.412 117.984C182.52 117.866 182.65 117.77 182.795 117.702C182.94 117.635 183.097 117.596 183.257 117.589C183.417 117.582 183.576 117.606 183.727 117.661C183.877 117.715 184.015 117.799 184.133 117.907Z" fill="#FF4591"/>
<path d="M173.567 118.972L175.965 118.844L176.003 119.862L173.605 119.991L173.567 118.972Z" fill="white"/>
<path d="M177.221 118.941L178.402 118.876L178.439 119.895L177.259 119.959L177.221 118.941Z" fill="white"/>
<path d="M184.264 117.822C184.338 117.89 184.39 117.978 184.414 118.076C184.438 118.174 184.432 118.276 184.398 118.371C184.363 118.465 184.302 118.547 184.221 118.607C184.14 118.666 184.043 118.7 183.943 118.705C183.842 118.709 183.743 118.684 183.657 118.632C183.571 118.58 183.503 118.503 183.46 118.412C183.418 118.321 183.403 118.22 183.418 118.12C183.433 118.021 183.477 117.928 183.545 117.854C183.59 117.804 183.644 117.764 183.705 117.736C183.766 117.707 183.831 117.691 183.898 117.688C183.965 117.685 184.031 117.695 184.094 117.718C184.157 117.741 184.215 117.777 184.264 117.822Z" fill="white"/>
</svg>
