<svg width="93" height="93" viewBox="0 0 93 93" fill="none" xmlns="http://www.w3.org/2000/svg">
<path d="M44.8536 84.0097L33.7178 80.1051L22.5987 76.2256C21.2308 75.7491 21.063 75.2307 21.7595 73.9598C24.2055 70.0136 25.6113 65.5156 25.8463 60.8834C25.8304 58.423 25.2202 56.0026 24.0672 53.8268C22.9344 51.4355 21.7175 49.0861 20.6182 46.6782C19.2387 43.7588 18.3865 40.62 18.1007 37.4059C18.0839 37.2413 18.0501 37.0788 18 36.921V32.8743C18.0539 32.6933 18.0959 32.5089 18.1259 32.3225C18.513 28.1331 19.9943 24.1177 22.4225 20.6757C30.0757 9.74801 43.7963 7.77484 53.6482 12.1978C63.3155 16.5622 68.2163 24.3378 68.552 34.9395C68.5635 35.4172 68.6572 35.8895 68.8289 36.3357C69.5841 38.2838 70.373 40.2152 71.1534 42.1884C72.2192 44.8388 73.3101 47.4892 74.3507 50.1563C74.5424 50.5485 74.6282 50.9836 74.5996 51.4189C74.5709 51.8542 74.4289 52.2745 74.1874 52.6383C73.9459 53.0022 73.6133 53.297 73.2226 53.4937C72.8318 53.6904 72.3963 53.7821 71.959 53.7599C71.4052 53.7599 70.8429 53.7599 70.2807 53.7599H68.5352V54.7297C68.5352 56.636 68.5352 58.534 68.5352 60.4402C68.5754 62.9561 67.6534 65.393 65.9562 67.2564C64.259 69.1197 61.9138 70.2698 59.3966 70.4733C56.5853 70.7074 53.7489 70.5737 50.9209 70.5653C50.8178 70.5499 50.7126 70.5551 50.6115 70.5805C50.5104 70.6059 50.4154 70.6509 50.3319 70.7131C50.2484 70.7753 50.1781 70.8534 50.1251 70.9428C50.072 71.0323 50.0373 71.1313 50.023 71.2342C48.7474 75.0468 47.4383 78.8928 46.1711 82.7388C46.1084 83.0179 45.9797 83.278 45.7958 83.4976C45.6119 83.7171 45.3781 83.8898 45.1138 84.0013L44.8536 84.0097ZM44.3082 80.774C44.6942 79.6118 45.0718 78.4998 45.4494 77.3878C46.3977 74.5702 47.3544 71.7526 48.2775 68.9266C48.3499 68.6026 48.5399 68.3168 48.8109 68.1239C49.082 67.931 49.415 67.8447 49.746 67.8815C52.5433 67.8815 55.3657 67.8815 58.2133 67.8815C59.2294 67.8892 60.237 67.6959 61.1776 67.3129C62.1182 66.9298 62.9731 66.3645 63.6928 65.6498C64.4125 64.9351 64.9826 64.0851 65.3702 63.1493C65.7577 62.2134 65.955 61.2102 65.9505 60.1978C65.9505 57.7647 65.9505 55.3317 65.9505 52.8903C65.9505 51.77 66.3114 51.4188 67.4359 51.4188H71.1366C71.9758 51.4188 72.0261 51.4188 71.7073 50.5827C69.9618 46.2267 68.2247 41.8539 66.454 37.5063C66.1084 36.683 65.9342 35.7984 65.9421 34.906C65.9594 30.4272 64.5877 26.0525 62.0146 22.3799C59.4415 18.7073 55.7927 15.9163 51.567 14.3883C41.6648 10.8349 29.5806 13.6191 23.5805 24.1539C20.1735 30.1403 19.8714 36.4862 22.028 42.9158C23.0246 45.5644 24.1705 48.1548 25.4603 50.6747C26.6705 52.8942 27.5873 55.2605 28.1876 57.7146C28.6895 60.8599 28.4011 64.08 27.3484 67.0872C26.6267 69.3948 25.6701 71.6188 24.7302 73.9682L44.3082 80.774Z" fill="#404040"/>
<path d="M44.2493 62.6728C44.2493 62.6728 51.8019 69.7629 58.767 71.109C65.7322 72.4551 74.7114 58.7014 74.9799 52.3973C75.1732 48.6886 73.9566 45.0435 71.5728 42.1886C71.5728 42.1886 59.3293 46.6533 49.3682 45.3741C47.6647 51.0428 44.2493 62.6728 44.2493 62.6728Z" fill="#DF0A56"/>
<path d="M50.7278 46.9125C50.7278 46.9125 43.5948 36.5116 33.8268 39.187C25.2168 41.5532 28.2798 58.275 45.4578 60.4321" stroke="#DF0A56" stroke-width="2" stroke-miterlimit="10"/>
<path d="M41.7152 42.4645C41.7152 42.4645 38.1403 33.5601 32.736 35.2407C27.9695 36.7205 28.431 41.2187 29.8744 43.9611C30.8776 45.7781 31.5429 47.7609 31.8381 49.8137C32.073 51.6782 33.5584 53.9942 35.3374 54.4457C35.3374 54.4457 38.0899 55.6747 39.3823 52.2718" fill="white"/>
<path d="M41.7152 42.4645C41.7152 42.4645 38.1403 33.5601 32.736 35.2407C27.9695 36.7205 28.431 41.2187 29.8744 43.9611C30.8776 45.7781 31.5429 47.7609 31.8381 49.8137C32.073 51.6782 33.5584 53.9942 35.3374 54.4457C35.3374 54.4457 38.0899 55.6747 39.3823 52.2718" stroke="#404040" stroke-width="2.2" stroke-miterlimit="10" stroke-linecap="round"/>
<path d="M31.7542 40.0232C31.9246 39.4154 32.3098 38.8894 32.8387 38.5422C33.3676 38.195 34.0047 38.0499 34.6325 38.1336C36.8815 38.4597 37.9221 41.8793 37.8717 42.7823C37.8214 43.6853 36.7808 45.5163 37.8717 46.3357C38.9627 47.1551 39.2732 49.8055 37.2927 50.2988C35.3123 50.7921 34.1374 48.5513 34.5486 46.3608" fill="white"/>
<path d="M31.7542 40.0232C31.9246 39.4154 32.3098 38.8894 32.8387 38.5422C33.3676 38.195 34.0047 38.0499 34.6325 38.1336C36.8815 38.4597 37.9221 41.8793 37.8717 42.7823C37.8214 43.6853 36.7808 45.5163 37.8717 46.3357C38.9627 47.1551 39.2732 49.8055 37.2927 50.2988C35.3123 50.7921 34.1374 48.5513 34.5486 46.3608" stroke="#404040" stroke-width="2.06" stroke-miterlimit="10" stroke-linecap="round"/>
</svg>
