<svg width="333" height="221" viewBox="0 0 333 221" fill="none" xmlns="http://www.w3.org/2000/svg">
<g clip-path="url(#clip0)">
<path d="M164.381 198.441C215.827 198.441 257.532 156.676 257.532 105.156C257.532 53.6359 215.827 11.8707 164.381 11.8707C112.934 11.8707 71.229 53.6359 71.229 105.156C71.229 156.676 112.934 198.441 164.381 198.441Z" fill="#F9D8AD"/>
<path d="M308.061 42.0836C308.084 42.6945 308.328 43.2761 308.747 43.7203C309.167 44.1645 309.733 44.4411 310.341 44.4985C310.948 44.556 311.556 44.3904 312.051 44.0326C312.546 43.6749 312.895 43.1492 313.032 42.5535C313.168 41.9578 313.085 41.3325 312.796 40.794C312.507 40.2555 312.032 39.8405 311.461 39.626C310.889 39.4116 310.259 39.4123 309.688 39.6282C309.117 39.8441 308.644 40.2603 308.356 40.7995L307.005 40.4901C307.277 38.6482 306.954 36.7673 306.082 35.1228L309.191 33.1736C309.509 33.4754 309.903 33.686 310.33 33.7833C310.815 33.8938 311.322 33.858 311.787 33.6803C312.252 33.5026 312.654 33.191 312.942 32.7848C313.23 32.3787 313.392 31.8961 313.406 31.3981C313.421 30.9001 313.288 30.4089 313.024 29.9865C312.705 29.4615 312.204 29.0718 311.618 28.8913C311.031 28.7107 310.398 28.7518 309.84 29.0067C309.281 29.2616 308.836 29.7126 308.587 30.2745C308.338 30.8364 308.303 31.4701 308.49 32.0558L305.381 34.0096C304.281 32.5096 302.729 31.4036 300.953 30.8548L301.262 29.5015C301.874 29.4795 302.456 29.2358 302.902 28.8157C303.347 28.3956 303.625 27.8277 303.683 27.2177C303.742 26.6078 303.577 25.9974 303.219 25.5002C302.862 25.0029 302.336 24.6527 301.74 24.5148C301.144 24.3768 300.518 24.4606 299.979 24.7503C299.44 25.0401 299.024 25.5162 298.809 26.09C298.595 26.6638 298.595 27.2961 298.812 27.8693C299.028 28.4425 299.445 28.9175 299.985 29.2059L299.671 30.5638C297.887 30.2927 296.062 30.5883 294.454 31.4091L292.577 28.4114C292.895 28.066 293.111 27.6383 293.199 27.1768C293.287 26.7152 293.244 26.2381 293.075 25.7996C292.907 25.3611 292.619 24.9786 292.244 24.6954C291.87 24.4122 291.424 24.2397 290.956 24.1973C290.489 24.1549 290.019 24.2443 289.6 24.4555C289.181 24.6667 288.829 24.9911 288.584 25.3922C288.34 25.7932 288.212 26.2548 288.216 26.7247C288.22 27.1946 288.355 27.6541 288.606 28.0511C288.9 28.5192 289.34 28.877 289.858 29.069C290.376 29.2611 290.942 29.2767 291.47 29.1135L293.347 32.0881C291.79 33.1922 290.641 34.7801 290.077 36.6055L288.735 36.296C288.712 35.6851 288.468 35.1035 288.048 34.6593C287.629 34.2151 287.063 33.9385 286.455 33.8811C285.847 33.8236 285.24 33.9892 284.745 34.347C284.25 34.7047 283.901 35.2304 283.764 35.8261C283.627 36.4218 283.711 37.0471 284 37.5856C284.289 38.1241 284.763 38.5392 285.335 38.7536C285.907 38.968 286.537 38.9673 287.108 38.7514C287.679 38.5355 288.152 38.1193 288.44 37.5801L289.796 37.8896C289.518 39.7314 289.842 41.6138 290.718 43.2568L287.812 45.0536C287.468 44.7371 287.042 44.5234 286.583 44.4364C286.123 44.3495 285.649 44.3928 285.212 44.5615C284.776 44.7302 284.396 45.0176 284.114 45.3912C283.832 45.7649 283.661 46.2099 283.618 46.6761C283.575 47.1424 283.663 47.6113 283.873 48.03C284.082 48.4487 284.404 48.8005 284.802 49.0458C285.2 49.2911 285.659 49.42 286.127 49.4182C286.594 49.4163 287.052 49.2836 287.448 49.0352C287.915 48.7401 288.272 48.2993 288.463 47.7808C288.655 47.2624 288.671 46.6952 288.509 46.1668L291.373 44.37C292.474 45.8691 294.026 46.9749 295.801 47.5248L295.492 48.8781C294.882 48.9014 294.301 49.1457 293.858 49.5657C293.414 49.9856 293.138 50.5527 293.081 51.1613C293.023 51.7699 293.189 52.3786 293.546 52.8743C293.903 53.37 294.428 53.7188 295.023 53.856C295.618 53.9931 296.242 53.9092 296.78 53.6199C297.318 53.3305 297.732 52.8554 297.946 52.283C298.16 51.7105 298.16 51.0797 297.944 50.5077C297.728 49.9358 297.313 49.4618 296.774 49.1737L297.083 47.8158C298.971 48.1058 300.901 47.7614 302.572 46.8365L304.445 49.8204C304.145 50.1407 303.933 50.534 303.831 50.9613C303.721 51.4464 303.757 51.9534 303.934 52.4183C304.111 52.8831 304.422 53.2849 304.827 53.573C305.232 53.861 305.713 54.0224 306.21 54.0366C306.707 54.0509 307.197 53.9175 307.617 53.6532C308.038 53.3889 308.372 53.0056 308.575 52.5517C308.779 52.0978 308.844 51.5937 308.761 51.103C308.679 50.6124 308.453 50.1571 308.113 49.7948C307.772 49.4325 307.332 49.1794 306.848 49.0675C306.42 48.9698 305.974 48.989 305.556 49.1229L303.679 46.1252C305.122 45.0285 306.187 43.5071 306.723 41.7741L308.061 42.0836ZM296.53 34.4992C296.601 34.1893 296.762 33.9075 296.993 33.6894C297.224 33.4713 297.515 33.3267 297.828 33.2739C298.141 33.2211 298.463 33.2625 298.752 33.3929C299.042 33.5232 299.286 33.7367 299.455 34.0062C299.623 34.2757 299.708 34.5892 299.699 34.9071C299.689 35.2249 299.586 35.5328 299.402 35.7917C299.217 36.0507 298.96 36.2491 298.664 36.3619C298.367 36.4747 298.043 36.4968 297.734 36.4253C297.32 36.3286 296.961 36.0715 296.737 35.7105C296.512 35.3494 296.439 34.9139 296.534 34.4992H296.53ZM298.126 39.9773C297.911 39.928 297.715 39.8158 297.563 39.655C297.412 39.4943 297.311 39.2922 297.275 39.0742C297.238 38.8563 297.266 38.6323 297.357 38.4306C297.447 38.2289 297.595 38.0585 297.782 37.941C297.969 37.8235 298.186 37.7642 298.407 37.7705C298.628 37.7768 298.841 37.8484 299.021 37.9764C299.201 38.1044 299.339 38.2829 299.418 38.4894C299.497 38.696 299.513 38.9212 299.463 39.1367C299.397 39.4249 299.22 39.6751 298.97 39.8327C298.72 39.9902 298.418 40.0422 298.13 39.9773H298.126ZM301.728 39.2845C301.485 39.2278 301.263 39.1001 301.093 38.9175C300.922 38.735 300.808 38.5058 300.768 38.2589C300.727 38.012 300.76 37.7585 300.863 37.5304C300.966 37.3024 301.134 37.11 301.346 36.9777C301.558 36.8453 301.805 36.7789 302.054 36.7868C302.304 36.7948 302.546 36.8767 302.749 37.0223C302.953 37.1678 303.108 37.3705 303.197 37.6046C303.285 37.8387 303.302 38.0938 303.246 38.3376C303.168 38.6625 302.965 38.9437 302.682 39.1208C302.399 39.2979 302.058 39.3567 301.733 39.2845H301.728Z" fill="#F9D8AD"/>
<path d="M33.9979 42.139C34.3221 42.6572 34.8232 43.0398 35.408 43.2156C35.9929 43.3914 36.6215 43.3485 37.1771 43.0947C37.7327 42.841 38.1772 42.3937 38.4281 41.8362C38.679 41.2787 38.719 40.6489 38.5408 40.0641C38.3626 39.4792 37.9782 38.9791 37.4593 38.6568C36.9404 38.3346 36.3222 38.2121 35.7198 38.3122C35.1174 38.4123 34.5719 38.7281 34.1847 39.201C33.7975 39.6738 33.5951 40.2714 33.6151 40.8826L32.2867 41.2891C31.614 39.5539 30.4031 38.0806 28.832 37.0858L30.5571 33.8525C31.0932 33.9791 31.6561 33.9234 32.1572 33.6942C32.6582 33.4651 33.0689 33.0755 33.3245 32.5869C33.6394 31.9958 33.7069 31.3037 33.5123 30.6627C33.3177 30.0217 32.8769 29.4844 32.2867 29.1689C31.7489 28.8741 31.122 28.7867 30.5243 28.9232C29.9266 29.0597 29.3994 29.4107 29.0424 29.9097C28.6854 30.4088 28.5231 31.0215 28.5864 31.6322C28.6496 32.2428 28.9339 32.8092 29.3855 33.2243L27.6743 36.49C25.9731 35.7408 24.0768 35.5578 22.264 35.968L21.8627 34.6377C22.3801 34.3133 22.7621 33.8117 22.9378 33.2263C23.1135 32.6408 23.0709 32.0114 22.8179 31.4551C22.5649 30.8988 22.1188 30.4534 21.5625 30.2019C21.0062 29.9503 20.3775 29.9096 19.7935 30.0874C19.2095 30.2652 18.7098 30.6494 18.3875 31.1685C18.0651 31.6876 17.942 32.3063 18.041 32.9095C18.1401 33.5127 18.4545 34.0594 18.9259 34.4478C19.3972 34.8362 19.9934 35.0399 20.6035 35.0211L21.0094 36.3514C19.3217 37.0037 17.881 38.1702 16.8906 39.6863L13.7726 38.0235C13.8807 37.5656 13.8584 37.0866 13.7084 36.6408C13.5584 36.1949 13.2867 35.8001 12.924 35.5011C12.5613 35.202 12.1222 35.0108 11.6565 34.949C11.1908 34.8872 10.7171 34.9573 10.2891 35.1514C9.86118 35.3455 9.49612 35.6558 9.23534 36.0471C8.97457 36.4385 8.82851 36.8951 8.81374 37.3654C8.79897 37.8356 8.91609 38.3006 9.15179 38.7075C9.3875 39.1145 9.73237 39.4472 10.1473 39.6678C10.6336 39.9286 11.1925 40.0206 11.7366 39.9295C12.2807 39.8385 12.7794 39.5694 13.1546 39.1643L16.2587 40.8179C15.4609 42.551 15.255 44.4988 15.6729 46.3607L14.3445 46.7626C14.0206 46.2445 13.5197 45.8619 12.9351 45.6859C12.3505 45.51 11.722 45.5527 11.1665 45.806C10.611 46.0593 10.1662 46.5061 9.91501 47.0633C9.66379 47.6204 9.62319 48.2499 9.80075 48.8348C9.97831 49.4196 10.3619 49.92 10.8803 50.2428C11.3987 50.5656 12.0165 50.6889 12.6188 50.5897C13.2211 50.4905 13.767 50.1757 14.1548 49.7036C14.5427 49.2316 14.7462 48.6346 14.7274 48.0236L16.0557 47.6171C16.7285 49.3511 17.9395 50.8229 19.5104 51.8157L17.9238 54.8042C17.3308 54.671 16.7098 54.7575 16.1756 55.0475C15.6414 55.3375 15.2301 55.8115 15.018 56.3818C14.8059 56.952 14.8072 57.5799 15.0217 58.1493C15.2362 58.7186 15.6495 59.1909 16.1849 59.4786C16.7756 59.7897 17.4646 59.856 18.1036 59.6634C18.4198 59.5667 18.7138 59.4084 18.9687 59.1975C19.2235 58.9866 19.4343 58.7274 19.5888 58.4348C19.8452 57.9472 19.9344 57.3887 19.8427 56.8454C19.7511 56.302 19.4836 55.8039 19.0815 55.4278L20.6681 52.4393C22.3683 53.192 24.2653 53.3766 26.0784 52.9659L26.4843 54.2961C25.9669 54.6208 25.5848 55.1226 25.4092 55.7083C25.2337 56.294 25.2766 56.9236 25.53 57.4799C25.7833 58.0363 26.2299 58.4815 26.7867 58.7327C27.3434 58.9839 27.9722 59.024 28.5563 58.8455C29.1403 58.6671 29.6397 58.2822 29.9615 57.7625C30.2833 57.2428 30.4056 56.6238 30.3057 56.0205C30.2057 55.4173 29.8903 54.871 29.4181 54.4832C28.9459 54.0955 28.3492 53.8928 27.7389 53.9128L27.333 52.5825C29.1126 51.89 30.614 50.6283 31.6041 48.9935L34.7082 50.6518C34.5818 51.1887 34.6374 51.7524 34.8662 52.2542C35.0951 52.7559 35.4841 53.1672 35.972 53.4232C36.2626 53.5804 36.5816 53.6778 36.9104 53.7095C37.2392 53.7413 37.5709 53.7067 37.8861 53.6079C38.2586 53.4986 38.6009 53.3046 38.8861 53.041C39.1714 52.7773 39.3919 52.4512 39.5305 52.0882C39.6691 51.7251 39.722 51.3348 39.6851 50.9479C39.6482 50.5609 39.5224 50.1877 39.3177 49.8575C39.113 49.5272 38.8348 49.2489 38.5049 49.0441C38.175 48.8393 37.8022 48.7136 37.4158 48.677C37.0294 48.6403 36.6397 48.6935 36.2773 48.8326C35.9148 48.9716 35.5893 49.1927 35.3263 49.4785L32.2083 47.8157C32.9101 46.146 33.0714 44.2979 32.6695 42.5316L33.9979 42.139ZM20.2299 41.3122C20.1369 41.0081 20.1361 40.6832 20.2275 40.3786C20.3189 40.074 20.4985 39.8034 20.7436 39.6011C20.9886 39.3988 21.2881 39.2738 21.6041 39.242C21.9201 39.2102 22.2384 39.2729 22.5188 39.4224C22.7992 39.5718 23.0289 39.8012 23.1791 40.0815C23.3292 40.3617 23.393 40.6803 23.3622 40.9969C23.3315 41.3134 23.2077 41.6137 23.0064 41.8598C22.8052 42.1059 22.5356 42.2866 22.2317 42.3792C22.0303 42.4411 21.8187 42.4627 21.609 42.4426C21.3993 42.4225 21.1956 42.3611 21.0096 42.2619C20.8236 42.1628 20.659 42.0279 20.5252 41.8649C20.3914 41.7019 20.2911 41.5141 20.2299 41.3122ZM24.3396 45.266C24.1281 45.3311 23.902 45.3317 23.6902 45.2679C23.4783 45.204 23.2902 45.0785 23.1497 44.9074C23.0091 44.7362 22.9226 44.5271 22.901 44.3066C22.8794 44.0861 22.9237 43.8642 23.0283 43.6689C23.133 43.4737 23.2932 43.314 23.4886 43.2101C23.684 43.1063 23.9059 43.0629 24.126 43.0856C24.3461 43.1082 24.5545 43.1959 24.7247 43.3374C24.895 43.4789 25.0194 43.6679 25.0822 43.8803C25.1656 44.1627 25.1344 44.4666 24.9954 44.7261C24.8563 44.9855 24.6207 45.1796 24.3396 45.266ZM27.107 42.8688C26.8679 42.9419 26.6126 42.9424 26.3732 42.8703C26.1339 42.7981 25.9213 42.6564 25.7623 42.4632C25.6033 42.27 25.5052 42.0339 25.4802 41.7848C25.4552 41.5358 25.5046 41.2849 25.622 41.0639C25.7395 40.8429 25.9197 40.6617 26.14 40.5433C26.3602 40.4249 26.6106 40.3746 26.8594 40.3987C27.1082 40.4228 27.3443 40.5203 27.5378 40.6788C27.7313 40.8372 27.8735 41.0496 27.9465 41.2891C27.9957 41.4474 28.0133 41.6139 27.9982 41.779C27.9831 41.9441 27.9356 42.1046 27.8585 42.2514C27.7814 42.3981 27.6761 42.5282 27.5488 42.6341C27.4214 42.74 27.2744 42.8198 27.1162 42.8688H27.107Z" fill="#F9D8AD"/>
<path d="M30.2894 188.321C30.401 188.724 30.6549 189.074 31.0042 189.305C31.3536 189.535 31.7745 189.632 32.1891 189.575C32.6037 189.519 32.9839 189.314 33.2591 188.998C33.5344 188.683 33.686 188.278 33.686 187.859C33.686 187.44 33.5344 187.035 33.2591 186.719C32.9839 186.404 32.6037 186.199 32.1891 186.142C31.7745 186.086 31.3536 186.182 31.0042 186.413C30.6549 186.643 30.401 186.993 30.2894 187.397H29.3346C29.2212 186.119 28.7024 184.912 27.854 183.951L29.616 182.14C29.8796 182.287 30.1767 182.364 30.4785 182.362C30.7065 182.36 30.9318 182.313 31.1415 182.223C31.3513 182.133 31.5413 182.003 31.7008 181.84C32.0199 181.509 32.1955 181.065 32.1894 180.605C32.1834 180.145 31.9962 179.706 31.6685 179.383C31.3363 179.072 30.8958 178.905 30.4416 178.916C29.982 178.924 29.544 179.113 29.2234 179.443C28.9027 179.772 28.7255 180.216 28.7304 180.676C28.7371 180.979 28.823 181.276 28.9795 181.535L27.2129 183.346C26.231 182.524 25.0124 182.039 23.7352 181.96V181.004C24.1372 180.892 24.4851 180.639 24.7146 180.29C24.9441 179.941 25.0395 179.52 24.9832 179.106C24.9269 178.693 24.7227 178.313 24.4085 178.038C24.0942 177.763 23.6911 177.612 23.274 177.612C22.8568 177.612 22.4537 177.763 22.1394 178.038C21.8252 178.313 21.621 178.693 21.5647 179.106C21.5084 179.52 21.6038 179.941 21.8333 180.29C22.0628 180.639 22.4107 180.892 22.8127 181.004V181.96C21.5709 182.069 20.394 182.564 19.4457 183.374L17.7022 181.674C17.8598 181.391 17.9352 181.069 17.9197 180.745C17.9042 180.421 17.7985 180.108 17.6145 179.841C17.4306 179.575 17.1757 179.365 16.8788 179.235C16.5819 179.106 16.2547 179.063 15.9344 179.11C15.6141 179.157 15.3135 179.294 15.0664 179.503C14.8194 179.713 14.6359 179.987 14.5366 180.296C14.4374 180.605 14.4264 180.935 14.5049 181.249C14.5835 181.564 14.7483 181.85 14.9809 182.076C15.2518 182.344 15.6048 182.515 15.9835 182.559C16.3621 182.603 16.7448 182.519 17.0703 182.321L18.8092 184.016C17.9443 185.007 17.4317 186.258 17.3517 187.572H16.3969C16.2853 187.166 16.0302 186.814 15.6791 186.582C15.328 186.349 14.9047 186.252 14.4876 186.309C14.0705 186.365 13.688 186.571 13.4111 186.888C13.1341 187.206 12.9814 187.613 12.9814 188.034C12.9814 188.456 13.1341 188.863 13.4111 189.18C13.688 189.498 14.0705 189.704 14.4876 189.76C14.9047 189.816 15.328 189.719 15.6791 189.487C16.0302 189.255 16.2853 188.903 16.3969 188.496H17.3563C17.4658 189.773 17.9852 190.98 18.8368 191.937L17.2087 193.609C16.9263 193.454 16.6061 193.38 16.2842 193.397C15.9623 193.414 15.6515 193.521 15.3869 193.705C15.1223 193.889 14.9144 194.144 14.7866 194.441C14.6589 194.737 14.6164 195.063 14.664 195.382C14.7115 195.702 14.8472 196.001 15.0558 196.247C15.2643 196.494 15.5374 196.676 15.8442 196.775C16.151 196.875 16.4793 196.886 16.7921 196.808C17.105 196.73 17.3898 196.566 17.6146 196.335C17.8786 196.061 18.0456 195.708 18.0898 195.33C18.1339 194.952 18.0529 194.57 17.859 194.242L19.4826 192.57C20.4635 193.393 21.6827 193.879 22.9603 193.956V194.917C22.557 195.028 22.2079 195.283 21.9776 195.632C21.7472 195.982 21.6513 196.404 21.7076 196.819C21.7639 197.234 21.9686 197.615 22.2838 197.891C22.5989 198.166 23.0031 198.318 23.4215 198.318C23.84 198.318 24.2442 198.166 24.5593 197.891C24.8745 197.615 25.0792 197.234 25.1355 196.819C25.1918 196.404 25.0959 195.982 24.8655 195.632C24.6352 195.283 24.286 195.028 23.8828 194.917V193.96C25.1926 193.843 26.4275 193.298 27.3974 192.408L29.1363 194.104C28.9848 194.366 28.9067 194.664 28.9103 194.967C28.9176 195.428 29.1065 195.866 29.4358 196.187C29.7651 196.508 30.208 196.686 30.6676 196.681C31.0117 196.674 31.3459 196.565 31.6278 196.367C31.9097 196.17 32.1265 195.892 32.2506 195.571C32.3748 195.25 32.4006 194.899 32.3249 194.562C32.2491 194.226 32.0752 193.92 31.8253 193.683C31.6628 193.524 31.4702 193.398 31.2588 193.314C31.0473 193.23 30.8213 193.189 30.5938 193.194C30.2911 193.197 29.9947 193.281 29.7359 193.438L27.997 191.739C28.7815 190.768 29.2428 189.576 29.3162 188.33L30.2894 188.321ZM21.3368 185.12C21.3331 184.9 21.3946 184.685 21.5134 184.5C21.6322 184.316 21.8029 184.171 22.004 184.084C22.2052 183.997 22.4276 183.971 22.6431 184.011C22.8586 184.05 23.0576 184.153 23.2148 184.306C23.372 184.459 23.4803 184.655 23.5261 184.87C23.5719 185.084 23.553 185.308 23.472 185.512C23.3909 185.715 23.2512 185.891 23.0706 186.015C22.89 186.139 22.6767 186.207 22.4576 186.21C22.3124 186.212 22.1682 186.186 22.0332 186.132C21.8982 186.079 21.7752 185.999 21.671 185.898C21.5669 185.797 21.4837 185.676 21.4264 185.542C21.369 185.409 21.3386 185.265 21.3368 185.12ZM23.297 188.524C23.1443 188.527 22.9942 188.484 22.8659 188.401C22.7375 188.318 22.6366 188.199 22.5761 188.058C22.5155 187.918 22.498 187.763 22.5258 187.612C22.5535 187.462 22.6253 187.323 22.732 187.214C22.8387 187.104 22.9755 187.029 23.1249 186.998C23.2744 186.966 23.4298 186.98 23.5715 187.037C23.7131 187.095 23.8345 187.193 23.9204 187.319C24.0062 187.446 24.0525 187.595 24.0534 187.748C24.0547 187.849 24.0361 187.949 23.9987 188.042C23.9614 188.136 23.906 188.221 23.8357 188.293C23.7655 188.365 23.6818 188.422 23.5893 188.462C23.4969 188.502 23.3976 188.523 23.297 188.524ZM25.6032 187.475C25.4297 187.48 25.2587 187.433 25.1123 187.339C24.9658 187.246 24.8505 187.111 24.7811 186.952C24.7117 186.792 24.6914 186.616 24.7228 186.445C24.7541 186.274 24.8357 186.116 24.9571 185.992C25.0786 185.868 25.2342 185.783 25.4042 185.748C25.5743 185.713 25.7509 185.729 25.9114 185.795C26.072 185.861 26.2092 185.974 26.3055 186.118C26.4018 186.263 26.4527 186.433 26.4519 186.607C26.4519 186.836 26.3618 187.055 26.2012 187.218C26.0405 187.38 25.8224 187.473 25.594 187.475H25.6032Z" fill="#F9D8AD"/>
<path d="M261.158 17.8893C261.292 18.3887 261.604 18.8221 262.034 19.1089C262.464 19.3956 262.983 19.5162 263.495 19.4481C264.007 19.3801 264.477 19.128 264.818 18.7389C265.158 18.3497 265.346 17.85 265.346 17.3327C265.346 16.8153 265.158 16.3156 264.818 15.9265C264.477 15.5374 264.007 15.2853 263.495 15.2173C262.983 15.1492 262.464 15.2698 262.034 15.5565C261.604 15.8433 261.292 16.2767 261.158 16.7761H259.981C259.844 15.2073 259.207 13.7242 258.164 12.5451L260.332 10.3141C260.653 10.4986 261.018 10.5943 261.388 10.5913C261.738 10.5862 262.082 10.4948 262.388 10.3251C262.695 10.1555 262.955 9.91289 263.145 9.61872C263.336 9.32455 263.451 8.98791 263.481 8.63855C263.51 8.2892 263.454 7.9379 263.315 7.61571C263.177 7.29353 262.962 7.01039 262.689 6.79133C262.415 6.57227 262.092 6.42404 261.748 6.35974C261.404 6.29545 261.049 6.31708 260.715 6.42271C260.381 6.52834 260.079 6.71472 259.834 6.96537C259.634 7.1671 259.477 7.40659 259.371 7.66988C259.265 7.93317 259.212 8.21498 259.216 8.49888C259.222 8.87071 259.328 9.23412 259.52 9.55201L257.371 11.7784C256.164 10.7667 254.666 10.1679 253.095 10.0693V8.89611C253.595 8.76115 254.029 8.44886 254.316 8.01736C254.604 7.58587 254.724 7.06457 254.656 6.55049C254.589 6.03642 254.336 5.56458 253.947 5.22281C253.557 4.88105 253.057 4.69263 252.539 4.69263C252.022 4.69263 251.521 4.88105 251.132 5.22281C250.743 5.56458 250.49 6.03642 250.422 6.55049C250.354 7.06457 250.475 7.58587 250.762 8.01736C251.05 8.44886 251.484 8.76115 251.984 8.89611V10.074C250.452 10.2015 249 10.8092 247.832 11.8107L245.692 9.71829C245.885 9.37003 245.977 8.97461 245.958 8.57678C245.938 8.17896 245.807 7.7946 245.581 7.46721C245.354 7.13981 245.041 6.88245 244.676 6.72423C244.311 6.56602 243.909 6.51327 243.515 6.57196C243.122 6.63065 242.753 6.79843 242.45 7.05631C242.146 7.3142 241.921 7.6519 241.8 8.03121C241.679 8.41051 241.666 8.81628 241.763 9.20259C241.859 9.5889 242.062 9.94034 242.348 10.2171C242.549 10.413 242.787 10.5672 243.047 10.6711C243.307 10.7749 243.586 10.8263 243.866 10.8222C244.235 10.8166 244.597 10.7164 244.917 10.5312L247.048 12.6098C245.99 13.8323 245.361 15.369 245.259 16.984H244.087C243.953 16.4845 243.641 16.0511 243.211 15.7644C242.781 15.4776 242.262 15.3571 241.75 15.4251C241.238 15.4932 240.768 15.7452 240.427 16.1343C240.087 16.5235 239.899 17.0232 239.899 17.5405C239.899 18.0579 240.087 18.5576 240.427 18.9467C240.768 19.3359 241.238 19.5879 241.75 19.656C242.262 19.724 242.781 19.6035 243.211 19.3167C243.641 19.03 243.953 18.5966 244.087 18.0971H245.259C245.404 19.6707 246.051 21.1557 247.104 22.3327L245.107 24.3836C244.656 24.1283 244.127 24.0466 243.62 24.1539C243.114 24.2612 242.663 24.55 242.354 24.9663C242.045 25.3825 241.898 25.8975 241.941 26.4144C241.984 26.9314 242.214 27.4148 242.588 27.7739C242.994 28.1659 243.539 28.3814 244.103 28.3736C244.667 28.3658 245.205 28.1353 245.6 27.7323C245.925 27.3971 246.131 26.964 246.186 26.4998C246.241 26.0357 246.142 25.5664 245.905 25.1642L247.883 23.0949C249.087 24.1108 250.587 24.7102 252.159 24.8039V25.9817C251.659 26.1172 251.226 26.4298 250.939 26.8614C250.652 27.2929 250.532 27.8141 250.6 28.3279C250.668 28.8417 250.921 29.3133 251.31 29.6548C251.699 29.9963 252.199 30.1846 252.717 30.1846C253.235 30.1846 253.735 29.9963 254.124 29.6548C254.513 29.3133 254.766 28.8417 254.834 28.3279C254.902 27.8141 254.782 27.2929 254.495 26.8614C254.208 26.4298 253.775 26.1172 253.275 25.9817V24.8039C254.885 24.6606 256.403 23.992 257.597 22.9009L259.728 24.9794C259.502 25.3888 259.417 25.8613 259.486 26.3239C259.555 26.7865 259.774 27.2134 260.109 27.5389C260.445 27.8643 260.878 28.07 261.342 28.1243C261.806 28.1786 262.275 28.0785 262.676 27.8393C263.077 27.6002 263.389 27.2353 263.563 26.8011C263.736 26.3669 263.762 25.8875 263.637 25.437C263.511 24.9865 263.241 24.5899 262.868 24.3085C262.495 24.0271 262.04 23.8766 261.573 23.8801C261.202 23.8873 260.84 23.9907 260.521 24.1803L258.381 22.0926C259.343 20.8987 259.911 19.4345 260.005 17.9031L261.158 17.8893ZM250.157 13.9539C250.154 13.6846 250.23 13.4203 250.376 13.1944C250.522 12.9684 250.732 12.7909 250.979 12.6843C251.226 12.5777 251.499 12.5468 251.763 12.5954C252.028 12.644 252.272 12.7701 252.465 12.9576C252.658 13.1451 252.791 13.3856 252.848 13.6489C252.904 13.9121 252.882 14.1863 252.783 14.4367C252.684 14.6871 252.513 14.9026 252.292 15.0559C252.071 15.2092 251.81 15.2934 251.541 15.298C251.362 15.3011 251.184 15.2687 251.017 15.2027C250.851 15.1368 250.699 15.0386 250.57 14.9137C250.442 14.7888 250.339 14.6397 250.268 14.475C250.197 14.3103 250.16 14.1332 250.157 13.9539ZM252.565 18.1433C252.384 18.1432 252.207 18.0897 252.056 17.9896C251.905 17.8894 251.787 17.747 251.716 17.5801C251.645 17.4132 251.625 17.2291 251.658 17.0509C251.691 16.8726 251.776 16.708 251.902 16.5776C252.028 16.4472 252.189 16.3568 252.366 16.3176C252.543 16.2784 252.727 16.2921 252.896 16.3571C253.065 16.4221 253.211 16.5355 253.316 16.6831C253.422 16.8307 253.481 17.006 253.487 17.1872C253.492 17.3112 253.471 17.4348 253.427 17.5506C253.382 17.6665 253.315 17.7722 253.229 17.8614C253.143 17.9507 253.04 18.0216 252.925 18.07C252.811 18.1185 252.689 18.1434 252.565 18.1433ZM255.388 16.8546C255.175 16.8574 254.966 16.7968 254.788 16.6806C254.609 16.5645 254.47 16.3979 254.386 16.202C254.302 16.0062 254.278 15.7898 254.317 15.5804C254.357 15.371 254.457 15.178 254.606 15.0257C254.755 14.8734 254.945 14.7688 255.153 14.7251C255.362 14.6814 255.578 14.7006 255.775 14.7802C255.973 14.8598 256.142 14.9963 256.262 15.1724C256.382 15.3484 256.447 15.5561 256.448 15.7692C256.451 16.0538 256.341 16.3278 256.142 16.5313C255.943 16.7347 255.672 16.851 255.388 16.8546Z" fill="#F9D8AD"/>
<path d="M206.635 26.1758C206.721 26.501 206.922 26.7836 207.201 26.971C207.48 27.1584 207.818 27.2377 208.151 27.1942C208.484 27.1506 208.79 26.9872 209.012 26.7344C209.233 26.4815 209.356 26.1566 209.356 25.8201C209.356 25.4837 209.233 25.1587 209.012 24.9059C208.79 24.6531 208.484 24.4896 208.151 24.4461C207.818 24.4026 207.48 24.4819 207.201 24.6693C206.922 24.8567 206.721 25.1393 206.635 25.4645H205.883C205.795 24.4572 205.386 23.505 204.716 22.7485L206.1 21.3166C206.306 21.4355 206.54 21.4961 206.778 21.4922C207.139 21.4837 207.483 21.334 207.735 21.075C207.988 20.8161 208.129 20.4684 208.129 20.1065C208.123 19.7426 207.974 19.3958 207.714 19.1411C207.453 18.889 207.103 18.7497 206.741 18.7531C206.561 18.7549 206.384 18.7925 206.219 18.8639C206.054 18.9353 205.906 19.039 205.781 19.1688C205.571 19.3835 205.439 19.6618 205.404 19.9602C205.368 20.2586 205.433 20.5602 205.588 20.8178L204.204 22.2497C203.43 21.5981 202.468 21.2127 201.46 21.1504V20.3975C201.784 20.3111 202.067 20.1094 202.254 19.83C202.441 19.5505 202.52 19.2125 202.476 18.8788C202.433 18.5452 202.27 18.2388 202.017 18.0169C201.765 17.7949 201.44 17.6725 201.104 17.6725C200.768 17.6725 200.444 17.7949 200.191 18.0169C199.939 18.2388 199.776 18.5452 199.732 18.8788C199.689 19.2125 199.768 19.5505 199.955 19.83C200.142 20.1094 200.425 20.3111 200.749 20.3975V21.1504C199.769 21.2373 198.841 21.628 198.093 22.2681L196.709 20.924C196.839 20.6984 196.903 20.4406 196.893 20.1802C196.883 19.9199 196.801 19.6675 196.654 19.4521C196.508 19.2367 196.304 19.067 196.066 18.9624C195.827 18.8579 195.564 18.8227 195.307 18.8609C195.05 18.8992 194.808 19.0093 194.611 19.1786C194.413 19.348 194.267 19.5697 194.189 19.8184C194.112 20.0671 194.106 20.3326 194.172 20.5845C194.238 20.8365 194.374 21.0646 194.564 21.2427C194.825 21.4948 195.175 21.6341 195.537 21.6307C195.775 21.6285 196.008 21.5614 196.211 21.4367L197.594 22.7716C196.915 23.5569 196.512 24.5433 196.446 25.58H195.694C195.607 25.2551 195.406 24.973 195.127 24.7861C194.847 24.5991 194.51 24.5202 194.177 24.564C193.844 24.6078 193.539 24.7714 193.317 25.0241C193.096 25.2769 192.974 25.6017 192.974 25.9379C192.974 26.2742 193.096 26.5989 193.317 26.8517C193.539 27.1045 193.844 27.268 194.177 27.3118C194.51 27.3556 194.847 27.2767 195.127 27.0898C195.406 26.9029 195.607 26.6207 195.694 26.2959H196.446C196.537 27.3024 196.945 28.2538 197.613 29.0119L196.335 30.3283C196.15 30.2129 195.941 30.1428 195.724 30.1238C195.507 30.1048 195.288 30.1373 195.086 30.2189C194.884 30.3004 194.704 30.4285 194.561 30.5929C194.418 30.7572 194.315 30.9532 194.262 31.1647C194.208 31.3762 194.206 31.5974 194.254 31.8102C194.302 32.023 194.399 32.2214 194.539 32.3893C194.678 32.5571 194.854 32.6897 195.054 32.7763C195.254 32.8628 195.472 32.9008 195.689 32.8872C196.052 32.882 196.398 32.7344 196.653 32.4761C196.859 32.2585 196.988 31.9803 197.022 31.6831C197.056 31.3859 196.993 31.0856 196.843 30.8271L198.125 29.5107C198.898 30.1612 199.861 30.5451 200.869 30.6054V31.3629C200.545 31.4498 200.263 31.6518 200.076 31.9313C199.89 32.2108 199.811 32.5487 199.855 32.8821C199.898 33.2155 200.062 33.5216 200.314 33.7433C200.567 33.965 200.891 34.0873 201.227 34.0873C201.562 34.0873 201.887 33.965 202.139 33.7433C202.392 33.5216 202.555 33.2155 202.599 32.8821C202.642 32.5487 202.563 32.2108 202.377 31.9313C202.19 31.6518 201.908 31.4498 201.584 31.3629V30.6054C202.616 30.5147 203.589 30.0843 204.352 29.3814L205.735 30.7163C205.625 30.9263 205.57 31.1613 205.576 31.3987C205.582 31.6361 205.649 31.8679 205.77 32.072C205.891 32.276 206.063 32.4454 206.269 32.5639C206.474 32.6824 206.707 32.746 206.944 32.7486C207.141 32.7763 207.342 32.7608 207.533 32.7033C207.724 32.6458 207.901 32.5477 208.05 32.4155C208.2 32.2834 208.319 32.1205 208.4 31.9379C208.481 31.7553 208.521 31.5573 208.519 31.3576C208.516 31.1578 208.47 30.9611 208.385 30.7807C208.299 30.6003 208.175 30.4407 208.022 30.3126C207.869 30.1846 207.69 30.0912 207.498 30.0389C207.305 29.9866 207.103 29.9766 206.907 30.0096C206.669 30.0143 206.436 30.0829 206.233 30.2082L204.85 28.8641C205.468 28.1002 205.832 27.1619 205.892 26.1804L206.635 26.1758ZM199.578 23.6538C199.576 23.4814 199.625 23.3123 199.719 23.1678C199.813 23.0234 199.948 22.9101 200.106 22.8422C200.265 22.7743 200.439 22.7549 200.609 22.7864C200.778 22.818 200.934 22.899 201.058 23.0193C201.181 23.1397 201.266 23.2939 201.302 23.4625C201.338 23.6312 201.323 23.8067 201.26 23.967C201.196 24.1273 201.086 24.2651 200.945 24.3631C200.803 24.4611 200.635 24.5148 200.463 24.5176C200.234 24.5164 200.014 24.4253 199.851 24.2639C199.688 24.1024 199.595 23.8834 199.592 23.6538H199.578ZM201.137 26.3282C201.016 26.3301 200.898 26.296 200.796 26.2303C200.695 26.1646 200.616 26.0703 200.568 25.9594C200.521 25.8484 200.507 25.7258 200.529 25.607C200.551 25.4883 200.608 25.3788 200.692 25.2924C200.776 25.206 200.884 25.1467 201.002 25.1219C201.12 25.0971 201.243 25.1079 201.355 25.1531C201.467 25.1983 201.563 25.2757 201.631 25.3755C201.699 25.4754 201.735 25.5931 201.736 25.7139C201.738 25.8748 201.675 26.0297 201.563 26.1448C201.451 26.2599 201.297 26.3258 201.137 26.3282ZM202.945 25.5153C202.809 25.5171 202.675 25.4785 202.561 25.4044C202.447 25.3303 202.358 25.224 202.304 25.099C202.251 24.9739 202.235 24.8358 202.26 24.7019C202.285 24.5681 202.348 24.4446 202.443 24.347C202.538 24.2495 202.66 24.1823 202.792 24.154C202.925 24.1256 203.064 24.1374 203.19 24.1878C203.316 24.2382 203.425 24.3249 203.502 24.4371C203.579 24.5492 203.621 24.6817 203.623 24.8178C203.624 25 203.554 25.1753 203.427 25.3059C203.3 25.4364 203.127 25.5117 202.945 25.5153Z" fill="#F8EFEA"/>
<path d="M123.75 42.5224C123.837 42.8472 124.039 43.1294 124.318 43.3163C124.597 43.5032 124.934 43.5821 125.267 43.5383C125.6 43.4945 125.906 43.3309 126.127 43.0782C126.349 42.8254 126.471 42.5006 126.471 42.1644C126.471 41.8282 126.349 41.5034 126.127 41.2506C125.906 40.9978 125.6 40.8343 125.267 40.7905C124.934 40.7467 124.597 40.8256 124.318 41.0125C124.039 41.1994 123.837 41.4816 123.75 41.8064H122.994C122.906 40.7992 122.497 39.8469 121.827 39.0905L123.21 37.6632C123.418 37.7789 123.651 37.8394 123.889 37.8387C124.25 37.8303 124.594 37.6806 124.846 37.4216C125.099 37.1626 125.24 36.815 125.24 36.453C125.23 36.0919 125.08 35.7489 124.822 35.497C124.563 35.2451 124.217 35.1041 123.856 35.1043C123.496 35.1139 123.153 35.2641 122.902 35.523C122.65 35.7818 122.509 36.1288 122.509 36.49C122.512 36.7296 122.579 36.9641 122.703 37.169L121.319 38.5962C120.547 37.9466 119.586 37.5629 118.58 37.5015V36.744C118.904 36.6571 119.186 36.4551 119.372 36.1756C119.559 35.8961 119.638 35.5582 119.594 35.2248C119.55 34.8914 119.387 34.5854 119.135 34.3636C118.882 34.1419 118.558 34.0197 118.222 34.0197C117.886 34.0197 117.562 34.1419 117.31 34.3636C117.057 34.5854 116.894 34.8914 116.85 35.2248C116.807 35.5582 116.885 35.8961 117.072 36.1756C117.259 36.4551 117.54 36.6571 117.865 36.744V37.5015C116.885 37.5847 115.955 37.9741 115.208 38.6147L113.824 37.2752C113.954 37.0495 114.018 36.7917 114.008 36.5314C113.999 36.271 113.916 36.0187 113.77 35.8033C113.623 35.5879 113.419 35.4182 113.181 35.3136C112.943 35.209 112.68 35.1739 112.423 35.2121C112.165 35.2503 111.924 35.3605 111.726 35.5298C111.529 35.6992 111.383 35.9209 111.305 36.1696C111.227 36.4182 111.221 36.6838 111.288 36.9357C111.354 37.1876 111.49 37.4158 111.68 37.5939C111.941 37.846 112.29 37.9853 112.653 37.9819C112.89 37.9762 113.122 37.9094 113.326 37.7879L114.71 39.1228C114.03 39.9057 113.626 40.891 113.561 41.9265H112.81C112.723 41.6017 112.521 41.3195 112.242 41.1326C111.963 40.9457 111.625 40.8668 111.293 40.9106C110.96 40.9544 110.654 41.1179 110.433 41.3707C110.211 41.6235 110.089 41.9482 110.089 42.2845C110.089 42.6207 110.211 42.9455 110.433 43.1983C110.654 43.451 110.96 43.6146 111.293 43.6584C111.625 43.7022 111.963 43.6233 112.242 43.4364C112.521 43.2494 112.723 42.9673 112.81 42.6425H113.566C113.652 43.6493 114.06 44.6015 114.728 45.3584L113.465 46.6887C113.239 46.5585 112.982 46.4946 112.722 46.5042C112.462 46.5139 112.21 46.5968 111.995 46.7433C111.78 46.8899 111.61 47.0942 111.506 47.3328C111.401 47.5714 111.366 47.8347 111.404 48.0924C111.443 48.3501 111.553 48.5918 111.722 48.7898C111.891 48.9877 112.112 49.1339 112.36 49.2116C112.609 49.2893 112.874 49.2953 113.126 49.229C113.377 49.1626 113.605 49.0266 113.783 48.8365C113.989 48.6195 114.119 48.3415 114.154 48.0443C114.188 47.7471 114.126 47.4465 113.977 47.1875L115.254 45.8711C116.029 46.521 116.99 46.9062 117.998 46.9704V47.7233C117.674 47.8102 117.392 48.0122 117.206 48.2917C117.019 48.5712 116.94 48.9091 116.984 49.2425C117.028 49.5759 117.191 49.882 117.443 50.1037C117.696 50.3254 118.02 50.4477 118.356 50.4477C118.692 50.4477 119.016 50.3254 119.268 50.1037C119.521 49.882 119.684 49.5759 119.728 49.2425C119.772 48.9091 119.693 48.5712 119.506 48.2917C119.32 48.0122 119.038 47.8102 118.713 47.7233V46.9704C119.745 46.8777 120.718 46.4475 121.481 45.7464L122.865 47.0813C122.747 47.288 122.686 47.5224 122.689 47.7603C122.698 48.1222 122.847 48.4664 123.106 48.7193C123.364 48.9722 123.712 49.1138 124.073 49.1137C124.434 49.1052 124.778 48.9555 125.031 48.6965C125.283 48.4376 125.425 48.0899 125.424 47.728C125.415 47.3669 125.265 47.0239 125.006 46.7719C124.748 46.52 124.401 46.3791 124.041 46.3792C123.803 46.385 123.571 46.4518 123.367 46.5732L121.984 45.2337C122.601 44.4677 122.966 43.5282 123.026 42.5455L123.75 42.5224ZM116.693 39.9958C116.69 39.822 116.739 39.6514 116.834 39.5055C116.928 39.3595 117.063 39.2449 117.222 39.1761C117.382 39.1073 117.558 39.0874 117.729 39.1189C117.899 39.1505 118.057 39.232 118.181 39.3533C118.305 39.4745 118.391 39.63 118.427 39.8C118.463 39.9699 118.448 40.1468 118.383 40.3081C118.319 40.4694 118.208 40.608 118.065 40.7061C117.921 40.8043 117.752 40.8577 117.579 40.8595C117.347 40.862 117.124 40.7725 116.958 40.6107C116.792 40.4488 116.697 40.2277 116.693 39.9958ZM118.243 42.684C118.123 42.6858 118.006 42.6521 117.906 42.5872C117.805 42.5222 117.727 42.4289 117.679 42.319C117.632 42.2092 117.618 42.0877 117.639 41.97C117.661 41.8523 117.717 41.7436 117.8 41.6577C117.883 41.5718 117.99 41.5126 118.107 41.4874C118.224 41.4623 118.345 41.4724 118.456 41.5165C118.568 41.5606 118.663 41.6367 118.731 41.7352C118.799 41.8336 118.836 41.95 118.838 42.0697C118.839 42.2306 118.777 42.3855 118.665 42.5006C118.552 42.6156 118.399 42.6816 118.238 42.684H118.243ZM120.051 41.8572C119.915 41.859 119.782 41.8205 119.668 41.7464C119.554 41.6723 119.464 41.566 119.41 41.4409C119.357 41.3159 119.341 41.1777 119.366 41.0438C119.391 40.91 119.455 40.7865 119.549 40.689C119.644 40.5915 119.766 40.5243 119.899 40.4959C120.032 40.4676 120.17 40.4793 120.296 40.5297C120.423 40.5801 120.531 40.6669 120.608 40.779C120.685 40.8912 120.727 41.0237 120.729 41.1598C120.73 41.2505 120.714 41.3406 120.68 41.4249C120.646 41.5092 120.596 41.5859 120.533 41.6508C120.469 41.7156 120.394 41.7672 120.31 41.8026C120.227 41.8381 120.137 41.8566 120.046 41.8572H120.051Z" fill="#F8EFEA"/>
<path d="M159.824 11.7831C159.929 12.1722 160.171 12.5098 160.506 12.7331C160.841 12.9565 161.246 13.0503 161.645 12.9972C162.044 12.9441 162.41 12.7477 162.675 12.4445C162.941 12.1413 163.087 11.752 163.087 11.3489C163.087 10.9458 162.941 10.5564 162.675 10.2532C162.41 9.95003 162.044 9.75362 161.645 9.70053C161.246 9.64744 160.841 9.7413 160.506 9.96464C160.171 10.188 159.929 10.5256 159.824 10.9147H158.901C158.797 9.69101 158.301 8.53391 157.485 7.61674L159.178 5.88C159.428 6.02179 159.711 6.09508 159.999 6.09248C160.272 6.08947 160.54 6.01898 160.78 5.88725C161.019 5.75553 161.223 5.56664 161.372 5.33734C161.521 5.10805 161.611 4.84543 161.635 4.57279C161.658 4.30016 161.614 4.02592 161.507 3.77442C161.399 3.52291 161.231 3.30191 161.018 3.13101C160.804 2.96012 160.552 2.84462 160.283 2.79475C160.015 2.74488 159.738 2.76219 159.477 2.84514C159.217 2.92809 158.981 3.07412 158.79 3.27027C158.535 3.53112 158.373 3.86951 158.331 4.23234C158.288 4.59517 158.367 4.96188 158.555 5.27491L156.867 7.01165C155.929 6.22031 154.761 5.75228 153.537 5.67677V4.75297C153.925 4.64772 154.263 4.40472 154.486 4.06918C154.709 3.73363 154.802 3.32839 154.749 2.92882C154.696 2.52925 154.5 2.16257 154.197 1.89698C153.895 1.6314 153.506 1.48499 153.103 1.48499C152.701 1.48499 152.312 1.6314 152.009 1.89698C151.707 2.16257 151.51 2.52925 151.457 2.92882C151.404 3.32839 151.498 3.73363 151.721 4.06918C151.944 4.40472 152.281 4.64772 152.67 4.75297V5.67677C151.479 5.77983 150.35 6.25301 149.441 7.03013L147.771 5.39963C147.921 5.12897 147.992 4.82184 147.976 4.51292C147.961 4.20401 147.859 3.90564 147.683 3.65153C147.507 3.39742 147.263 3.1977 146.98 3.07493C146.696 2.95217 146.384 2.91126 146.079 2.95682C145.773 3.00239 145.486 3.13261 145.251 3.33278C145.015 3.53295 144.841 3.79508 144.746 4.08955C144.652 4.38402 144.641 4.6991 144.716 4.99917C144.791 5.29924 144.948 5.57234 145.17 5.78762C145.487 6.09191 145.912 6.25799 146.351 6.24952C146.639 6.24219 146.92 6.16108 147.167 6.01395L148.828 7.63522C148.007 8.58977 147.521 9.78696 147.444 11.044H146.521C146.416 10.6537 146.173 10.3149 145.837 10.0906C145.501 9.86644 145.095 9.77211 144.695 9.8252C144.295 9.8783 143.928 10.0752 143.662 10.3793C143.395 10.6834 143.249 11.0739 143.249 11.4782C143.249 11.8825 143.395 12.2731 143.662 12.5771C143.928 12.8812 144.295 13.0781 144.695 13.1312C145.095 13.1843 145.501 13.09 145.837 12.8658C146.173 12.6416 146.416 12.3028 146.521 11.9124H147.444C147.546 13.147 148.044 14.3153 148.865 15.2427L147.31 16.8409C147.04 16.6911 146.733 16.6201 146.425 16.6358C146.116 16.6514 145.818 16.7532 145.565 16.9296C145.311 17.1059 145.111 17.3498 144.989 17.6337C144.866 17.9176 144.825 18.2302 144.871 18.5361C144.916 18.8421 145.046 19.1292 145.246 19.365C145.446 19.6008 145.708 19.7759 146.002 19.8705C146.296 19.9652 146.611 19.9756 146.91 19.9005C147.21 19.8255 147.483 19.6681 147.698 19.446C147.95 19.1841 148.109 18.8464 148.151 18.485C148.192 18.1236 148.114 17.7585 147.928 17.4459L149.487 15.8478C150.426 16.6369 151.594 17.1032 152.817 17.178V18.1018C152.428 18.2071 152.089 18.4506 151.865 18.7871C151.641 19.1235 151.547 19.53 151.6 19.9308C151.653 20.3316 151.85 20.6994 152.154 20.9659C152.457 21.2323 152.847 21.3792 153.251 21.3792C153.655 21.3792 154.045 21.2323 154.348 20.9659C154.652 20.6994 154.849 20.3316 154.902 19.9308C154.955 19.53 154.86 19.1235 154.637 18.7871C154.413 18.4506 154.074 18.2071 153.685 18.1018V17.178C154.94 17.0713 156.124 16.5497 157.052 15.6953L158.712 17.3166C158.591 17.5387 158.522 17.7857 158.511 18.0386C158.5 18.2915 158.546 18.5436 158.647 18.7756C158.749 19.0076 158.901 19.2133 159.094 19.377C159.287 19.5406 159.515 19.6579 159.76 19.7198C160.005 19.7818 160.261 19.7866 160.508 19.7341C160.756 19.6816 160.988 19.5731 161.187 19.4169C161.386 19.2608 161.546 19.061 161.656 18.8331C161.766 18.6051 161.822 18.355 161.821 18.1018C161.818 17.8831 161.773 17.6669 161.687 17.4658C161.601 17.2647 161.476 17.0825 161.32 16.9298C161.163 16.777 160.978 16.6567 160.775 16.5756C160.573 16.4946 160.356 16.4544 160.137 16.4575C159.848 16.4646 159.565 16.5457 159.316 16.693L157.647 15.0672C158.398 14.1388 158.841 12.9989 158.915 11.8062L159.824 11.7831ZM151.258 8.72068C151.255 8.51021 151.314 8.3034 151.428 8.12649C151.541 7.94958 151.705 7.81056 151.898 7.72705C152.091 7.64354 152.305 7.61932 152.511 7.65746C152.718 7.6956 152.909 7.79438 153.059 7.94126C153.21 8.08815 153.313 8.27651 153.357 8.48246C153.4 8.68841 153.382 8.90265 153.304 9.098C153.225 9.29335 153.091 9.461 152.917 9.57968C152.744 9.69836 152.539 9.76271 152.328 9.76457C152.19 9.7664 152.052 9.74085 151.923 9.68938C151.794 9.63791 151.677 9.56152 151.578 9.46459C151.478 9.36765 151.399 9.25206 151.344 9.12442C151.289 8.99678 151.26 8.85959 151.258 8.72068ZM153.131 11.9817C152.985 11.9835 152.842 11.9419 152.72 11.8623C152.597 11.7826 152.501 11.6683 152.444 11.534C152.386 11.3997 152.37 11.2513 152.396 11.1076C152.423 10.9639 152.492 10.8313 152.594 10.7267C152.695 10.6221 152.826 10.55 152.969 10.5197C153.112 10.4894 153.26 10.5022 153.396 10.5564C153.531 10.6107 153.648 10.7039 153.73 10.8244C153.813 10.9449 153.858 11.0873 153.86 11.2334C153.862 11.3306 153.844 11.4272 153.808 11.5176C153.773 11.6081 153.719 11.6904 153.652 11.7601C153.584 11.8297 153.503 11.8851 153.413 11.9231C153.324 11.9612 153.228 11.9811 153.131 11.9817ZM155.331 10.9747C155.166 10.9766 155.004 10.9293 154.866 10.839C154.728 10.7486 154.619 10.6192 154.554 10.4672C154.489 10.3151 154.471 10.1472 154.501 9.98471C154.532 9.8222 154.61 9.67236 154.725 9.55416C154.841 9.43596 154.988 9.35469 155.15 9.32064C155.312 9.28659 155.48 9.30128 155.633 9.36286C155.786 9.42444 155.918 9.53014 156.011 9.6666C156.104 9.80305 156.155 9.96413 156.157 10.1295C156.159 10.2396 156.14 10.3491 156.099 10.4515C156.059 10.554 155.998 10.6473 155.922 10.7261C155.845 10.8048 155.753 10.8674 155.651 10.9101C155.55 10.9528 155.441 10.9748 155.331 10.9747Z" fill="#F8EFEA"/>
<path d="M315.662 180.524C315.907 180.98 316.31 181.332 316.795 181.514C317.28 181.695 317.814 181.694 318.299 181.511C318.783 181.327 319.184 180.974 319.427 180.516C319.671 180.059 319.74 179.528 319.622 179.023C319.504 178.518 319.207 178.074 318.786 177.772C318.365 177.47 317.849 177.331 317.334 177.382C316.818 177.433 316.339 177.669 315.985 178.048C315.631 178.426 315.426 178.92 315.408 179.438L314.26 179.711C313.788 178.205 312.846 176.892 311.571 175.965L313.208 173.314C313.521 173.408 313.852 173.428 314.174 173.374C314.497 173.32 314.803 173.192 315.068 173C315.333 172.808 315.55 172.558 315.704 172.269C315.857 171.98 315.941 171.659 315.951 171.332C315.96 171.004 315.894 170.679 315.758 170.382C315.622 170.084 315.42 169.822 315.166 169.615C314.913 169.408 314.615 169.263 314.296 169.189C313.978 169.116 313.646 169.118 313.328 169.193C312.777 169.323 312.3 169.666 312.002 170.148C311.704 170.629 311.608 171.21 311.737 171.762C311.819 172.132 311.999 172.474 312.258 172.75L310.621 175.397C309.223 174.669 307.629 174.408 306.073 174.653L305.801 173.508C306.257 173.262 306.608 172.859 306.789 172.373C306.971 171.887 306.97 171.352 306.786 170.867C306.603 170.382 306.25 169.981 305.793 169.737C305.336 169.493 304.807 169.424 304.302 169.542C303.798 169.66 303.354 169.958 303.053 170.379C302.751 170.801 302.613 171.318 302.664 171.834C302.714 172.35 302.951 172.83 303.328 173.184C303.706 173.539 304.199 173.744 304.717 173.762L304.989 174.907C303.519 175.364 302.229 176.27 301.299 177.498L298.753 175.923C298.867 175.542 298.872 175.136 298.768 174.751C298.663 174.367 298.453 174.02 298.162 173.749C297.87 173.478 297.509 173.294 297.119 173.217C296.728 173.141 296.324 173.176 295.953 173.318C295.581 173.46 295.256 173.703 295.016 174.02C294.775 174.337 294.627 174.715 294.59 175.112C294.553 175.508 294.627 175.907 294.804 176.264C294.982 176.62 295.255 176.92 295.594 177.129C295.831 177.277 296.096 177.376 296.372 177.421C296.649 177.466 296.931 177.456 297.203 177.392C297.564 177.303 297.896 177.124 298.167 176.87L300.7 178.441C299.926 179.865 299.644 181.505 299.897 183.106L298.749 183.374C298.502 182.921 298.099 182.573 297.616 182.394C297.132 182.216 296.601 182.22 296.12 182.405C295.639 182.59 295.241 182.943 295.001 183.4C294.76 183.856 294.694 184.384 294.813 184.886C294.933 185.388 295.23 185.83 295.65 186.129C296.07 186.427 296.584 186.563 297.097 186.511C297.609 186.459 298.086 186.222 298.437 185.845C298.788 185.467 298.991 184.975 299.007 184.459L300.151 184.191C300.625 185.695 301.567 187.008 302.84 187.937L301.331 190.376C300.837 190.231 300.308 190.27 299.84 190.486C299.373 190.702 298.999 191.079 298.788 191.55C298.577 192.02 298.544 192.551 298.693 193.044C298.843 193.537 299.165 193.959 299.602 194.233C299.842 194.384 300.11 194.486 300.39 194.533C300.67 194.58 300.956 194.57 301.232 194.505C301.509 194.44 301.769 194.321 301.999 194.155C302.229 193.988 302.424 193.778 302.572 193.535C302.817 193.137 302.924 192.669 302.877 192.203C302.83 191.738 302.633 191.3 302.314 190.958L303.822 188.519C305.219 189.248 306.813 189.511 308.37 189.267L308.637 190.413C308.182 190.659 307.83 191.062 307.649 191.548C307.468 192.033 307.469 192.568 307.652 193.053C307.835 193.538 308.188 193.94 308.645 194.184C309.102 194.428 309.632 194.497 310.136 194.379C310.64 194.26 311.084 193.963 311.386 193.541C311.687 193.12 311.825 192.603 311.775 192.087C311.724 191.571 311.488 191.091 311.11 190.736C310.732 190.382 310.239 190.176 309.721 190.159L309.454 189.009C310.997 188.524 312.336 187.541 313.264 186.214L315.796 187.785C315.682 188.166 315.678 188.572 315.783 188.956C315.887 189.34 316.097 189.687 316.388 189.958C316.68 190.228 317.041 190.412 317.431 190.488C317.821 190.564 318.225 190.53 318.596 190.388C318.967 190.247 319.292 190.004 319.533 189.687C319.774 189.371 319.922 188.993 319.959 188.597C319.997 188.201 319.924 187.802 319.747 187.445C319.571 187.089 319.298 186.789 318.96 186.579C318.563 186.328 318.094 186.217 317.626 186.264C317.159 186.311 316.721 186.513 316.382 186.838L313.831 185.221C314.517 183.848 314.756 182.294 314.514 180.778L315.662 180.524ZM304.057 179.06C303.99 178.792 304.004 178.51 304.098 178.251C304.192 177.991 304.361 177.766 304.583 177.603C304.805 177.44 305.071 177.348 305.347 177.337C305.622 177.327 305.894 177.399 306.128 177.544C306.362 177.689 306.548 177.901 306.661 178.153C306.774 178.405 306.81 178.684 306.763 178.956C306.717 179.228 306.59 179.48 306.4 179.679C306.209 179.879 305.964 180.017 305.695 180.076C305.343 180.153 304.976 180.09 304.67 179.9C304.365 179.71 304.145 179.409 304.057 179.06ZM307.318 182.635C307.136 182.678 306.946 182.666 306.77 182.601C306.595 182.536 306.443 182.42 306.334 182.268C306.224 182.117 306.162 181.936 306.155 181.749C306.148 181.562 306.196 181.377 306.294 181.217C306.392 181.058 306.535 180.931 306.705 180.853C306.875 180.775 307.065 180.749 307.249 180.778C307.434 180.808 307.605 180.892 307.743 181.019C307.88 181.146 307.976 181.312 308.019 181.494C308.076 181.738 308.035 181.995 307.903 182.209C307.772 182.422 307.562 182.575 307.318 182.635ZM309.8 180.759C309.594 180.808 309.378 180.794 309.18 180.719C308.982 180.645 308.81 180.513 308.687 180.341C308.563 180.169 308.494 179.964 308.487 179.752C308.479 179.54 308.535 179.331 308.647 179.151C308.758 178.971 308.92 178.828 309.113 178.74C309.306 178.653 309.52 178.624 309.729 178.658C309.938 178.693 310.132 178.788 310.286 178.933C310.441 179.077 310.549 179.264 310.598 179.471C310.63 179.608 310.635 179.75 310.612 179.889C310.589 180.028 310.54 180.161 310.465 180.281C310.391 180.4 310.294 180.504 310.18 180.586C310.066 180.668 309.937 180.727 309.8 180.759Z" fill="#F9D8AD"/>
<path d="M84.5081 11.3904C84.7534 11.847 85.156 12.1988 85.641 12.3804C86.1259 12.5619 86.6603 12.5609 87.1445 12.3774C87.6287 12.1939 88.0299 11.8404 88.2734 11.3828C88.5169 10.9253 88.5861 10.3947 88.4681 9.88982C88.3501 9.38497 88.053 8.94024 87.632 8.63838C87.211 8.33652 86.6949 8.1981 86.1796 8.24886C85.6644 8.29962 85.1851 8.53612 84.8309 8.91434C84.4768 9.29257 84.2719 9.78676 84.2544 10.305L83.1105 10.5729C82.6372 9.06716 81.6928 7.75384 80.4169 6.82686L82.0589 4.18018C82.5078 4.31492 82.9885 4.29741 83.4264 4.13035C83.8643 3.96329 84.2349 3.65605 84.4804 3.25638C84.7763 2.77535 84.8696 2.19646 84.7399 1.64663C84.6102 1.09681 84.2681 0.620924 83.7886 0.323323C83.5516 0.173532 83.2871 0.0726719 83.0107 0.0266662C82.7343 -0.0193395 82.4514 -0.00956275 82.1788 0.0554222C81.9056 0.119559 81.6476 0.23701 81.4197 0.401059C81.1918 0.565108 80.9984 0.772537 80.8507 1.01148C80.7029 1.25043 80.6036 1.51621 80.5584 1.79362C80.5133 2.07102 80.5232 2.35462 80.5876 2.6282C80.6745 2.98953 80.856 3.32115 81.1134 3.58895L79.4714 6.24024C78.0741 5.51102 76.4804 5.24881 74.9236 5.49197L74.6561 4.34646C75.112 4.1008 75.4633 3.69763 75.6446 3.21196C75.8259 2.72629 75.8248 2.19121 75.6416 1.70627C75.4583 1.22133 75.1054 0.819577 74.6485 0.575756C74.1916 0.331935 73.6617 0.262657 73.1576 0.380813C72.6535 0.49897 72.2094 0.796513 71.908 1.21808C71.6065 1.63964 71.4683 2.15651 71.519 2.67252C71.5697 3.18852 71.8058 3.6685 72.1835 4.02316C72.5612 4.37782 73.0547 4.58299 73.5721 4.6005L73.8397 5.74601C72.3694 6.20457 71.0791 7.11225 70.1498 8.34188L67.6083 6.76219C67.7217 6.38073 67.7263 5.97511 67.6216 5.59117C67.5169 5.20723 67.3071 4.86026 67.0158 4.58947C66.7245 4.31868 66.3635 4.13485 65.9734 4.05876C65.5833 3.98268 65.1797 4.01735 64.8082 4.15888C64.4368 4.30041 64.1122 4.54315 63.8713 4.85967C63.6304 5.1762 63.4826 5.55389 63.4448 5.95009C63.4069 6.34628 63.4804 6.74518 63.657 7.10172C63.8337 7.45826 64.1063 7.75823 64.4442 7.96775C64.6832 8.11493 64.9487 8.21352 65.2257 8.25791C65.5027 8.30229 65.7857 8.29158 66.0586 8.22641C66.4189 8.14065 66.75 7.96052 67.018 7.70446L69.5548 9.27954C68.7831 10.7025 68.4995 12.34 68.7476 13.9401L67.6037 14.208C67.3584 13.7514 66.9558 13.3996 66.4709 13.218C65.9859 13.0365 65.4516 13.0376 64.9673 13.2211C64.4831 13.4046 64.0819 13.758 63.8384 14.2156C63.5949 14.6732 63.5258 15.2037 63.6437 15.7086C63.7617 16.2134 64.0589 16.6582 64.4798 16.96C64.9008 17.2619 65.4169 17.4003 65.9322 17.3496C66.4474 17.2988 66.9267 17.0623 67.2809 16.6841C67.635 16.3058 67.8399 15.8117 67.8574 15.2935L69.0059 15.0256C69.4775 16.5309 70.4203 17.8443 71.6949 18.7716L70.1867 21.2104C69.8065 21.0985 69.4027 21.0953 69.0207 21.201C68.6388 21.3068 68.294 21.5173 68.0252 21.8088C67.7563 22.1003 67.5742 22.4613 67.4993 22.8509C67.4244 23.2406 67.4597 23.6435 67.6013 24.0141C67.7429 24.3847 67.985 24.7084 68.3005 24.9485C68.6159 25.1887 68.9921 25.3358 69.3865 25.3732C69.781 25.4107 70.1781 25.337 70.533 25.1605C70.8879 24.984 71.1865 24.7118 71.3951 24.3744C71.6397 23.9754 71.7464 23.5069 71.6989 23.0412C71.6514 22.5754 71.4523 22.1382 71.1322 21.797L72.6404 19.3582C74.0377 20.0874 75.6314 20.3496 77.1883 20.1064L77.4881 21.2473C77.0321 21.493 76.6808 21.8962 76.4995 22.3818C76.3182 22.8675 76.3193 23.4026 76.5025 23.8875C76.6858 24.3725 77.0387 24.7742 77.4956 25.018C77.9525 25.2619 78.4824 25.3311 78.9865 25.213C79.4906 25.0948 79.9347 24.7973 80.2361 24.3757C80.5376 23.9542 80.6758 23.4373 80.6251 22.9213C80.5744 22.4053 80.3383 21.9253 79.9606 21.5706C79.5829 21.216 79.0894 21.0108 78.572 20.9933L78.2906 19.8616C79.8332 19.3708 81.1719 18.3856 82.1004 17.0579L84.6326 18.633C84.522 18.9877 84.5076 19.3656 84.5911 19.7277C84.6422 20.0138 84.751 20.2864 84.9108 20.529C85.0707 20.7716 85.2782 20.979 85.5208 21.1386C85.7633 21.2982 86.0358 21.4065 86.3216 21.4571C86.6074 21.5077 86.9004 21.4994 87.1829 21.4328C87.4654 21.3662 87.7314 21.2426 87.9646 21.0696C88.1978 20.8966 88.3933 20.6778 88.5392 20.4265C88.6851 20.1753 88.7784 19.897 88.8133 19.6084C88.8482 19.3199 88.8241 19.0273 88.7423 18.7485C88.6118 18.1976 88.2687 17.7211 87.7879 17.4232C87.3072 17.1254 86.7282 17.0305 86.1778 17.1595C85.8167 17.2468 85.4844 17.4267 85.2138 17.6815L82.6678 16.1018C83.3557 14.7292 83.5961 13.175 83.355 11.6583L84.5081 11.3904ZM72.908 9.92158C72.8468 9.65927 72.8646 9.38468 72.9591 9.13251C73.0537 8.88033 73.2208 8.66188 73.4393 8.50476C73.6578 8.34764 73.9179 8.2589 74.1867 8.24975C74.4555 8.24059 74.721 8.31144 74.9497 8.45334C75.1783 8.59523 75.3598 8.80181 75.4713 9.04697C75.5827 9.29213 75.6191 9.56487 75.5759 9.83074C75.5326 10.0966 75.4116 10.3437 75.2282 10.5407C75.0448 10.7377 74.8072 10.8759 74.5454 10.9378C74.3712 10.9789 74.1907 10.9852 74.0141 10.9564C73.8375 10.9276 73.6683 10.8642 73.5162 10.7698C73.3641 10.6754 73.2321 10.5519 73.1277 10.4063C73.0233 10.2608 72.9487 10.0961 72.908 9.92158ZM76.1643 13.4967C75.9877 13.5331 75.8044 13.5169 75.6369 13.4501C75.4694 13.3833 75.3251 13.2689 75.2219 13.1209C75.1187 12.9729 75.061 12.7978 75.056 12.6173C75.0511 12.4369 75.099 12.2589 75.1939 12.1054C75.2889 11.9519 75.4266 11.8297 75.5902 11.7538C75.7537 11.6778 75.9359 11.6516 76.1142 11.6782C76.2926 11.7048 76.4592 11.7832 76.5935 11.9036C76.7278 12.024 76.8239 12.1812 76.87 12.3558C76.9021 12.4772 76.909 12.6039 76.8905 12.7282C76.872 12.8524 76.8284 12.9716 76.7624 13.0783C76.6963 13.1851 76.6092 13.2773 76.5064 13.3492C76.4035 13.4212 76.2872 13.4713 76.1643 13.4967ZM78.6458 11.6491C78.4389 11.6983 78.222 11.6849 78.0227 11.6106C77.8234 11.5363 77.6506 11.4045 77.5261 11.2319C77.4017 11.0592 77.3312 10.8534 77.3235 10.6406C77.3159 10.4278 77.3715 10.2174 77.4833 10.0363C77.595 9.8551 77.758 9.71121 77.9515 9.62282C78.1449 9.53443 78.3602 9.5055 78.5701 9.53971C78.78 9.57392 78.9751 9.66971 79.1306 9.81498C79.2861 9.96025 79.3951 10.1484 79.4437 10.3558C79.502 10.6299 79.4513 10.9159 79.3023 11.1531C79.1533 11.3903 78.9177 11.56 78.6458 11.626V11.6491Z" fill="#F9D8AD"/>
<path d="M249.64 172.514L252.906 220.349H219.074V213.161L217.045 220.349H171.991L181.004 172.514H249.64Z" fill="#F73C4F"/>
<path d="M179.209 182.039L181.004 172.514H249.641L250.01 173.96C244.811 174.69 197.502 182.45 179.209 182.039Z" fill="#BA2F42"/>
<path d="M219.074 213.162L221.113 201.369L231.26 199.402" stroke="#BA2F42" stroke-width="1.5" stroke-linecap="round" stroke-linejoin="round"/>
<path d="M185.021 179.484L177.973 220.349" stroke="#BA2F42" stroke-width="1.5" stroke-linecap="round" stroke-linejoin="round"/>
<path d="M191.086 179.484C191.086 179.484 189.241 195.84 182.097 196.432" stroke="#BA2F42" stroke-width="1.5" stroke-linecap="round" stroke-linejoin="round"/>
<path d="M225.799 192.478V172.514H230.734V187.531C230.736 188.18 230.609 188.824 230.361 189.424C230.114 190.025 229.75 190.57 229.292 191.03C228.833 191.489 228.289 191.854 227.69 192.102C227.09 192.351 226.448 192.478 225.799 192.478V192.478Z" stroke="#BA2F42" stroke-width="1.5" stroke-linecap="round" stroke-linejoin="round"/>
<path d="M225.799 192.478V200.459" stroke="#BA2F42" stroke-width="1.5" stroke-linecap="round" stroke-linejoin="round"/>
<path d="M330.348 94.8601L309.412 97.5114C308.614 97.6109 307.81 97.3896 307.174 96.8962C306.539 96.4027 306.125 95.6773 306.022 94.8786C305.923 94.079 306.144 93.2726 306.636 92.6356C307.129 91.9986 307.853 91.5827 308.651 91.479L329.582 88.8231C330.381 88.7262 331.185 88.9489 331.821 89.4427C332.457 89.9366 332.872 90.6617 332.977 91.4606C333.075 92.2599 332.854 93.0657 332.361 93.7024C331.869 94.3392 331.145 94.7553 330.348 94.8601Z" fill="#FFA297"/>
<path d="M305.994 95.4559C303.91 100.209 299.247 111.622 297.383 122.639C297.243 123.437 297.279 124.256 297.489 125.039C297.699 125.821 298.078 126.548 298.599 127.169C299.121 127.789 299.771 128.287 300.505 128.628C301.24 128.969 302.039 129.144 302.849 129.142H322.581C323.967 129.148 325.305 128.632 326.33 127.697C327.355 126.762 327.992 125.476 328.115 124.094C328.834 116.976 326.91 109.843 322.71 104.056C321.143 101.833 320.176 99.2435 319.901 96.5368C319.79 95.6055 319.342 94.7474 318.641 94.125C317.941 93.5026 317.037 93.1594 316.1 93.1603H309.491C308.748 93.1623 308.023 93.3804 307.402 93.788C306.781 94.1955 306.292 94.775 305.994 95.4559Z" fill="#FFD774"/>
<path d="M302.18 122.639C304.025 111.632 308.707 100.209 310.791 95.456C311.09 94.7757 311.581 94.1974 312.202 93.7914C312.824 93.3854 313.55 93.1693 314.292 93.1696H309.491C308.748 93.169 308.021 93.3849 307.399 93.7909C306.776 94.1968 306.285 94.7754 305.985 95.456C303.901 100.209 299.237 111.622 297.374 122.639C297.234 123.437 297.27 124.256 297.48 125.039C297.69 125.821 298.069 126.548 298.59 127.169C299.112 127.789 299.762 128.287 300.496 128.628C301.231 128.969 302.03 129.144 302.84 129.142H307.646C306.837 129.144 306.037 128.969 305.302 128.628C304.568 128.287 303.918 127.789 303.397 127.169C302.875 126.548 302.496 125.821 302.286 125.039C302.076 124.256 302.04 123.437 302.18 122.639Z" fill="#E4911F"/>
<path d="M317.106 89.3265H308.711V93.1695H317.106V89.3265Z" fill="#F8EFEA"/>
<path d="M327.497 80.6013L304.952 78.9985V84.3612L309.592 86.5229V89.3266H316.225V87.0864L318.974 86.5598L324.19 96.3705L326.303 95.8809L323.923 85.6083L327.497 84.9247V80.6013Z" fill="#F73C4F"/>
<path d="M309.592 86.5228L316.225 87.0863V89.3265H309.592V86.5228Z" fill="#BA2F42"/>
<path d="M318.974 86.5598L323.923 85.6083" stroke="#BA2F42" stroke-width="1.5" stroke-linecap="round" stroke-linejoin="round"/>
<path d="M327.498 81.04L328.577 81.5204V84.0701L327.498 84.3426V81.04Z" fill="#FAAB44"/>
<path d="M325.214 104.172C325.621 103.758 325.856 103.205 325.869 102.625C325.869 101.382 324.73 100.315 323.102 99.8532C323.346 99.641 323.544 99.3804 323.683 99.0879C323.822 98.7953 323.899 98.4772 323.909 98.1534C323.909 96.5136 321.926 95.188 319.486 95.188C317.046 95.188 315.062 96.5136 315.062 98.1534C315.062 99.3959 316.202 100.463 317.83 100.897C317.585 101.11 317.387 101.371 317.248 101.665C317.109 101.958 317.032 102.277 317.023 102.601C317.023 103.876 318.231 104.962 319.915 105.373C319.653 105.714 319.507 106.13 319.5 106.56C319.5 108.043 321.289 109.244 323.499 109.244C325.708 109.244 327.479 108.084 327.479 106.588C327.479 105.521 326.557 104.601 325.214 104.172Z" fill="#FFA297"/>
<path d="M312.134 89.2712C310.395 89.128 308.661 89.613 306.899 89.5622C305.137 89.5114 303.555 89.3497 301.825 89.4098C297.434 89.576 295.986 92.5645 293.587 95.2343C291.997 96.9251 290.557 98.752 289.284 100.694C288.703 101.618 267.195 132.981 267.195 132.981L264.677 129.004L235.499 147.018L247.763 166.501C254.318 174.353 265.872 173.674 265.872 173.674C293.394 172.459 302.309 117.923 302.724 115.313C303.409 114.244 303.957 113.092 304.353 111.886C304.855 110.285 305.143 108.625 305.211 106.948C305.28 105.562 304.818 104.177 305.252 102.856C306.091 100.278 307.627 97.6084 307.489 94.8324C309.385 94.5969 312.756 94.195 314.214 93.0495C316.206 91.456 314.417 89.4606 312.134 89.2712Z" fill="#FFA297"/>
<path d="M202.087 68.5319C201.842 64.8367 200.703 61.2247 201.293 57.4186C201.681 54.8366 202.433 51.1922 205.56 51.2569C205.615 48.5178 210.08 47.9636 212.017 47.885C214.042 47.8019 216.067 48.0375 218.073 47.885C219.618 47.7649 220.499 47.0998 221.902 46.6702C224.06 46.019 224.152 47.4647 225.01 48.698C226.145 50.3423 229.946 48.5317 231.735 49.0629C234.406 49.8573 235.812 52.1715 235.425 54.892C235.158 56.8274 233.889 57.9775 233.262 59.6357C234.885 59.6773 235.522 61.1646 235.056 62.615C234.47 64.4256 232.445 65.7698 230.799 66.5273C229.615 66.9853 228.4 67.3604 227.164 67.6497C225.402 68.1809 223.746 69.0354 221.934 69.391C218.072 70.0737 214.153 70.3831 210.232 70.3148C207.966 70.3172 205.711 69.9968 203.535 69.3633C203.186 69.258 202.848 69.1204 202.525 68.9522C202.156 68.7582 202.188 68.5781 202.087 68.5319Z" fill="#641216"/>
<path d="M264.677 128.985L235.499 146.999L246.195 163.974C250.088 146.482 264.677 128.985 264.677 128.985Z" fill="#F55C2B"/>
<path d="M215.601 88.9385C212.683 88.5189 209.719 88.5361 206.805 88.9893C198.143 90.3289 175.755 94.6568 172.886 107.585C169.657 122.103 168.043 177.291 168.043 177.291H252.2L249.894 140.209L265.604 128.297L249.894 106.306C249.894 106.306 241.846 92.7307 215.601 88.9385Z" fill="#69A4C2"/>
<path d="M218.931 104.07C230.573 103.433 232.146 96.8924 232.118 93.2896C226.81 91.1715 221.263 89.7103 215.601 88.9385C212.683 88.5189 209.719 88.5361 206.805 88.9893C204.379 89.3635 200.874 89.9732 197.022 90.9432C197.022 90.9432 198.102 105.207 218.931 104.07Z" fill="white"/>
<path d="M218.581 99.9872C225.31 99.9872 227.395 98.3705 228.437 91.927C224.256 90.5493 219.96 89.5491 215.601 88.9385C212.683 88.5189 209.719 88.5361 206.805 88.9893C205.302 89.2203 203.503 89.5482 201.556 89.9917C201.69 97.3589 211.192 99.9872 218.581 99.9872Z" fill="#FFA297"/>
<path d="M221.376 72.9707H206.584V93.7377H221.376V72.9707Z" fill="#FFA297"/>
<path d="M206.584 72.98V78.8784C206.584 78.8784 214.231 88.0794 221.394 88.6383V72.98H206.584Z" fill="#F55C2B"/>
<path d="M267.195 132.962C267.195 132.962 262.776 136.611 261.296 140.209" stroke="#F55C2B" stroke-width="1.5" stroke-linecap="round" stroke-linejoin="round"/>
<path d="M198.914 220.492H168.043L169.51 143.175H198.914V220.492Z" fill="#FFA297"/>
<path d="M169.51 143.175H198.914L169.242 148.135L169.51 143.175Z" fill="#F55C2B"/>
<path d="M198.914 143.175L199.762 124.038" stroke="#376F92" stroke-width="1.5" stroke-linecap="round" stroke-linejoin="round"/>
<path d="M249.876 140.209L248.077 123.692" stroke="#376F92" stroke-width="1.5" stroke-linecap="round" stroke-linejoin="round"/>
<path d="M213.977 60.481C213.078 66.1993 204.836 67.7882 204.836 67.7882L203.507 63.742C203.129 63.5191 202.708 63.3806 202.272 63.3359C201.836 63.2913 201.395 63.3416 200.98 63.4833C199.209 64.13 198.434 66.4533 199.246 68.675C199.993 70.7259 201.838 71.9684 203.507 71.6312C204.674 78.9061 210.527 84.4442 217.575 84.4442C225.462 84.4442 231.873 77.5158 231.873 68.9568C231.876 66.8581 231.48 64.778 230.707 62.8274C224.9 64.5364 213.977 60.481 213.977 60.481Z" fill="#FFA297"/>
<path d="M204.555 66.9291C204.555 66.9291 198.923 83.6036 219.849 86.1533C219.849 86.1533 228.613 87.6129 230.794 82.666C232.898 77.9177 231.306 73.2432 231.306 73.2432C224.94 74.0029 218.485 73.4416 212.345 71.5943C212.345 71.5943 209.278 68.6289 209.172 65.2432L204.555 66.9291Z" fill="#641216"/>
<path d="M307.489 94.8L303.375 95.5298" stroke="#F55C2B" stroke-width="1.5" stroke-linecap="round" stroke-linejoin="round"/>
<path d="M304.952 103.364C304.007 105.327 302.344 106.852 300.307 107.622" stroke="#F55C2B" stroke-width="1.5" stroke-linecap="round" stroke-linejoin="round"/>
<path d="M317.83 100.92C317.83 100.92 320.759 99.5344 323.116 99.8763" stroke="#F55C2B" stroke-width="1.5" stroke-linecap="round" stroke-linejoin="round"/>
<path d="M319.915 105.401C321.557 104.57 323.375 104.148 325.214 104.172" stroke="#F55C2B" stroke-width="1.5" stroke-linecap="round" stroke-linejoin="round"/>
<path d="M235.079 62.6057L209.282 62.4256V57.4186L235.079 57.6033V62.6057Z" fill="#F73C4F"/>
<path d="M211.418 56.0975L211.478 69.1647C211.532 69.8891 211.772 70.5872 212.177 71.1904C212.581 71.7936 213.135 72.2814 213.784 72.6058L215.168 73.3079C215.822 73.6366 216.379 74.131 216.784 74.7419C217.188 75.3528 217.426 76.0591 217.474 76.7906L217.801 82.084C217.855 82.9585 218.236 83.7808 218.867 84.3874C219.499 84.9941 220.335 85.3408 221.21 85.3588L235.047 85.636L235.195 56.0975H211.418Z" stroke="white" stroke-width="1.5" stroke-miterlimit="10"/>
<path d="M209.282 58.7534H200.675V60.8689H209.282V58.7534Z" fill="white"/>
<path opacity="0.5" d="M224.568 56.0975H220.624V85.4281H224.568V56.0975Z" fill="white"/>
<path opacity="0.5" d="M228.096 56.0975H226.122V85.4281H228.096V56.0975Z" fill="white"/>
<path d="M48.9004 169.129L36.6084 220.654H77.3173L79.462 212.912L81.4961 220.654H121.425L115.42 169.129H48.9004Z" fill="#2A878E"/>
<path d="M116.412 177.66L115.42 169.129H48.8912L48.5176 170.681C53.7296 171.471 98.1237 178.09 116.412 177.66Z" fill="#20707B"/>
<path d="M79.462 212.912L77.428 200.21L67.2761 198.09" stroke="#89C4C0" stroke-width="1.5" stroke-linecap="round" stroke-linejoin="round"/>
<path d="M107.491 170.708L115.489 220.653" stroke="#89C4C0" stroke-width="1.5" stroke-linecap="round" stroke-linejoin="round"/>
<path d="M101.666 170.708C101.666 170.708 104.235 194.265 111.352 194.893" stroke="#89C4C0" stroke-width="1.5" stroke-linecap="round" stroke-linejoin="round"/>
<path d="M25.2712 125.95C25.2712 125.95 8.49132 157.724 26.5396 170.708C26.5396 170.708 33.5734 173.526 40.206 169.997C46.8386 166.468 54.4491 148.861 54.4491 148.861L42.0464 136.26L39.3297 139.447L40.206 125.955L25.2712 125.95Z" fill="#FFA297"/>
<path d="M18.2927 149.406C24.9945 143.091 39.8787 131.008 39.8787 131.008L40.2061 125.95H25.2713C25.2713 125.95 19.2106 137.429 18.2927 149.406Z" fill="#F55C2B"/>
<path d="M42.0465 136.26L39.3298 139.447C39.3298 139.447 47.3692 154.006 47.5583 161.868C50.1591 157.702 52.4619 153.357 54.4492 148.865L42.0465 136.26Z" fill="#F55C2B"/>
<path d="M26.1846 121.341C26.1846 121.341 21.7013 115.105 14.8612 118.435C9.5754 121.008 5.12906 118.699 4.36802 120.934C3.60698 123.17 9.33555 124.888 13.293 124.629C13.293 124.629 4.8431 132.071 3.31179 137.563C1.78047 143.055 7.92417 138.251 7.92417 138.251C7.92417 138.251 4.18814 142.265 5.26743 143.567C6.59119 145.189 9.23869 144.14 10.5717 142.773C10.5717 142.773 10.1842 145.447 12.6288 145.041C14.1463 144.791 17.2919 142.214 17.2919 142.214C17.2919 142.214 14.9119 145.276 16.7015 145.687C18.4911 146.099 21.3139 144.814 25.7418 140.052C30.1697 135.29 40.5521 125.849 26.1846 121.341Z" fill="#FFA297"/>
<path d="M13.293 124.625C13.293 124.625 18.528 127.267 21.5953 125.867" stroke="#F55C2B" stroke-width="1.5" stroke-linecap="round" stroke-linejoin="round"/>
<path d="M7.91016 138.232L14.6073 131.105" stroke="#F55C2B" stroke-width="1.5" stroke-linecap="round" stroke-linejoin="round"/>
<path d="M10.5715 142.773C10.6223 142.491 19.538 133.406 19.538 133.406" stroke="#F55C2B" stroke-width="1.5" stroke-linecap="round" stroke-linejoin="round"/>
<path d="M17.2917 142.214L23.3386 135.618" stroke="#F55C2B" stroke-width="1.5" stroke-linecap="round" stroke-linejoin="round"/>
<path d="M13.6572 130.311L25.654 136.828" stroke="#F55C2B" stroke-width="1.5" stroke-linecap="round" stroke-linejoin="round"/>
<path d="M122.403 91.5806C119.733 76.3102 100.97 78.9477 99.9133 75.9684C98.8571 72.9892 102.681 68.1808 99.9133 58.735C97.847 51.6449 89.8261 50.989 85.9563 51.1044C85.9194 50.2869 85.6611 49.34 85.6058 48.8781C85.5181 48.1899 85.0892 44.2175 83.6824 44.9473C82.4417 45.5894 83.4702 48.0605 83.4933 49.0628C83.1935 47.8896 80.8688 42.5039 79.1161 44.1344C78.5119 44.6979 78.618 45.6078 78.9593 46.5178C74.762 43.5478 68.9735 41.7094 63.8953 46.2129C58.4988 50.9982 59.6749 57.7604 60.8511 61.3216C61.0781 61.9959 61.1299 62.7169 61.0016 63.4168C60.8733 64.1166 60.5691 64.7722 60.1177 65.3217C57.9361 67.9591 56.354 72.4303 56.354 72.4303C43.6654 72.0654 36.0596 86.4166 40.7042 100.186C45.3489 113.955 61.852 115.549 61.852 115.549C73.2676 126.888 93.7789 119.318 93.7789 119.318C118.732 122.782 125.078 106.846 122.403 91.5806Z" fill="#641216"/>
<path d="M76.7224 90.0702C76.7224 90.0702 52.6181 91.5021 45.5704 99.1696C38.5227 106.837 27.1208 133.484 27.1208 133.484L38.9562 142.316C38.9562 142.316 41.9174 147.678 46.7096 151.207L46.2853 170.607H117.851L115.545 144.593C115.446 142.485 115.483 140.373 115.655 138.269C116.412 129.008 127.131 100.338 93.4007 94.3889L76.7224 90.0702Z" fill="#FFD774"/>
<path d="M46.6958 151.221C46.6958 151.221 70.3296 144.145 91.994 151.221" stroke="#E4911F" stroke-width="1.5" stroke-linecap="round" stroke-linejoin="round"/>
<path d="M77.0774 109.387C86.7219 109.387 94.9919 102.19 95.2917 94.7954C94.669 94.643 94.0371 94.509 93.3914 94.3982L76.7223 90.0702C71.0403 90.4725 65.3979 91.3141 59.8456 92.5875C59.7461 93.1689 59.6952 93.7575 59.6934 94.3474C59.6934 101.959 67.2438 109.387 77.0774 109.387Z" fill="white"/>
<path d="M92.5982 94.1904L86.4176 92.5922L87.2709 77.6221H72.7742L69.9422 90.7723C67.8205 91.0541 65.3713 91.4328 62.8299 91.9455C62.5299 92.8627 62.3743 93.8211 62.3687 94.7862C62.3687 101.253 69.1396 106.468 77.488 106.468C85.8364 106.468 92.6074 101.234 92.6074 94.7862C92.6166 94.5876 92.612 94.389 92.5982 94.1904Z" fill="#FFA297"/>
<path d="M70.3342 88.9663C81.8144 88.4213 87.2109 78.6336 87.2109 78.6336L87.2709 77.6221H72.7742L70.3342 88.9663Z" fill="#F55C2B"/>
<path d="M90.9099 68.6612C90.5075 68.5338 90.0829 68.4922 89.6634 68.5391C89.244 68.586 88.839 68.7205 88.4746 68.9337C88.4746 68.9337 87.2431 71.5342 87.2707 73.2248C87.2707 73.2248 86.0992 70.1162 84.6878 69.8344C83.5624 69.6081 80.6658 69.8113 77.6862 68.6935C76.8846 68.44 76.1281 68.0612 75.4446 67.5711C75.3807 67.5283 75.3191 67.482 75.2601 67.4326C71.9438 64.9568 70.3479 60.4579 70.3479 60.4579L66.2614 63.8297C65.565 64.4039 64.9972 65.1186 64.5951 65.9272C64.193 66.7357 63.9655 67.6201 63.9275 68.5226C63.9275 68.9845 63.9275 69.4464 63.9275 70.0423C63.9275 78.2964 69.6699 84.9893 76.7545 84.9893C81.759 84.9893 86.0946 81.6498 88.2071 76.7768C89.992 77.3819 92.0492 76.0562 92.8194 73.816C93.5897 71.5758 92.7087 69.2848 90.9099 68.6612Z" fill="#FFA297"/>
<path d="M84.688 69.8344C83.5626 69.6081 80.666 69.8113 77.6864 68.6935C76.8848 68.44 76.1283 68.0612 75.4448 67.5711C75.3808 67.5283 75.3192 67.482 75.2603 67.4326C71.944 64.9568 70.3481 60.4579 70.3481 60.4579L67.9404 62.4394C69.421 64.7489 72.7742 69.2848 76.3488 69.3679C79.5775 69.4603 82.9906 69.719 84.854 69.876C84.8 69.8573 84.7444 69.8434 84.688 69.8344Z" fill="#F55C2B"/>
<path d="M93.0501 120.948L81.4961 136.842L107.007 156.302" stroke="#063D51" stroke-width="1.5" stroke-linecap="round" stroke-linejoin="round"/>
<path d="M25.3682 121.221C25.3704 120.604 25.1622 120.005 24.778 119.523C24.3939 119.04 23.8567 118.704 23.2557 118.569C22.6546 118.435 22.0255 118.51 21.4728 118.782C20.92 119.054 20.4767 119.507 20.2161 120.066C19.934 119.983 19.6428 119.935 19.349 119.923C19.349 119.272 19.091 118.648 18.6317 118.188C18.1723 117.728 17.5494 117.47 16.8998 117.47C16.2503 117.47 15.6273 117.728 15.168 118.188C14.7087 118.648 14.4507 119.272 14.4507 119.923C14.4484 119.955 14.4484 119.987 14.4507 120.02C14.2222 119.957 13.9865 119.924 13.7496 119.923C13.0901 119.951 12.4669 120.233 12.0101 120.71C11.5533 121.187 11.2983 121.823 11.2983 122.484C11.2983 123.145 11.5533 123.781 12.0101 124.258C12.4669 124.735 13.0901 125.017 13.7496 125.045C13.8826 125.045 14.0154 125.032 14.1462 125.008C13.9419 125.361 13.813 125.752 13.768 126.158C13.7229 126.563 13.7626 126.973 13.8845 127.362C14.0065 127.751 14.2079 128.111 14.4762 128.418C14.7444 128.724 15.0734 128.972 15.4424 129.145C15.8114 129.317 16.2122 129.411 16.6193 129.42C17.0264 129.429 17.4309 129.353 17.8071 129.196C18.1832 129.04 18.5228 128.807 18.8041 128.512C19.0855 128.218 19.3025 127.867 19.4413 127.484H19.5704C19.914 128.111 20.4443 128.615 21.0875 128.927C21.7306 129.238 22.4546 129.341 23.1588 129.221C23.8631 129.101 24.5125 128.764 25.0167 128.258C25.521 127.751 25.855 127.1 25.9724 126.394C26.5942 126.243 27.1394 125.869 27.505 125.343C27.8707 124.818 28.0315 124.176 27.9572 123.539C27.8828 122.903 27.5785 122.316 27.1015 121.889C26.6246 121.461 26.008 121.224 25.3682 121.221Z" fill="white"/>
<path d="M20.4191 113.738C20.7345 113.737 21.0426 113.642 21.3045 113.466C21.5663 113.29 21.7701 113.04 21.8902 112.748C22.0103 112.456 22.0412 112.135 21.9791 111.825C21.917 111.515 21.7647 111.231 21.5413 111.008C21.3179 110.785 21.0336 110.633 20.7241 110.572C20.4147 110.511 20.0941 110.543 19.8027 110.664C19.5114 110.785 19.2624 110.99 19.0872 111.252C18.9121 111.515 18.8186 111.824 18.8186 112.14C18.8186 112.35 18.86 112.558 18.9405 112.752C19.021 112.947 19.139 113.123 19.2877 113.271C19.4363 113.42 19.6128 113.537 19.807 113.618C20.0011 113.698 20.2091 113.738 20.4191 113.738Z" fill="white"/>
<path d="M14.2477 114.694C14.4366 114.694 14.6212 114.638 14.7782 114.533C14.9352 114.428 15.0576 114.278 15.1298 114.104C15.2021 113.929 15.221 113.737 15.1841 113.551C15.1473 113.366 15.0564 113.195 14.9229 113.062C14.7893 112.928 14.6192 112.837 14.434 112.8C14.2488 112.763 14.0568 112.782 13.8824 112.855C13.7079 112.927 13.5588 113.049 13.4539 113.207C13.349 113.364 13.293 113.549 13.293 113.738C13.293 113.991 13.3936 114.235 13.5726 114.414C13.7517 114.593 13.9945 114.694 14.2477 114.694Z" fill="white"/>
<path d="M10.1473 131.105C10.2011 130.874 10.2087 130.634 10.1696 130.399C10.1304 130.165 10.0452 129.94 9.91904 129.739C9.79285 129.538 9.62808 129.363 9.43426 129.226C9.24044 129.089 9.02139 128.991 8.78974 128.939C8.5581 128.887 8.31844 128.881 8.08459 128.922C7.85074 128.963 7.62732 129.05 7.42722 129.178C7.22712 129.306 7.05429 129.473 6.91871 129.668C6.78312 129.863 6.68746 130.083 6.63724 130.315H6.59573C6.24224 130.313 5.89344 130.396 5.57947 130.559C5.2655 130.722 4.99581 130.959 4.79371 131.249C4.59161 131.54 4.46318 131.875 4.41951 132.226C4.37584 132.577 4.41825 132.934 4.54308 133.265C4.6679 133.597 4.87139 133.892 5.13595 134.127C5.40051 134.362 5.71818 134.529 6.06152 134.613C6.40485 134.697 6.76352 134.697 7.10652 134.611C7.44953 134.525 7.76655 134.357 8.03018 134.121C8.16956 134.51 8.4128 134.853 8.73335 135.112C9.05391 135.372 9.43949 135.538 9.84802 135.593C10.2565 135.648 10.6723 135.59 11.05 135.425C11.4277 135.259 11.7529 134.993 11.9899 134.656C12.227 134.318 12.3668 133.921 12.3943 133.509C12.4218 133.098 12.3358 132.686 12.1456 132.32C11.9555 131.953 11.6686 131.646 11.3162 131.432C10.9638 131.218 10.5595 131.105 10.1473 131.105Z" fill="white"/>
<path d="M11.8215 128.454C12.5118 128.454 13.0714 127.894 13.0714 127.202C13.0714 126.511 12.5118 125.95 11.8215 125.95C11.1312 125.95 10.5715 126.511 10.5715 127.202C10.5715 127.894 11.1312 128.454 11.8215 128.454Z" fill="white"/>
<path d="M27.845 116.597C27.6977 116.599 27.5544 116.645 27.4331 116.728C27.3118 116.812 27.2182 116.93 27.164 117.067C27.1098 117.204 27.0975 117.354 27.1287 117.498C27.1599 117.642 27.2332 117.774 27.3393 117.876C27.4453 117.978 27.5793 118.047 27.7243 118.073C27.8693 118.099 28.0187 118.081 28.1534 118.021C28.2882 117.962 28.4023 117.864 28.4813 117.739C28.5602 117.615 28.6004 117.47 28.5968 117.322C28.5919 117.127 28.5103 116.941 28.3696 116.805C28.2288 116.669 28.0403 116.594 27.845 116.597Z" fill="white"/>
<path d="M15.7744 135.336C15.5436 135.336 15.3179 135.405 15.126 135.533C14.9341 135.662 14.7846 135.844 14.6963 136.058C14.6079 136.271 14.5848 136.506 14.6298 136.733C14.6749 136.959 14.786 137.168 14.9492 137.331C15.1124 137.495 15.3203 137.606 15.5467 137.651C15.7731 137.696 16.0077 137.673 16.2209 137.584C16.4341 137.496 16.6164 137.346 16.7446 137.154C16.8728 136.962 16.9413 136.736 16.9413 136.505C16.9413 136.195 16.8183 135.898 16.5995 135.678C16.3807 135.459 16.0838 135.336 15.7744 135.336Z" fill="white"/>
<path d="M1.30992 134.205C1.05084 134.205 0.797581 134.282 0.582166 134.426C0.366752 134.57 0.198856 134.775 0.099712 135.014C0.000567571 135.254 -0.0253731 135.518 0.0251703 135.772C0.0757137 136.027 0.200471 136.261 0.383666 136.444C0.566861 136.627 0.800266 136.752 1.05436 136.803C1.30846 136.854 1.57184 136.828 1.8112 136.728C2.05056 136.629 2.25514 136.461 2.39907 136.245C2.54301 136.029 2.61983 135.776 2.61983 135.516C2.61983 135.168 2.48182 134.835 2.23617 134.589C1.99051 134.343 1.65733 134.205 1.30992 134.205Z" fill="white"/>
<path d="M7.51829 137.678C7.33493 137.673 7.15437 137.724 6.99966 137.822C6.84496 137.921 6.72314 138.064 6.64977 138.232C6.5764 138.4 6.55481 138.587 6.58776 138.767C6.62071 138.948 6.70669 139.115 6.83474 139.246C6.96278 139.378 7.12707 139.468 7.30661 139.506C7.48616 139.543 7.6728 139.526 7.84271 139.457C8.01262 139.388 8.15808 139.27 8.2605 139.117C8.36291 138.965 8.41765 138.786 8.41771 138.602C8.41778 138.361 8.32377 138.129 8.15572 137.957C7.98768 137.784 7.75893 137.684 7.51829 137.678Z" fill="white"/>
<path d="M81.1501 142.329L51.9122 125.239C51.9122 125.239 47.2583 116.592 43.1487 115.428C39.0391 114.264 33.0015 112.463 31.6178 111.193C31.6178 111.193 28.8503 110.454 28.9749 113.964C29.0994 117.475 34.7911 118.094 35.2108 119.895C35.2108 119.895 16.7106 120.532 16.4984 122.542C16.2862 124.551 17.5131 126.015 23.6891 126.745C23.6891 126.745 14.9256 126.352 14.3813 128.366C13.837 130.38 17.5546 131.964 20.8386 131.858C20.8386 131.858 17.5592 131.858 17.6653 133.66C17.7714 135.461 24.3256 135.881 24.3256 135.881C24.3256 135.881 25.0682 138.422 30.1418 138.74C35.2154 139.059 43.5684 139.697 44.8368 140.329C44.8368 140.329 64.504 167.327 77.5063 170.505C77.5063 170.505 88.5023 171.669 94.0002 168.598C99.4982 165.526 107.007 156.302 107.007 156.302L84.3696 138.939L81.1501 142.329Z" fill="#FFA297"/>
<path d="M98.8617 164.898C101.761 162.214 104.482 159.342 107.007 156.302L84.3696 138.939C84.3696 138.939 100.444 155.032 98.8617 164.898Z" fill="#F55C2B"/>
<path d="M23.6846 126.731L31.3503 127.239" stroke="#F55C2B" stroke-width="1.5" stroke-linecap="round" stroke-linejoin="round"/>
<path d="M20.3176 131.849H30.9261" stroke="#F55C2B" stroke-width="1.5" stroke-linecap="round" stroke-linejoin="round"/>
<path d="M24.3164 135.867L31.3503 136.255" stroke="#F55C2B" stroke-width="1.5" stroke-linecap="round" stroke-linejoin="round"/>
<path d="M35.2063 119.881C35.2063 119.881 38.1167 120.144 38.0106 118.93" stroke="#F55C2B" stroke-width="1.5" stroke-linecap="round" stroke-linejoin="round"/>
<path d="M44.8276 140.316C44.8276 140.316 48.1578 140.473 48.9004 139.734" stroke="#F55C2B" stroke-width="1.5" stroke-linecap="round" stroke-linejoin="round"/>
<path d="M35.5152 121.502C35.4222 121.504 35.3295 121.515 35.2385 121.535C35.2757 121.384 35.2959 121.229 35.2985 121.073C35.2985 120.508 35.0744 119.966 34.6757 119.567C34.2769 119.168 33.7361 118.943 33.1722 118.943C32.6082 118.943 32.0674 119.168 31.6686 119.567C31.2699 119.966 31.0458 120.508 31.0458 121.073C31.0458 121.128 31.0458 121.179 31.0458 121.23C30.6213 121.376 30.2408 121.627 29.9404 121.961C29.6401 122.295 29.4297 122.7 29.3293 123.138C29.2289 123.576 29.2418 124.033 29.3666 124.464C29.4915 124.896 29.7243 125.289 30.0429 125.605C30.3616 125.922 30.7556 126.152 31.1877 126.273C31.6198 126.395 32.0757 126.404 32.5122 126.299C32.9488 126.195 33.3516 125.981 33.6826 125.678C34.0136 125.374 34.2617 124.991 34.4037 124.565C34.7093 124.827 35.0987 124.972 35.5014 124.971C35.7351 124.983 35.9689 124.948 36.1884 124.867C36.408 124.785 36.6087 124.66 36.7784 124.499C36.9481 124.337 37.0833 124.143 37.1756 123.928C37.268 123.712 37.3156 123.48 37.3156 123.246C37.3156 123.012 37.268 122.78 37.1756 122.564C37.0833 122.349 36.9481 122.155 36.7784 121.993C36.6087 121.832 36.408 121.707 36.1884 121.626C35.9689 121.544 35.7351 121.509 35.5014 121.521L35.5152 121.502Z" fill="white"/>
<path d="M10.1934 106.897C10.1934 108.712 8.92496 110.186 7.11229 110.186C5.29963 110.186 4.02661 108.712 4.02661 106.897C4.02661 105.082 7.11229 101.461 7.11229 101.461C7.11229 101.461 10.1934 105.082 10.1934 106.897Z" fill="#69A4C2"/>
<path d="M19.6165 112.121C19.641 112.435 19.6003 112.751 19.497 113.049C19.3937 113.347 19.23 113.62 19.0163 113.852C18.8025 114.083 18.5433 114.268 18.2549 114.394C17.9664 114.52 17.655 114.585 17.3403 114.585C17.0255 114.585 16.7141 114.52 16.4256 114.394C16.1372 114.268 15.878 114.083 15.6642 113.852C15.4505 113.62 15.2868 113.347 15.1835 113.049C15.0802 112.751 15.0396 112.435 15.064 112.121C15.064 110.777 17.338 108.107 17.338 108.107C17.338 108.107 19.6165 110.777 19.6165 112.121Z" fill="#69A4C2"/>
<path d="M17.7715 97.9225C17.796 98.2367 17.7553 98.5527 17.652 98.8505C17.5487 99.1483 17.3851 99.4215 17.1713 99.6529C16.9576 99.8843 16.6983 100.069 16.4099 100.195C16.1215 100.322 15.8101 100.387 15.4953 100.387C15.1805 100.387 14.8691 100.322 14.5807 100.195C14.2922 100.069 14.033 99.8843 13.8193 99.6529C13.6055 99.4215 13.4418 99.1483 13.3385 98.8505C13.2353 98.5527 13.1946 98.2367 13.2191 97.9225C13.2191 96.583 15.4976 93.9086 15.4976 93.9086C15.4976 93.9086 17.7715 96.5691 17.7715 97.9225Z" fill="#69A4C2"/>
<path d="M70.3342 60.4486C70.3342 60.4486 69.3564 53.9174 66.3953 53.0582" stroke="#440A10" stroke-width="1.5" stroke-linecap="round" stroke-linejoin="round"/>
<path d="M48.0195 119.405L48.9005 113.738" stroke="#E4911F" stroke-width="1.5" stroke-linecap="round" stroke-linejoin="round"/>
<path d="M197.387 220.653H114.853L117.666 197.979H195.509L197.387 220.653Z" fill="#376F92"/>
<path d="M195.51 197.979H117.666L116.075 210.797C119.11 208.025 195.51 205.18 195.51 205.18L196.068 204.718L195.51 197.979Z" fill="#063D51"/>
<path d="M158.657 205.18H152.402V220.349H158.657V205.18Z" stroke="#063D51" stroke-width="1.5" stroke-linecap="round" stroke-linejoin="round"/>
<path d="M213.978 132.103C212.432 130.102 211.011 128.009 209.72 125.835C204.232 116.666 192.489 109.936 182.291 108.093C171.036 106.056 159.778 103.216 159.778 103.216H153.837C153.837 103.216 142.583 106.056 131.324 108.093C121.126 109.941 109.383 116.666 103.899 125.835C102.604 128.009 101.177 130.103 99.6275 132.103C94.3279 138.916 83.9085 154.593 91.4497 164.302C91.4497 164.302 101.136 174.163 115.835 167.586V205.161H197.77V167.604C212.465 174.182 222.155 164.32 222.155 164.32C229.697 154.611 219.277 138.934 213.978 132.103Z" fill="#F73C4F"/>
<path d="M98.2574 165.96C107.97 165.96 115.844 158.075 115.844 148.348C115.844 138.621 107.97 130.736 98.2574 130.736C88.5444 130.736 80.6704 138.621 80.6704 148.348C80.6704 158.075 88.5444 165.96 98.2574 165.96Z" fill="#F73C4F"/>
<path d="M178.785 107.452C168.813 105.516 159.777 103.234 159.777 103.234H153.837C153.837 103.234 145.926 105.23 136.739 107.077C138.06 111.612 140.805 115.6 144.567 118.45C148.328 121.301 152.906 122.863 157.623 122.905C162.34 122.947 166.945 121.466 170.756 118.683C174.568 115.9 177.383 111.962 178.785 107.452Z" fill="white"/>
<path d="M173.933 106.472C166.06 104.819 159.778 103.239 159.778 103.239H153.837C153.837 103.239 148.602 104.56 141.702 106.047C142.7 109.527 144.791 112.593 147.665 114.791C150.539 116.988 154.043 118.201 157.658 118.249C161.273 118.297 164.808 117.178 167.739 115.058C170.671 112.938 172.842 109.929 173.933 106.477V106.472Z" fill="#FFA297"/>
<path d="M167.831 109.036H147.928L148.865 83.4142H166.894L167.831 109.036Z" fill="#FFA297"/>
<path d="M148.865 83.4142L148.671 88.7399C148.671 88.7399 153.994 96.2273 167.36 96.2273L166.899 83.4142H148.865Z" fill="#F55C2B"/>
<path d="M143.048 79.7145C145.137 79.7145 146.83 77.5906 146.83 74.9708C146.83 72.3509 145.137 70.2271 143.048 70.2271C140.959 70.2271 139.266 72.3509 139.266 74.9708C139.266 77.5906 140.959 79.7145 143.048 79.7145Z" fill="#FFA297"/>
<path d="M170.958 79.7145C173.047 79.7145 174.74 77.5906 174.74 74.9708C174.74 72.3509 173.047 70.2271 170.958 70.2271C168.869 70.2271 167.176 72.3509 167.176 74.9708C167.176 77.5906 168.869 79.7145 170.958 79.7145Z" fill="#FFA297"/>
<path d="M174.219 58.153C173.902 56.9837 173.403 55.8721 172.738 54.8597C172.157 54.056 171.17 53.474 170.635 52.7811C170.939 52.4844 171.149 52.1041 171.238 51.6881C171.326 51.2722 171.29 50.8392 171.133 50.4439C170.377 48.1021 168.163 48.0421 165.995 47.9312C165.156 47.891 164.314 47.9251 163.481 48.0328C163.384 47.4554 162.942 47.0582 161.913 47.049C159.93 47.049 158.371 47.8804 156.899 48.9982C157.324 47.3815 156.899 45.5617 154.925 47.0582C153.916 47.8745 153.08 48.8847 152.466 50.0293C151.852 51.1739 151.473 52.4299 151.351 53.7234C150.123 53.1571 148.774 52.9093 147.425 53.0029C145.82 53.0721 144.114 54.5179 143.108 55.7419C141.263 57.9683 141.213 60.8828 141.079 63.6311C140.931 66.6242 141.222 69.4557 142.463 72.1947C143.141 73.6728 144.082 75.1278 144.829 76.4858L169.034 77.1601C170.944 76.0793 171.364 75.4003 172.226 74.0192C173.149 72.5227 173.149 70.3518 173.209 68.5919C173.259 67.5065 173.047 67.0954 173.564 66.227C174.929 63.9545 174.984 60.6288 174.219 58.153Z" fill="#641216"/>
<path d="M159.464 67.6404C152.149 68.9106 150.387 62.9429 150.387 62.9429C144.612 66.5457 143.676 70.2224 143.071 72.9014C143.071 73.234 143.048 73.5665 143.048 73.9037C143.048 84.2364 149.506 92.6106 157.434 92.6106C165.363 92.6106 171.816 84.2364 171.816 73.9037C171.818 72.4128 171.679 70.925 171.401 69.4603C171.264 68.7311 170.888 68.0687 170.332 67.5782C169.776 67.0878 169.073 66.7975 168.333 66.7535C166.258 66.6381 163.324 66.9752 159.464 67.6404Z" fill="#FFA297"/>
<path d="M171.58 70.4672C171.534 70.13 171.479 69.7928 171.414 69.4603C171.278 68.7311 170.902 68.0687 170.346 67.5782C169.79 67.0878 169.087 66.7975 168.347 66.7535C166.272 66.6381 163.338 66.9706 159.478 67.6404C152.162 68.9106 150.4 62.9429 150.4 62.9429L150.327 62.9891C150.59 64.2738 151.123 65.4878 151.89 66.5503C153.304 68.5105 155.41 69.8581 157.78 70.3194C160.843 70.8875 163.929 69.9776 167.005 69.9868C168.543 69.982 170.077 70.143 171.58 70.4672Z" fill="#F55C2B"/>
<path d="M137.038 79.7236C138.468 78.2779 136.923 76.8368 136.923 76.8368C134.898 75.4511 135.429 69.5572 131.444 68.384C129.004 67.6681 125.447 70.7674 123.017 73.2848L122.02 72.8229C121.343 72.3898 120.557 72.1596 119.754 72.1596C118.95 72.1596 118.164 72.3898 117.487 72.8229C113.188 70.3148 110.374 72.5088 110.374 72.5088H108.419C103.419 72.9707 104.982 77.3633 102.478 80.8229C99.9733 84.2826 99.7427 86.3657 98.4927 95.7746C97.2428 105.183 76.1365 131.941 81.2978 147.6C86.459 163.258 99.4291 161.203 99.4291 161.203C117.33 157.757 116.629 137.184 117.565 127.068C118.501 116.953 121.555 100.768 121.555 100.768C127.883 101.692 132.417 94.5044 133.201 90.6706C133.985 86.8369 136.642 84.3288 137.735 83.2341C138.685 82.2687 138.805 80.7306 137.038 79.7236ZM130.53 82.592C129.981 84.3149 126.776 84.8646 126.776 84.8646L127.666 78.6705C127.643 78.7675 127.638 78.6936 127.666 78.0562L129.382 76.2086L130.706 78.2317C131.009 79.0001 131.516 79.6709 132.172 80.1717C131.418 80.8166 130.851 81.6525 130.53 82.592Z" fill="#FFA297"/>
<path d="M110.374 72.5181C110.374 72.5181 114.558 73.5758 114.438 76.8599C114.318 80.144 114.719 90.4721 109.452 89.1926C105.351 88.1949 106.172 84.024 106.408 81.4419" stroke="#F55C2B" stroke-width="1.5" stroke-linecap="round" stroke-linejoin="round"/>
<path d="M113.552 85.9963C113.552 85.9963 114.618 88.3473 117.957 88.1718C121.296 87.9963 121.887 83.9408 121.767 81.5343C121.647 79.1279 121.652 74.532 117.487 72.8091" stroke="#F55C2B" stroke-width="1.5" stroke-linecap="round" stroke-linejoin="round"/>
<path d="M121.153 85.7099C121.153 85.7099 121.591 87.4051 123.819 87.5252C126.047 87.6453 126.79 84.8646 126.79 84.8646" stroke="#F55C2B" stroke-width="1.5" stroke-linecap="round" stroke-linejoin="round"/>
<path d="M123.017 73.2848C123.017 73.2848 127.763 75.1001 127.698 78.0608" stroke="#F55C2B" stroke-width="1.5" stroke-linecap="round" stroke-linejoin="round"/>
<path d="M121.555 100.754C121.555 100.754 118.838 99.7378 118.132 98.7955C118.132 98.7955 112.27 100.44 109.982 99.3821" stroke="#F55C2B" stroke-width="1.5" stroke-linecap="round" stroke-linejoin="round"/>
<path d="M119.461 87.7607C119.461 87.7607 120.66 90.7538 119.461 93.5114" stroke="#F55C2B" stroke-width="1.5" stroke-linecap="round" stroke-linejoin="round"/>
<path d="M132.205 80.1902C132.205 80.1902 134.543 78.5597 137.038 79.7283" stroke="#F55C2B" stroke-width="1.5" stroke-linecap="round" stroke-linejoin="round"/>
<path d="M129.414 76.2132C129.096 75.3484 128.872 74.4518 128.745 73.5388" stroke="#F55C2B" stroke-width="1.5" stroke-linecap="round" stroke-linejoin="round"/>
<path d="M115.844 167.605C117.662 165.049 119.196 162.303 120.42 159.415" stroke="#BA2F42" stroke-width="1.5" stroke-linecap="round" stroke-linejoin="round"/>
<path d="M91.9939 164.805C91.9939 164.805 112.874 169.327 118.284 146.329" stroke="#BA2F42" stroke-width="1.5" stroke-linecap="round" stroke-linejoin="round"/>
<path d="M215.384 165.96C225.097 165.96 232.971 158.075 232.971 148.348C232.971 138.621 225.097 130.736 215.384 130.736C205.671 130.736 197.797 138.621 197.797 148.348C197.797 158.075 205.671 165.96 215.384 165.96Z" fill="#F73C4F"/>
<path d="M175.907 83.2203C177.005 84.315 179.661 86.8185 180.441 90.6569C181.22 94.4953 185.759 101.692 192.092 100.754C192.092 100.754 195.141 116.957 196.077 127.054C197.013 137.152 196.312 157.743 214.213 161.189C214.213 161.189 227.187 163.221 232.349 147.567C237.51 131.914 216.399 105.137 215.149 95.7424C213.899 86.3474 213.664 84.2365 211.164 80.7907C208.664 77.345 210.241 72.9662 205.223 72.4766H203.268C203.268 72.4766 200.454 70.2825 196.155 72.7906C195.478 72.3575 194.692 72.1274 193.888 72.1274C193.085 72.1274 192.298 72.3575 191.621 72.7906L190.625 73.2525C188.213 70.7352 184.629 67.6359 182.203 68.3518C178.213 69.525 178.744 75.3957 176.719 76.8045C176.719 76.8045 175.174 78.2457 176.608 79.6914C174.837 80.7307 174.961 82.2688 175.907 83.2203ZM181.442 80.1903C182.098 79.6895 182.605 79.0187 182.908 78.2503L184.232 76.2272L185.953 78.0748C185.999 78.7122 185.99 78.7861 185.953 78.6891L186.838 84.8832C186.838 84.8832 183.633 84.3335 183.088 82.6106C182.762 81.6717 182.192 80.8365 181.437 80.1903H181.442Z" fill="#FFA297"/>
<path d="M203.268 72.5181C203.268 72.5181 199.084 73.5758 199.204 76.8599C199.324 80.144 198.927 90.4721 204.19 89.1926C208.291 88.1949 207.47 84.024 207.234 81.4419" stroke="#F55C2B" stroke-width="1.5" stroke-linecap="round" stroke-linejoin="round"/>
<path d="M200.09 85.9963C200.09 85.9963 199.029 88.3473 195.685 88.1718C192.341 87.9963 191.76 83.9408 191.875 81.5343C191.99 79.1279 191.99 74.532 196.155 72.8091" stroke="#F55C2B" stroke-width="1.5" stroke-linecap="round" stroke-linejoin="round"/>
<path d="M192.493 85.7099C192.493 85.7099 192.032 87.4051 189.822 87.5252C187.613 87.6453 186.852 84.8646 186.852 84.8646" stroke="#F55C2B" stroke-width="1.5" stroke-linecap="round" stroke-linejoin="round"/>
<path d="M190.625 73.2848C190.625 73.2848 185.879 75.1001 185.948 78.0608" stroke="#F55C2B" stroke-width="1.5" stroke-linecap="round" stroke-linejoin="round"/>
<path d="M192.092 100.754C192.092 100.754 194.808 99.7378 195.51 98.7955C195.51 98.7955 201.372 100.44 203.66 99.3821" stroke="#F55C2B" stroke-width="1.5" stroke-linecap="round" stroke-linejoin="round"/>
<path d="M194.181 87.7607C194.181 87.7607 192.982 90.7538 194.181 93.5114" stroke="#F55C2B" stroke-width="1.5" stroke-linecap="round" stroke-linejoin="round"/>
<path d="M181.437 80.1902C181.437 80.1902 179.099 78.5597 176.608 79.7283" stroke="#F55C2B" stroke-width="1.5" stroke-linecap="round" stroke-linejoin="round"/>
<path d="M184.228 76.2132C184.548 75.3491 184.773 74.4522 184.897 73.5388" stroke="#F55C2B" stroke-width="1.5" stroke-linecap="round" stroke-linejoin="round"/>
<path d="M197.797 167.605C195.98 165.049 194.445 162.303 193.222 159.415" stroke="#BA2F42" stroke-width="1.5" stroke-linecap="round" stroke-linejoin="round"/>
<path d="M221.648 164.805C221.648 164.805 200.768 169.327 195.357 146.329" stroke="#BA2F42" stroke-width="1.5" stroke-linecap="round" stroke-linejoin="round"/>
<path d="M147.928 104.652L147.656 106.846" stroke="#F55C2B" stroke-width="1.5" stroke-linecap="round" stroke-linejoin="round"/>
<path d="M167.618 103.234L167.766 106.846" stroke="#F55C2B" stroke-width="1.5" stroke-linecap="round" stroke-linejoin="round"/>
<path d="M197.765 169.429H115.844V187.854H197.765V169.429Z" fill="white"/>
<path d="M143.929 78.6567L137.038 79.7237L146.83 86.546" stroke="#2A878E" stroke-width="1.5" stroke-linecap="round" stroke-linejoin="round"/>
<path d="M170.077 78.6567L176.968 79.7237L167.176 86.546" stroke="#2A878E" stroke-width="1.5" stroke-linecap="round" stroke-linejoin="round"/>
<path d="M143.048 78.2687C145.156 85.9547 148.528 92.6107 157.434 92.6107C166.502 92.6107 169.708 85.9547 171.816 78.2687L157.434 77.1602L143.048 78.2687Z" fill="#89C4C0"/>
<path d="M168.965 78.0608C166.973 85.3311 164.025 91.9178 156.051 92.5644C156.512 92.6014 156.973 92.6245 157.434 92.6245C166.502 92.6245 169.708 85.9685 171.816 78.2825L168.965 78.0608Z" fill="#2A878E"/>
<path d="M147.928 82.592H168.375" stroke="#2A878E" stroke-width="1.5" stroke-linecap="round" stroke-linejoin="round"/>
<path d="M150.313 87.2111H166.996" stroke="#2A878E" stroke-width="1.5" stroke-linecap="round" stroke-linejoin="round"/>
</g>
<defs>
<clipPath id="clip0">
<rect width="333" height="221" fill="white"/>
</clipPath>
</defs>
</svg>
