<svg width="321" height="321" viewBox="0 0 321 321" fill="none" xmlns="http://www.w3.org/2000/svg">
<path d="M228.017 143.402C228.017 143.402 243.608 179.249 231.43 207.345C221.196 224.298 159.808 184.091 169.066 151.152C174.424 138.073 185.631 140.011 192.938 148.729C200.246 157.448 204.631 172.95 210.48 176.826C216.328 180.702 204.637 148.244 207.068 142.431C209.499 136.619 222.659 134.684 228.018 143.4" fill="white"/>
<path d="M228.017 143.402C228.017 143.402 243.608 179.249 231.43 207.345C221.196 224.298 159.808 184.091 169.066 151.152C174.424 138.073 185.631 140.011 192.938 148.729C200.246 157.448 204.631 172.95 210.48 176.826C216.328 180.702 204.637 148.244 207.068 142.431C209.499 136.619 222.658 134.682 228.017 143.402Z" stroke="#0A053A" stroke-width="0.75" stroke-miterlimit="10"/>
<path d="M127.162 118.391C127.162 118.391 109.03 125.254 100.611 147.897C92.1918 170.541 90.2483 251.114 97.3724 272.382C104.496 293.65 178.33 292.969 201.638 277.872C221.073 262.089 200.344 227.492 197.108 199.358C193.872 171.224 193.872 147.212 182.21 138.296C170.548 129.379 127.162 118.391 127.162 118.391Z" fill="white"/>
<path d="M187.351 144.325C186.054 141.995 184.306 139.945 182.21 138.296C170.553 129.371 127.162 118.391 127.162 118.391C127.162 118.391 109.03 125.254 100.61 147.897C92.1895 170.541 90.2484 251.114 97.3724 272.387C104.496 293.66 178.33 292.973 201.639 277.876C221.073 262.093 200.344 227.497 197.108 199.362C196.256 191.943 195.623 184.809 194.945 178.163" stroke="#0A053A" stroke-width="0.75" stroke-miterlimit="10"/>
<path d="M168.73 153.106C168.73 153.106 176.893 209.878 173.052 213.76C169.21 217.642 155.763 219.097 151.442 214.245C150.962 202.115 149.041 153.106 149.041 150.195C149.041 147.285 168.73 153.106 168.73 153.106Z" fill="#FF4591"/>
<path d="M182.426 147.616C182.426 147.616 167.74 168.012 141.96 156.674C116.18 145.337 120.748 117.185 124.664 113.624C128.253 122.041 135.432 152.472 182.426 147.616Z" fill="#C62E73"/>
<path d="M185.501 137.683C185.501 137.683 189.853 149.285 172.927 155.084C156.001 160.884 130.852 148.317 125.535 133.815C120.217 119.314 122.632 104.812 133.272 101.911C143.912 99.0099 182.6 127.536 185.501 137.683Z" fill="#FF4591"/>
<path d="M177.656 135.843C177.656 135.843 146.476 150.282 132.349 113.702C144.042 105.996 177.656 135.843 177.656 135.843Z" fill="#DADFE5"/>
<path d="M190.796 71.9864C190.796 71.9864 197.115 110.711 189.072 131.21C182.752 140.322 154.59 132.348 140.796 117.543C127.002 102.737 122.98 77.68 129.301 62.306C135.623 46.9319 164.933 46.3598 174.128 49.7769C183.323 53.194 190.221 65.7219 190.796 71.9864Z" fill="white"/>
<path d="M137.118 113.04C126.329 98.041 123.583 76.2117 129.301 62.3048C135.621 46.9295 164.933 46.361 174.132 49.7769C183.331 53.1929 190.221 65.7219 190.796 71.9864C190.796 71.9864 197.115 110.711 189.072 131.21C184.422 137.913 167.949 135.37 154.075 127.66" stroke="#0A053A" stroke-width="0.75" stroke-miterlimit="10"/>
<path d="M158.58 105.28C158.58 105.988 158.789 106.679 159.182 107.267C159.575 107.855 160.134 108.313 160.788 108.584C161.441 108.855 162.16 108.925 162.854 108.787C163.548 108.649 164.186 108.309 164.686 107.809C165.186 107.309 165.527 106.672 165.665 105.978C165.803 105.284 165.732 104.566 165.461 103.912C165.19 103.259 164.732 102.7 164.144 102.307C163.556 101.915 162.864 101.705 162.157 101.705C161.208 101.705 160.298 102.082 159.627 102.752C158.956 103.423 158.58 104.332 158.58 105.28" fill="#DADFE5"/>
<path d="M184.81 129.118C184.154 129.601 183.394 129.925 182.591 130.065C181.788 130.206 180.963 130.158 180.182 129.926C179.176 130.874 183.865 133.328 184.81 129.118Z" fill="#0E2549"/>
<path d="M192.697 57.8459C192.697 57.8459 196.692 59.3953 194.916 65.1581C193.139 70.9208 188.924 71.5835 183.379 69.8064C177.833 68.0293 175.39 74.9029 169.181 74.2378C162.971 73.5728 157.644 70.9149 153.651 73.3511C149.658 75.7873 151.212 82.2175 142.112 83.3259C137.452 85.5405 137.897 90.4152 138.342 94.4033C139.043 98.8322 140.081 103.201 141.447 107.472C140.937 107.932 140.285 108.204 139.6 108.244C138.914 108.284 138.235 108.09 137.675 107.693C136.565 107.029 134.791 98.6094 131.907 97.0588C129.023 95.5082 125.468 95.5094 124.141 94.6226C122.814 93.7358 121.48 83.3236 119.705 82.2151C118.277 81.043 117.15 79.5474 116.416 77.8524C115.683 76.1573 115.364 74.3118 115.488 72.4691C115.934 68.0377 118.151 68.9232 118.817 63.611C119.482 58.2988 119.704 54.306 122.367 51.8674C125.031 49.4288 126.249 41.0129 130.465 41.6804C134.681 42.3479 138.787 42.1178 144.998 38.5732C151.21 35.0285 152.546 21.9834 162.967 37.2406C165.619 41.1238 170.955 36.3539 176.279 37.9045C181.602 39.4552 182.767 48.6779 182.935 45.8818C183.725 32.783 186.219 48.2655 190.924 51.4205C194.011 53.4931 192.699 57.8459 192.699 57.8459" fill="#0E2549"/>
<path d="M134.866 99.6035C134.866 99.6035 124.174 87.8015 119.801 96.6536C115.428 105.506 137.782 118.29 138.269 111.898C138.755 105.506 134.866 99.6035 134.866 99.6035Z" fill="white"/>
<path d="M136.965 108.26C136.45 105.19 135.343 102.249 133.707 99.6011C133.707 99.6011 122.992 87.8015 118.61 96.6536C114.228 105.506 136.629 118.29 137.118 111.898" stroke="#0A053A" stroke-width="0.75" stroke-miterlimit="10"/>
<path d="M131.229 101.433C131.229 101.433 127.539 99.2447 126.626 101.619C124.718 106.592 134.8 112.497 134.733 108.985C134.519 106.126 133.274 103.443 131.229 101.433Z" fill="#DADFE5"/>
<path d="M133.541 108.186C133.541 108.186 131.298 99.2686 126.058 98.265C121.833 97.3914 121.133 100.973 121.878 102.009C122.623 103.044 123.248 101.972 123.254 100.972C123.26 99.9718 124.935 98.2734 127.749 100.938C129.842 102.776 131.413 105.132 132.305 107.77C132.587 109.111 133.219 109.162 133.541 108.186Z" fill="#DADFE5"/>
<path d="M177.608 222.204C177.608 222.204 186.028 212.198 188.685 213.947C191.343 215.695 186.127 219.37 185.347 221.911C184.969 223.13 197.926 219.311 199.033 221.168C200.141 223.025 190.099 225.86 190.099 225.86C190.099 225.86 199.715 224.74 199.042 226.433C198.368 228.125 190.278 229.384 188.214 229.445C188.214 229.445 198.341 228.372 197.383 230.29C196.426 232.207 187.314 233.372 187.314 233.372C187.314 233.372 194.032 232.989 193.1 234.657C192.169 236.324 181.416 238.59 175.907 237.082C172.233 235.24 170.966 227.103 177.608 222.204Z" fill="white"/>
<path d="M177.608 222.204C177.608 222.204 186.028 212.198 188.685 213.947C191.343 215.695 186.127 219.37 185.347 221.911C184.969 223.13 197.926 219.311 199.033 221.168C200.141 223.025 190.099 225.86 190.099 225.86C190.099 225.86 199.715 224.74 199.042 226.433C198.368 228.125 190.278 229.384 188.214 229.445C188.214 229.445 198.341 228.372 197.383 230.29C196.426 232.207 187.314 233.372 187.314 233.372C187.314 233.372 194.032 232.989 193.1 234.657C192.169 236.324 181.416 238.59 175.907 237.082C172.233 235.24 170.966 227.103 177.608 222.204Z" stroke="#0A053A" stroke-width="0.75" stroke-miterlimit="10"/>
<path d="M172.53 221.659C172.53 221.659 176.071 219.174 179.363 223.158C182.655 227.141 184.171 235.831 179.363 238.813C177.999 239.65 176.403 240.028 174.808 239.891C173.214 239.755 171.705 239.112 170.503 238.056L172.53 221.659Z" fill="#DADFE5"/>
<path d="M124.956 164.249C124.956 164.249 124.956 145.328 108.771 145.814C92.5854 146.3 92.5854 179.288 96.0192 205.486C99.453 231.683 99.453 242.598 112.199 246.964C123.392 250.796 151.842 250.766 170.902 243.484C173.396 242.555 175.518 240.836 176.942 238.588C178.367 236.341 179.018 233.69 178.794 231.038C178.421 227.043 176.972 222.934 172.85 221.575C164.027 218.664 136.723 223.677 131.327 217.37C125.931 211.062 124.956 164.249 124.956 164.249Z" fill="white"/>
<path d="M98.9307 151.236C92.5304 162.09 93.185 185.276 95.7091 204.722C99.1143 230.913 99.1143 241.827 111.764 246.192C122.866 250.024 151.087 249.993 169.993 242.712C172.475 241.772 174.582 240.049 175.995 237.803C177.408 235.558 178.049 232.913 177.822 230.27C177.453 226.276 176.015 222.165 171.926 220.808C163.169 217.898 136.087 222.91 130.736 216.605C125.384 210.3 124.416 163.494 124.416 163.494" fill="white"/>
<path d="M98.9307 151.236C92.5304 162.09 93.185 185.276 95.7091 204.722C99.1143 230.913 99.1143 241.827 111.764 246.192C122.866 250.024 151.087 249.993 169.993 242.712C172.475 241.772 174.582 240.049 175.995 237.803C177.408 235.558 178.049 232.913 177.822 230.27C177.453 226.276 176.015 222.165 171.926 220.808C163.169 217.898 136.087 222.91 130.736 216.605C125.384 210.3 124.416 163.494 124.416 163.494" stroke="#0A053A" stroke-width="0.75" stroke-miterlimit="10"/>
<path d="M128.772 219.767C128.772 219.767 118.765 221.689 117.097 231.62C116.096 228.737 117.764 218.806 128.772 219.767Z" fill="#DADFE5"/>
<path d="M126.387 218.341C126.387 218.341 119.584 217.272 115.695 222.085C115.209 221.283 119.341 214.867 126.387 218.341Z" fill="#DADFE5"/>
<path d="M222.659 141.902C223.114 141.793 223.542 141.593 223.917 141.314C224.293 141.035 224.608 140.683 224.844 140.28C225.081 139.876 225.233 139.429 225.292 138.965C225.351 138.501 225.316 138.03 225.189 137.58C224.882 136.611 224.314 135.745 223.546 135.078C221.161 133.051 211.964 133.597 207.623 136.708C207.191 137.008 206.85 137.42 206.637 137.9C205.53 140.49 207.142 142.897 208.753 143.116C210.323 143.325 214.899 144.105 222.659 141.902Z" fill="#DADFE5"/>
<path d="M221.772 134.31C221.772 134.31 220.031 121.761 217.295 119.583C216.645 118.958 215.815 118.552 214.923 118.424C214.03 118.296 213.12 118.451 212.32 118.868C212.32 118.868 208.091 118.143 205.852 119.832C203.987 121.129 202.384 122.767 201.128 124.659C198.888 127.552 198.888 128.999 199.385 130.206C200.026 131.25 200.872 132.153 201.872 132.861C201.595 133.447 201.494 134.102 201.583 134.744C201.671 135.387 201.944 135.99 202.369 136.48C203.862 138.17 208.228 137.672 208.228 137.672L209.584 138.653C209.584 138.653 218.538 137.689 221.772 134.31Z" fill="white"/>
<path d="M221.533 134.702C221.533 134.702 219.8 121.892 217.074 119.674C216.437 119.035 215.611 118.619 214.719 118.486C213.827 118.353 212.916 118.51 212.12 118.935C212.12 118.935 207.908 118.195 205.682 119.919C203.815 121.25 202.217 122.923 200.972 124.848C198.741 127.803 198.741 129.281 199.236 130.514C199.87 131.575 200.712 132.497 201.713 133.223C201.436 133.822 201.336 134.488 201.424 135.142C201.512 135.796 201.783 136.412 202.207 136.918C203.694 138.644 208.042 138.136 208.042 138.136L209.392 139.135" fill="white"/>
<path d="M221.533 134.702C221.533 134.702 219.8 121.892 217.074 119.674C216.437 119.035 215.611 118.619 214.719 118.486C213.827 118.353 212.916 118.51 212.12 118.935C212.12 118.935 207.908 118.195 205.682 119.919C203.815 121.25 202.217 122.923 200.972 124.848C198.741 127.803 198.741 129.281 199.236 130.514C199.87 131.575 200.712 132.497 201.713 133.223C201.436 133.822 201.336 134.488 201.424 135.142C201.512 135.796 201.783 136.412 202.207 136.918C203.694 138.644 208.042 138.136 208.042 138.136L209.392 139.135" stroke="#0A053A" stroke-width="0.75" stroke-miterlimit="10"/>
<path d="M212.409 123.159C212.646 124.776 212.721 126.413 212.633 128.045C213.632 128.157 214.612 128.403 215.546 128.777C216.218 129.016 216.891 126.581 216.891 126.581C217.139 127.736 216.98 128.941 216.442 129.993C215.321 130.726 212.185 129.993 211.063 129.755C210.84 128.772 212.409 123.159 212.409 123.159Z" fill="#0E2549"/>
<path d="M147.372 87.4022C147.372 87.4022 150.71 91.165 147.929 92.1066C145.431 92.8122 147.372 87.4022 147.372 87.4022Z" fill="white"/>
<path d="M146.186 107.664C146.186 107.664 149.524 111.427 146.741 112.369C144.238 113.073 146.186 107.664 146.186 107.664Z" fill="white"/>
<path d="M158.109 75.4834C158.109 75.4834 161.447 79.2474 158.664 80.1878C156.162 80.8934 158.109 75.4834 158.109 75.4834Z" fill="white"/>
<path d="M184.75 90.9778C184.699 90.978 184.649 90.974 184.599 90.9659C184.285 90.9007 184.009 90.7166 183.828 90.4523C183.647 90.1879 183.575 89.8637 183.628 89.5476L183.755 88.4987C183.764 88.3431 183.804 88.1908 183.873 88.0511C183.942 87.9113 184.039 87.787 184.157 87.6857C184.275 87.5843 184.413 87.508 184.562 87.4613C184.711 87.4147 184.867 87.3986 185.023 87.4141C185.336 87.4799 185.612 87.6641 185.793 87.9284C185.974 88.1927 186.045 88.5166 185.993 88.8325L185.874 89.8861C185.852 90.174 185.726 90.444 185.519 90.6452C185.312 90.8463 185.038 90.9647 184.75 90.9778Z" fill="#0E2549"/>
<path d="M164.48 93.3616C164.43 93.3617 164.38 93.3577 164.33 93.3497C164.016 93.2842 163.74 93.1001 163.559 92.8357C163.378 92.5714 163.306 92.2474 163.358 91.9313L163.485 90.8801C163.494 90.7247 163.535 90.5729 163.604 90.4336C163.674 90.2943 163.77 90.1704 163.889 90.0693C164.007 89.9683 164.145 89.8922 164.293 89.8455C164.442 89.7989 164.598 89.7827 164.753 89.7979C165.067 89.8634 165.343 90.0476 165.524 90.3119C165.705 90.5763 165.777 90.9003 165.724 91.2162L165.605 92.2698C165.583 92.5578 165.457 92.828 165.25 93.0292C165.043 93.2304 164.769 93.3487 164.48 93.3616Z" fill="#0E2549"/>
<path d="M167.498 86.8003C167.338 86.8531 167.168 86.8674 167.001 86.8421C164.616 86.5923 162.217 87.1465 160.183 88.4165C159.969 88.5582 159.712 88.6185 159.457 88.5866C159.202 88.5547 158.968 88.4326 158.795 88.2425C158.715 88.1555 158.654 88.0519 158.618 87.939C158.582 87.8261 158.57 87.7067 158.585 87.589C158.6 87.4714 158.64 87.3584 158.703 87.258C158.766 87.1575 158.851 87.0721 158.95 87.0077C161.42 85.437 164.355 84.764 167.262 85.1019C167.384 85.1127 167.503 85.1475 167.612 85.2043C167.72 85.261 167.817 85.3387 167.896 85.4328C167.974 85.527 168.033 85.6357 168.07 85.7527C168.107 85.8698 168.12 85.9929 168.108 86.115C168.081 86.2747 168.009 86.4235 167.901 86.5445C167.793 86.6656 167.653 86.7542 167.498 86.8003Z" fill="#0E2549"/>
<path d="M175.788 107.664C175.04 107.655 174.294 107.584 173.557 107.451C173.145 107.381 172.842 106.791 172.891 106.14C172.94 105.489 173.303 105.005 173.722 105.071C174.908 105.331 176.136 105.323 177.319 105.049C177.284 104.903 177.228 104.704 177.178 104.52C176.414 101.695 175.981 98.79 175.887 95.8646C175.849 95.2067 176.151 94.6227 176.563 94.5535C176.976 94.4844 177.342 94.9719 177.38 95.6262C177.456 98.3019 177.847 100.959 178.544 103.544C178.868 104.393 178.923 105.321 178.702 106.202C178.58 106.611 178.253 107.664 175.788 107.664Z" fill="#0E2549"/>
<path d="M187.56 84.6156C187.397 84.6443 187.23 84.6192 187.083 84.5441C185.988 84.0689 184.797 83.8538 183.605 83.9159C182.412 83.9779 181.25 84.3153 180.21 84.9016C180.09 84.9648 179.957 84.9993 179.821 85.0023C179.685 85.0053 179.551 84.9769 179.428 84.9191C179.305 84.8614 179.197 84.7759 179.113 84.6695C179.028 84.5631 178.97 84.4385 178.942 84.3057C178.831 84.02 178.818 83.7058 178.904 83.4119C178.99 83.1179 179.171 82.8606 179.419 82.68C180.68 81.9515 182.096 81.5339 183.551 81.462C185.005 81.3901 186.456 81.6658 187.783 82.2664C188.038 82.431 188.23 82.6772 188.327 82.9649C188.425 83.2525 188.422 83.5646 188.319 83.8504C188.275 84.0351 188.18 84.204 188.046 84.3388C187.912 84.4737 187.744 84.5694 187.56 84.6156Z" fill="#0E2549"/>
<path d="M124.272 161.299C124.272 161.299 122.025 161.696 121.479 168.824C120.932 175.953 124.316 182.455 121.479 188.744C118.641 195.034 121.969 214.002 126.35 217.1C130.732 220.199 130.805 219.584 132.644 221.569C134.484 223.553 151.038 225.025 158.084 223.764C165.129 222.503 168.457 221.796 172.675 224.232C173.874 224.877 174.93 225.759 175.779 226.824C176.627 227.889 177.251 229.115 177.612 230.428C177.612 230.428 179.52 217.788 158.459 220.304C137.092 220.514 128.724 221.476 128.055 208.99C124.686 195.864 124.272 161.299 124.272 161.299Z" fill="#4AEAFF"/>
<path d="M97.7719 223.515C97.7719 223.515 116.075 220.794 120.157 233.825C124.24 246.856 122.394 248.306 122.394 248.306C122.394 248.306 109.56 247.03 104.195 241.771C98.8294 236.513 97.7719 223.515 97.7719 223.515Z" fill="#4AEAFF"/>
<path d="M93.5988 189.904C93.5988 189.904 97.5572 257.673 99.8477 262.903C102.138 268.133 107.549 278.023 112.75 279.876C116.208 281.291 119.257 283.55 121.618 286.446C121.618 286.446 101.364 283.031 96.9635 272.234C90.8994 243.658 93.5988 189.904 93.5988 189.904Z" fill="#4AEAFF"/>
<path d="M194.349 175.852C194.349 175.852 199.804 174.144 199.094 179.666C198.385 185.188 197.902 196.221 199.452 198.767C201.002 201.313 199.97 203.015 199.97 203.015L197.078 201.159L194.349 175.852Z" fill="#4AEAFF"/>
<path d="M213.426 209.677C213.426 209.677 213.495 190.858 234.887 195.372L231.191 207.272C231.191 207.272 226.44 212.218 220.905 211.226C215.37 210.233 213.426 209.677 213.426 209.677Z" fill="#4AEAFF"/>
<path d="M209.685 142.85C209.685 142.85 209.063 149.248 211.37 153.181C213.677 157.114 214.618 173.658 214.618 173.658C214.618 173.658 214.939 183.615 208.22 176.783C201.501 169.951 198.787 156.356 197.966 154.959C197.146 153.562 208.977 174.555 209.942 175.307C210.906 176.059 214.194 179.251 211.373 166.606C208.552 153.962 206.55 144.255 207.49 141.888C208.431 139.521 209.685 142.851 209.685 142.851" fill="#4AEAFF"/>
<path d="M122.81 119.583C122.288 122.342 122.051 125.148 122.103 127.956C122.413 130.755 108.2 141.988 106.866 146.346C105.531 150.703 94.1949 167.258 94.1949 167.258C94.1949 167.258 97.7301 148.069 105.721 135.069C113.712 122.069 122.81 119.583 122.81 119.583Z" fill="#4AEAFF"/>
<path d="M203.757 108.428C203.757 108.428 208.827 105.146 213.264 107.086C217.7 109.027 219.089 109.155 222.993 112.297C226.896 115.439 224.574 116.335 230.413 122.714C236.251 129.093 235.182 131.495 233.782 133.032C232.382 134.57 229.586 130.002 224.903 135.128C220.219 140.253 226.045 142.322 215.779 144.288C205.514 146.255 202.385 146.798 197.557 148.992C192.73 151.185 190.473 151.392 189.699 147.711C188.925 144.031 192.187 142.11 192.19 136.13C192.192 130.15 194.565 130.235 195.117 121.391C195.669 112.547 203.757 108.428 203.757 108.428Z" fill="#BDCBDB"/>
<path d="M184.453 119.583C184.453 119.583 180.687 121.901 177.848 121.27C175.01 120.638 173.47 122.981 172.998 121.421C172.526 119.861 173.59 116.365 175.822 117.383C178.054 118.401 178.823 116.703 180.272 117.722C181.722 118.742 186.084 118.811 184.453 119.583Z" fill="#0E2549"/>
</svg>
