<svg width="321" height="321" viewBox="0 0 321 321" fill="none" xmlns="http://www.w3.org/2000/svg">
<path d="M219.029 244.81C217.442 237.937 216.229 232.287 215.335 227.923C216.717 207.819 204.112 172.399 200.634 160.434C196.517 146.259 187.363 143.058 187.363 143.058L187.82 239.539C189.693 240.961 191.73 242.151 193.888 243.084L202.108 278.202C202.108 278.202 223.147 262.644 219.029 244.81Z" fill="white"/>
<path d="M219.029 244.81C217.442 237.937 216.229 232.287 215.335 227.923C216.717 207.819 204.112 172.399 200.634 160.434C196.517 146.259 187.363 143.058 187.363 143.058L187.82 239.539C189.693 240.961 191.73 242.151 193.888 243.084L202.108 278.202C202.108 278.202 223.147 262.644 219.029 244.81Z" stroke="#0A053A" stroke-width="0.75" stroke-miterlimit="10"/>
<path d="M126.397 118.261C126.397 118.261 108.14 125.151 99.6613 147.882C91.1828 170.613 89.2273 251.499 96.4005 272.859C103.574 294.219 177.914 293.525 201.387 278.37C220.955 262.526 200.083 227.795 196.824 199.552C193.564 171.308 193.564 147.193 181.826 138.238C170.088 129.284 126.397 118.261 126.397 118.261Z" fill="white"/>
<path d="M187.003 144.298C185.695 141.955 183.935 139.896 181.826 138.241C170.088 129.283 126.397 118.261 126.397 118.261C126.397 118.261 108.14 125.151 99.6613 147.882C91.1828 170.613 89.2285 251.5 96.4017 272.859C103.575 294.218 177.915 293.525 201.389 278.369C220.956 262.525 200.084 227.794 196.825 199.552C195.965 192.103 195.332 184.941 194.649 178.27" stroke="#0A053A" stroke-width="0.75" stroke-miterlimit="10"/>
<path d="M168.183 152.998C168.183 152.998 176.663 209.981 172.672 213.874C168.682 217.768 154.715 219.232 150.226 214.362C149.727 202.19 147.732 152.998 147.732 150.075C147.732 147.153 168.183 152.998 168.183 152.998Z" fill="#FF4591"/>
<path d="M183.648 147.754C183.648 147.754 168.992 168.426 143.264 156.944C117.536 145.462 122.096 116.91 126.003 113.301C129.585 121.833 136.75 152.677 183.648 147.754Z" fill="#C62E73"/>
<path d="M186.852 137.516C186.852 137.516 191.286 149.321 174.037 155.224C156.788 161.127 131.159 148.337 125.737 133.579C120.315 118.821 122.781 104.063 133.624 101.112C144.466 98.1614 183.895 127.188 186.852 137.516Z" fill="#FF4591"/>
<path d="M178.694 135.307C178.694 135.307 147.159 149.646 132.871 113.322C144.697 105.675 178.694 135.307 178.694 135.307Z" fill="#DADFE5"/>
<path d="M191.191 72.6862C191.191 72.6862 197.518 111.318 189.468 131.761C183.136 140.851 154.93 132.897 141.115 118.123C127.3 103.349 123.269 78.3598 129.597 63.024C135.926 47.6883 165.286 47.1229 174.497 50.5313C183.707 53.9396 190.615 66.4349 191.191 72.6862Z" fill="white"/>
<path d="M137.421 113.636C126.62 98.671 123.87 76.9004 129.597 63.0277C135.93 47.692 165.286 47.1229 174.497 50.5312C183.707 53.9396 190.615 66.4348 191.191 72.6862C191.191 72.6862 197.522 111.314 189.463 131.761C184.806 138.448 168.307 135.91 154.415 128.22" stroke="#0A053A" stroke-width="0.75" stroke-miterlimit="10"/>
<path d="M158.878 105.862C158.878 106.598 159.096 107.317 159.505 107.929C159.913 108.54 160.493 109.017 161.172 109.299C161.851 109.58 162.598 109.654 163.319 109.51C164.039 109.367 164.701 109.012 165.221 108.492C165.741 107.972 166.094 107.309 166.238 106.588C166.381 105.866 166.308 105.118 166.026 104.439C165.745 103.759 165.269 103.178 164.658 102.769C164.047 102.361 163.329 102.143 162.594 102.143C161.608 102.143 160.663 102.534 159.967 103.232C159.27 103.93 158.878 104.876 158.878 105.862" fill="#DADFE5"/>
<path d="M184.886 129.419C184.204 129.922 183.415 130.259 182.581 130.405C181.747 130.551 180.89 130.501 180.078 130.26C179.033 131.246 183.904 133.799 184.886 129.419Z" fill="#0E2549"/>
<path d="M193.166 58.1018C193.166 58.1018 197.192 59.6665 195.402 65.4814C193.613 71.2963 189.364 71.9658 183.767 70.1718C178.17 68.3777 175.717 75.3134 169.453 74.6427C163.189 73.9719 157.822 71.2951 153.796 73.7487C149.77 76.2024 151.339 82.6943 142.167 83.8102C137.471 86.0419 137.918 90.9653 138.366 94.9899C139.073 99.4605 140.12 103.871 141.497 108.182C140.983 108.646 140.326 108.921 139.635 108.962C138.944 109.002 138.26 108.806 137.695 108.405C136.58 107.734 134.787 99.2376 131.874 97.6729C128.961 96.1082 125.392 96.1132 124.05 95.2168C122.707 94.3204 121.367 83.8101 119.576 82.6943C118.137 81.5117 117.001 80.0025 116.262 78.2921C115.523 76.5817 115.202 74.7193 115.326 72.8598C115.775 68.3864 118.011 69.2816 118.682 63.9155C119.353 58.5494 119.576 54.5248 122.261 52.0637C124.946 49.6026 126.175 41.1134 130.424 41.7854C134.673 42.4574 138.813 42.2267 145.075 38.6485C151.337 35.0703 152.682 21.9105 163.192 37.3082C165.867 41.2262 171.242 36.4131 176.614 37.9778C181.985 39.5425 183.155 48.8513 183.324 46.0281C184.12 32.8088 186.634 48.4285 191.374 51.6174C194.485 53.709 193.163 58.1018 193.163 58.1018" fill="#0E2549"/>
<path d="M134.248 99.5749C134.248 99.5749 123.141 88.0207 118.599 96.6873C114.056 105.354 137.276 117.87 137.781 111.613C138.286 105.355 134.248 99.5761 134.248 99.5761" fill="white"/>
<path d="M137.666 108.053C137.121 105.027 135.97 102.144 134.282 99.5749C134.282 99.5749 123.151 88.0207 118.6 96.6873C114.048 105.354 137.317 117.87 137.824 111.613" stroke="#0A053A" stroke-width="0.75" stroke-miterlimit="10"/>
<path d="M131.708 102.98C131.708 102.98 127.873 100.988 126.926 103.149C124.945 107.679 135.417 113.053 135.348 109.855C135.076 107.175 133.77 104.709 131.708 102.98Z" fill="#DADFE5"/>
<path d="M134.109 108.885C134.109 108.885 131.78 99.6083 126.337 98.5644C121.947 97.6543 121.221 101.38 121.995 102.458C122.769 103.535 123.418 102.419 123.424 101.379C123.43 100.339 125.17 98.573 128.093 101.344C130.267 103.256 131.899 105.707 132.825 108.452C133.118 109.847 133.775 109.9 134.109 108.885Z" fill="#DADFE5"/>
<path d="M147.237 87.2644C147.237 87.2644 150.704 91.1786 147.815 92.1581C145.221 92.8921 147.237 87.2644 147.237 87.2644Z" fill="white"/>
<path d="M146.005 107.102C146.005 107.102 149.472 111.016 146.582 111.996C143.982 112.728 146.005 107.102 146.005 107.102Z" fill="white"/>
<path d="M158.383 74.8658C158.383 74.8658 161.851 78.7813 158.961 79.7595C156.367 80.4935 158.383 74.8658 158.383 74.8658Z" fill="white"/>
<path d="M184.823 90.9839C184.771 90.9841 184.718 90.9799 184.667 90.9715C184.341 90.9034 184.054 90.7119 183.866 90.4369C183.678 90.162 183.603 89.8249 183.657 89.4961L183.789 88.4051C183.798 88.243 183.839 88.0845 183.911 87.9391C183.983 87.7936 184.083 87.6642 184.207 87.5588C184.33 87.4533 184.473 87.374 184.628 87.3255C184.782 87.277 184.945 87.2605 185.106 87.2768C185.432 87.3452 185.719 87.5369 185.907 87.8118C186.094 88.0867 186.169 88.4236 186.115 88.7522L185.991 89.8482C185.969 90.1478 185.837 90.4289 185.622 90.6382C185.407 90.8475 185.123 90.9705 184.823 90.9839Z" fill="#0E2549"/>
<path d="M165.006 93.4636C164.954 93.4637 164.902 93.4596 164.85 93.4512C164.525 93.3831 164.238 93.1915 164.05 92.9165C163.862 92.6415 163.788 92.3045 163.842 91.9758L163.973 90.8823C163.983 90.7206 164.025 90.5627 164.098 90.4177C164.17 90.2728 164.27 90.144 164.393 90.0389C164.516 89.9338 164.659 89.8546 164.813 89.8061C164.968 89.7575 165.13 89.7407 165.291 89.7565C165.617 89.8249 165.903 90.0165 166.091 90.2915C166.279 90.5664 166.354 90.9033 166.299 91.2319L166.175 92.3279C166.153 92.6276 166.022 92.9087 165.806 93.118C165.591 93.3272 165.306 93.4502 165.006 93.4636Z" fill="#0E2549"/>
<path d="M166.984 86.6383C166.84 86.6927 166.684 86.7077 166.532 86.6817C164.336 86.4259 162.124 87.011 160.34 88.3195C160.245 88.3921 160.137 88.445 160.022 88.4753C159.907 88.5055 159.787 88.5124 159.669 88.4955C159.552 88.4786 159.438 88.4384 159.336 88.3771C159.234 88.3157 159.146 88.2346 159.075 88.1385C158.926 87.9486 158.857 87.7076 158.884 87.4674C158.91 87.2272 159.03 87.0069 159.217 86.854C161.381 85.2339 164.091 84.5223 166.771 84.8703C167.01 84.9134 167.223 85.047 167.366 85.2432C167.509 85.4395 167.571 85.6833 167.539 85.9241C167.52 86.0822 167.458 86.2321 167.36 86.3577C167.263 86.4833 167.133 86.5799 166.984 86.637" fill="#0E2549"/>
<path d="M176.753 107.102C175.977 107.093 175.203 107.025 174.437 106.9C174.009 106.833 173.694 106.28 173.745 105.66C173.796 105.04 174.173 104.593 174.601 104.656C175.835 104.901 177.106 104.894 178.337 104.635C178.301 104.496 178.243 104.307 178.191 104.139C177.401 101.475 176.953 98.7207 176.857 95.9434C176.815 95.3234 177.13 94.7692 177.557 94.7035C177.984 94.6378 178.366 95.099 178.405 95.7214C178.486 98.2587 178.893 100.775 179.614 103.209C179.951 104.004 180.009 104.891 179.779 105.723C179.654 106.11 179.313 107.102 176.753 107.102Z" fill="#0E2549"/>
<path d="M187.742 84.5057C187.575 84.5258 187.406 84.5089 187.246 84.4561C184.899 83.7901 182.403 83.8769 180.108 84.7041C179.874 84.8041 179.612 84.8172 179.369 84.7411C179.127 84.6649 178.919 84.5045 178.784 84.2887C178.734 84.1844 178.708 84.0705 178.706 83.9549C178.704 83.8392 178.727 83.7246 178.773 83.6187C178.82 83.5127 178.888 83.4181 178.975 83.3412C179.061 83.2643 179.163 83.2069 179.273 83.1729C182.066 82.1382 185.118 82.0343 187.975 82.8766C188.088 82.9039 188.195 82.9557 188.287 83.0283C188.378 83.1009 188.453 83.1927 188.506 83.2971C188.559 83.4016 188.589 83.5164 188.593 83.6334C188.597 83.7505 188.576 83.867 188.531 83.9751C188.454 84.1226 188.342 84.2486 188.204 84.3413C188.066 84.434 187.907 84.4906 187.742 84.5057Z" fill="#0E2549"/>
<path d="M93.8382 190.172C93.8382 190.172 97.774 258.058 100.052 263.297C102.329 268.537 107.715 278.443 112.896 280.298C116.342 281.719 119.378 283.982 121.725 286.881C121.725 286.881 101.564 283.459 97.1833 272.645C91.147 244.02 93.8382 190.172 93.8382 190.172Z" fill="#4AEAFF"/>
<path d="M122.963 119.501C122.442 122.3 122.206 125.146 122.258 127.994C122.567 130.832 108.42 142.226 107.09 146.645C105.759 151.063 94.4783 167.855 94.4783 167.855C94.4783 167.855 97.998 148.389 105.951 135.207C113.905 122.025 122.963 119.501 122.963 119.501Z" fill="#4AEAFF"/>
<path d="M184.567 119.873C184.567 119.873 180.779 125.04 178.119 124.405C175.459 123.771 174.286 123.281 173.844 121.715C173.402 120.149 174.398 116.639 176.488 117.663C178.579 118.687 178.993 114.935 180.35 115.96C181.706 116.984 186.096 119.096 184.56 119.868" fill="#0E2549"/>
<path d="M153.331 145.166C153.331 145.166 145.891 137.837 148.165 132.166C150.852 130.276 152.918 139.018 157.88 139.729C162.843 140.439 175.449 137.367 175.863 139.964C176.276 142.562 167.176 143.034 167.176 143.034C167.176 143.034 176.478 141.617 176.065 143.507C175.651 145.396 167.797 145.87 167.797 145.87C167.797 145.87 177.511 145.161 176.065 147.287C174.618 149.413 167.383 148.468 167.383 148.468C167.383 148.468 174.825 148.942 173.17 150.83C171.516 152.719 162.422 151.067 162.422 151.067L153.331 145.166Z" fill="white"/>
<path d="M153.331 145.166C153.331 145.166 145.891 137.837 148.165 132.166C150.852 130.276 152.918 139.018 157.88 139.729C162.843 140.439 175.449 137.367 175.863 139.964C176.276 142.562 167.176 143.034 167.176 143.034C167.176 143.034 176.478 141.617 176.065 143.507C175.651 145.396 167.797 145.87 167.797 145.87C167.797 145.87 177.511 145.161 176.065 147.287C174.618 149.413 167.383 148.468 167.383 148.468C167.383 148.468 174.825 148.942 173.17 150.83C171.516 152.719 162.422 151.067 162.422 151.067L153.331 145.166Z" stroke="#0A053A" stroke-width="0.75" stroke-miterlimit="10"/>
<path d="M166.08 156.696C166.08 156.696 169.383 150.487 166.08 147.384C162.776 144.591 154.791 142.728 151.487 146.142C149.694 148.313 148.807 151.092 149.01 153.901L166.08 156.696Z" fill="#DADFE5"/>
<path d="M94.5254 162.571C94.591 164.112 97.6513 219.17 124.001 228.927C150.35 238.685 167.548 167.837 167.548 154.664C165.762 149.297 154.151 145.394 148.345 150.761C142.539 156.128 133.826 181.111 129.805 184.527C125.785 187.943 121.767 153.3 113.729 144.517C105.691 135.734 93.6325 141.59 94.5254 162.571Z" fill="white"/>
<path d="M103.59 140.378C98.4539 142.199 94.315 149.367 94.8575 161.989C94.9243 163.536 97.997 218.805 124.457 228.6C150.916 238.395 168.177 167.277 168.177 154.052C166.384 148.664 154.726 144.746 148.896 150.134C143.067 155.521 134.317 180.602 130.281 184.03C127.466 186.423 124.651 170.222 120.466 157.213" fill="white"/>
<path d="M103.59 140.378C98.4539 142.199 94.315 149.367 94.8575 161.989C94.9243 163.536 97.997 218.805 124.457 228.6C150.916 238.395 168.177 167.277 168.177 154.052C166.384 148.664 154.726 144.746 148.896 150.134C143.067 155.521 134.317 180.602 130.281 184.03C127.466 186.423 124.651 170.222 120.466 157.213" stroke="#0A053A" stroke-width="0.75" stroke-miterlimit="10"/>
<path d="M110.578 217.518C110.578 217.518 118.896 209.506 129.288 210.035C132.424 210.265 135.474 211.169 138.23 212.687C140.986 214.204 143.382 216.299 145.255 218.828C145.255 218.828 137.67 231.276 127.274 229.712C116.878 228.149 110.578 217.518 110.578 217.518Z" fill="#4AEAFF"/>
<path d="M119.276 154.995C119.276 154.995 114.981 158.668 117.638 165.483C120.294 172.298 124.834 182.857 124.99 185.424C125.146 187.99 129.292 191.799 131.05 189.421C132.809 187.043 137.659 176.038 140.475 172.584C143.291 169.129 146.73 155.496 149.703 153.435C152.675 151.375 152.284 148.413 157.64 148.15C157.64 148.15 149.025 146.272 144.047 156.67C139.068 167.069 131.051 183.272 131.051 183.272C131.051 183.272 128.784 188.312 126.5 180.861C124.216 173.409 119.276 154.995 119.276 154.995Z" fill="#4AEAFF"/>
<path d="M193.834 173.251C193.834 173.251 195.85 170.947 197.277 176.928C198.704 182.909 199.18 192.193 201.24 200.928C203.299 209.663 204.73 213.126 205.203 219.107C205.901 224.716 207.305 230.215 209.379 235.473C210.278 237.518 213.927 250.11 213.291 254.359C212.656 258.608 214.261 265.612 208.563 270.944C202.865 276.275 204.843 273.999 204.843 273.999C204.843 273.999 211.87 265.535 207.427 244.447C202.985 223.358 197.015 204.802 195.884 193.466C194.752 182.13 192.836 173.682 193.834 173.251Z" fill="#4AEAFF"/>
</svg>
