<svg width="93" height="93" viewBox="0 0 93 93" fill="none" xmlns="http://www.w3.org/2000/svg">
<path d="M57.4221 33.3049H36.5779C31.8404 33.3049 28 37.134 28 41.8574V73.9977C28 78.7211 31.8404 82.5502 36.5779 82.5502H57.4221C62.1596 82.5502 66 78.7211 66 73.9977V41.8574C66 37.134 62.1596 33.3049 57.4221 33.3049Z" stroke="#404040" stroke-width="3" stroke-miterlimit="10"/>
<path d="M43.6203 28.0451H51.6407C52.7782 28.0451 53.8691 28.4956 54.6734 29.2975C55.4777 30.0995 55.9296 31.1872 55.9296 32.3213V33.2706H39.2971V32.3641C39.2914 31.796 39.3992 31.2325 39.6144 30.7065C39.8295 30.1805 40.1476 29.7025 40.5501 29.3004C40.9526 28.8983 41.4314 28.5802 41.9585 28.3647C42.4857 28.1491 43.0506 28.0405 43.6203 28.0451Z" stroke="#404040" stroke-width="3" stroke-miterlimit="10"/>
<path d="M51.6493 20.0486H43.0972V28.0452H51.6493V20.0486Z" stroke="#404040" stroke-width="3" stroke-miterlimit="10"/>
<path d="M39.2971 11H56.8131C59.0262 11 63.461 11.8039 63.461 16.1315" stroke="#404040" stroke-width="3" stroke-miterlimit="10" stroke-linecap="round"/>
<path d="M47.2402 11.4191V20.0485" stroke="#404040" stroke-width="3" stroke-miterlimit="10" stroke-linecap="round"/>
<path d="M31.7314 54.498V73.1083C31.7314 74.6098 32.3297 76.0499 33.3947 77.1117C34.4596 78.1735 35.904 78.77 37.41 78.77H56.5901C58.0962 78.77 59.5405 78.1735 60.6055 77.1117C61.6704 76.0499 62.2687 74.6098 62.2687 73.1083V54.498H31.7314ZM35.2913 57.4743C35.2913 57.3052 35.3416 57.1398 35.4358 56.9992C35.5301 56.8585 35.6641 56.7489 35.8208 56.6842C35.9775 56.6194 36.15 56.6025 36.3164 56.6355C36.4828 56.6685 36.6356 56.75 36.7556 56.8696C36.8756 56.9892 36.9573 57.1416 36.9904 57.3075C37.0235 57.4734 37.0065 57.6453 36.9415 57.8016C36.8766 57.9579 36.7667 58.0915 36.6256 58.1854C36.4846 58.2794 36.3187 58.3296 36.1491 58.3296C35.9216 58.3296 35.7034 58.2395 35.5425 58.0791C35.3816 57.9187 35.2913 57.7011 35.2913 57.4743ZM37.8646 71.4747C37.5273 71.4663 37.1999 71.3589 36.9235 71.1659C36.647 70.9729 36.4338 70.7029 36.3105 70.3897C36.1873 70.0765 36.1593 69.734 36.2303 69.4051C36.3013 69.0762 36.4679 68.7754 36.7095 68.5404C36.951 68.3055 37.2567 68.1468 37.5883 68.0841C37.9199 68.0215 38.2626 68.0578 38.5736 68.1884C38.8846 68.3191 39.15 68.5382 39.3367 68.8185C39.5234 69.0988 39.623 69.4278 39.6231 69.7642C39.6119 70.2218 39.4217 70.6568 39.0931 70.9764C38.7646 71.296 38.3237 71.4749 37.8646 71.4747ZM42.4967 62.3578C42.4967 62.011 42.5998 61.672 42.793 61.3837C42.9863 61.0954 43.2609 60.8707 43.5822 60.738C43.9035 60.6053 44.2571 60.5706 44.5982 60.6382C44.9393 60.7059 45.2526 60.8728 45.4986 61.118C45.7445 61.3632 45.912 61.6756 45.9798 62.0157C46.0477 62.3558 46.0129 62.7084 45.8798 63.0287C45.7467 63.3491 45.5213 63.6229 45.2321 63.8156C44.9429 64.0082 44.6029 64.111 44.2551 64.111C43.7888 64.111 43.3415 63.9263 43.0117 63.5975C42.6819 63.2687 42.4967 62.8228 42.4967 62.3578ZM48.3382 75.8964C47.7258 75.8964 47.1271 75.7153 46.6178 75.376C46.1086 75.0368 45.7117 74.5546 45.4773 73.9904C45.2429 73.4263 45.1816 72.8055 45.3011 72.2066C45.4206 71.6077 45.7155 71.0576 46.1486 70.6258C46.5817 70.194 47.1334 69.8999 47.7341 69.7808C48.3348 69.6617 48.9574 69.7228 49.5232 69.9565C50.0891 70.1902 50.5727 70.5859 50.913 71.0936C51.2532 71.6014 51.4348 72.1983 51.4348 72.8089C51.4348 73.6278 51.1086 74.4131 50.5279 74.9921C49.9471 75.5711 49.1595 75.8964 48.3382 75.8964ZM53.7852 60.1085C53.6155 60.1085 53.4497 60.0583 53.3086 59.9643C53.1675 59.8704 53.0576 59.7368 52.9927 59.5805C52.9278 59.4242 52.9108 59.2523 52.9439 59.0864C52.977 58.9205 53.0587 58.7681 53.1786 58.6485C53.2986 58.5289 53.4514 58.4474 53.6178 58.4144C53.7842 58.3814 53.9567 58.3984 54.1134 58.4631C54.2702 58.5278 54.4041 58.6374 54.4984 58.7781C54.5926 58.9187 54.643 59.0841 54.643 59.2532C54.643 59.3655 54.6208 59.4768 54.5777 59.5805C54.5346 59.6843 54.4714 59.7786 54.3917 59.858C54.3121 59.9374 54.2175 60.0004 54.1134 60.0434C54.0094 60.0864 53.8978 60.1085 53.7852 60.1085ZM57.731 74.4168C57.3832 74.4168 57.0432 74.314 56.754 74.1213C56.4649 73.9287 56.2395 73.6548 56.1064 73.3345C55.9733 73.0141 55.9385 72.6616 56.0063 72.3215C56.0742 71.9814 56.2416 71.669 56.4876 71.4238C56.7335 71.1786 57.0468 71.0116 57.3879 70.944C57.729 70.8763 58.0826 70.911 58.4039 71.0437C58.7252 71.1764 58.9999 71.4011 59.1931 71.6895C59.3863 71.9778 59.4895 72.3168 59.4895 72.6635C59.4953 72.8954 59.4539 73.126 59.3676 73.3414C59.2813 73.5567 59.152 73.7524 58.9875 73.9163C58.8231 74.0803 58.6268 74.2093 58.4108 74.2953C58.1948 74.3813 57.9635 74.4227 57.731 74.4168Z" fill="#DF0A56"/>
</svg>
