<svg width="93" height="93" viewBox="0 0 93 93" fill="none" xmlns="http://www.w3.org/2000/svg">
<path d="M62.6377 28.7371V19.4359H70.8559V37.8381" stroke="#404040" stroke-width="3" stroke-linejoin="round"/>
<path d="M46.9729 15.6127C47.3373 15.6171 47.6969 15.6968 48.0287 15.8467C48.3606 15.9966 48.6574 16.2135 48.9004 16.4836L77.34 47.2264H69.4547V78.3873H23.5623V47.2003H16.6057L45.0453 16.4836C45.2883 16.2135 45.5852 15.9966 45.917 15.8467C46.2488 15.6968 46.6084 15.6171 46.9729 15.6127ZM46.9729 13C46.2463 13.0009 45.5279 13.1516 44.8629 13.4423C44.1978 13.7331 43.6007 14.1578 43.1091 14.6895L14.6694 45.4324C14.3324 45.8069 14.1112 46.27 14.0322 46.7663C13.9533 47.2626 14.02 47.771 14.2244 48.2305C14.4287 48.6901 14.762 49.0813 15.1844 49.3574C15.6068 49.6334 16.1002 49.7825 16.6057 49.7869H20.9338V78.3873C20.9338 79.0802 21.2108 79.7448 21.7037 80.2348C21.9478 80.4774 22.2375 80.6698 22.5564 80.8011C22.8753 80.9324 23.2171 81 23.5623 81H69.481C70.1781 81 70.8467 80.7247 71.3396 80.2348C71.8325 79.7448 72.1095 79.0802 72.1095 78.3873V49.813H77.3663C77.8718 49.8087 78.3653 49.6595 78.7876 49.3835C79.21 49.1075 79.5433 48.7162 79.7477 48.2566C79.952 47.7971 80.0187 47.2887 79.9398 46.7924C79.8608 46.2961 79.6396 45.833 79.3026 45.4585L50.8367 14.6895C50.345 14.1578 49.7479 13.7331 49.0829 13.4423C48.4178 13.1516 47.6994 13.0009 46.9729 13V13Z" fill="#404040"/>
<path d="M55.5145 78.3873H38.4385V59.4626C38.4385 57.2128 39.3376 55.0553 40.9379 53.4645C42.5383 51.8737 44.7089 50.98 46.9721 50.98C48.0935 50.9788 49.2041 51.1974 50.2405 51.6232C51.2769 52.049 52.2186 52.6736 53.012 53.4614C53.8053 54.2492 54.4347 55.1847 54.8641 56.2144C55.2935 57.2441 55.5145 58.3479 55.5145 59.4626V78.3873Z" fill="#DF0A56"/>
<path d="M55.5145 79.3366H38.4385V60.4032C38.4385 58.1535 39.3376 55.9959 40.9379 54.4052C42.5383 52.8144 44.7089 51.9207 46.9721 51.9207V51.9207C48.0935 51.9195 49.2041 52.1381 50.2405 52.5639C51.2769 52.9896 52.2186 53.6143 53.012 54.4021C53.8053 55.1899 54.4347 56.1254 54.8641 57.1551C55.2935 58.1848 55.5145 59.2886 55.5145 60.4032V79.3366Z" stroke="#404040" stroke-width="2" stroke-linecap="round" stroke-linejoin="round"/>
<path d="M27.1187 45.9027L45.9645 26.3596C46.1525 26.1661 46.3777 26.0121 46.6269 25.9069C46.876 25.8018 47.1439 25.7476 47.4146 25.7476C47.6852 25.7476 47.9531 25.8018 48.2022 25.9069C48.4514 26.0121 48.6766 26.1661 48.8646 26.3596L66.8606 45.0231" stroke="#404040" stroke-width="2" stroke-linecap="round" stroke-linejoin="round"/>
</svg>
