<svg width="321" height="321" viewBox="0 0 321 321" fill="none" xmlns="http://www.w3.org/2000/svg">
<path d="M84.0285 84.548C82.3604 87.651 80.8712 90.8468 79.568 94.1197C78.8778 95.7373 78.33 97.4099 77.7128 99.0538C77.1972 100.728 76.5932 102.382 76.1578 104.075C74.155 110.784 72.993 117.715 72.6985 124.71C72.6722 125.58 72.6112 126.449 72.6148 127.318L72.714 129.926L72.8014 132.53L73.0944 135.121L73.3863 137.707C73.5298 138.56 73.732 139.406 73.9006 140.254C74.2535 141.95 74.5968 143.637 74.9963 145.395C76.6203 152.368 77.2454 159.536 76.8527 166.684C76.3383 173.794 75.1011 180.833 73.1602 187.692C71.3241 194.541 69.067 201.236 67.5455 208.028C66.7628 211.406 66.4131 214.87 66.5048 218.336C66.6459 221.819 67.1031 225.282 67.8708 228.683C69.4197 235.547 71.8118 242.194 74.9927 248.472C73.1892 245.429 71.607 242.26 70.2583 238.991C68.8739 235.724 67.7177 232.365 66.7979 228.938C65.9005 225.485 65.3263 221.956 65.0826 218.396C64.884 214.81 65.1408 211.213 65.8469 207.692C66.4689 204.17 67.4151 200.749 68.3588 197.347C69.3026 193.944 70.2859 190.567 71.1722 187.172C73.0108 180.434 74.1614 173.527 74.6064 166.557C75.0561 159.611 74.5152 152.637 72.9999 145.844L71.9437 140.633C71.7775 139.754 71.5849 138.878 71.4377 137.995L71.1626 135.324L70.8875 132.655C70.8612 131.762 70.8445 130.868 70.8361 129.98L70.8134 127.294C70.8349 126.404 70.9234 125.514 70.976 124.625C72.0501 110.413 76.5267 96.6681 84.0285 84.548" fill="#0A053A"/>
<path d="M232.088 248.414C233.913 244.985 236.754 242.205 240.222 240.453C243.691 238.668 247.685 238.04 250.6 236.119C253.515 234.198 254.478 230.519 254.769 226.953C254.965 223.282 254.868 219.601 254.478 215.946C254.157 212.252 253.712 208.547 253.101 204.868L252.189 199.344C251.83 197.514 251.401 195.697 250.992 193.873C249.2 186.612 246.751 179.529 243.674 172.712C242.054 169.289 240.67 165.76 239.532 162.149C238.432 158.427 238.161 154.509 238.738 150.671C239.335 146.893 240.318 143.185 241.671 139.606L243.634 134.346C244.256 132.631 244.775 130.88 245.189 129.103C246.047 125.566 246.399 121.925 246.235 118.289C246.165 116.47 245.962 114.658 245.628 112.869C245.271 111.075 244.794 109.307 244.199 107.577C242.991 104.084 241.348 100.755 239.311 97.6706C237.269 94.5295 234.852 91.6481 232.115 89.0899L232.257 88.9142C238.33 93.6147 243.033 99.8537 245.88 106.984C248.712 114.189 249.301 122.081 247.568 129.626C246.633 133.308 245.411 136.911 243.915 140.403C242.545 143.811 241.527 147.35 240.875 150.964C240.267 154.536 240.411 158.196 241.299 161.709C242.279 165.289 243.463 168.811 244.844 172.256C246.176 175.767 247.424 179.311 248.589 182.887C249.171 184.675 249.753 186.459 250.226 188.276C250.698 190.093 251.313 191.871 251.72 193.702L253.113 199.157L254.36 204.646C255.189 208.31 255.869 212.007 256.376 215.745C256.922 219.513 257.061 223.328 256.791 227.126C256.634 229.09 256.194 231.022 255.485 232.861C254.699 234.788 253.342 236.429 251.596 237.564C249.874 238.554 248.017 239.289 246.083 239.748C244.266 240.216 242.483 240.807 240.745 241.516C239.043 242.241 237.456 243.211 236.036 244.396C234.631 245.625 233.372 247.012 232.286 248.53L232.088 248.414Z" fill="#0A053A"/>
<path d="M185.812 143.772C185.812 143.772 195.453 145.779 201.481 159.468C207.51 173.158 230.787 218.207 224.088 234.959C217.39 251.712 199.041 240.569 199.041 240.569L185.812 143.772Z" fill="white"/>
<path d="M185.812 143.772C185.812 143.772 195.453 145.779 201.481 159.468C207.51 173.158 230.787 218.207 224.088 234.959C217.39 251.712 199.041 240.569 199.041 240.569L185.812 143.772Z" stroke="#0A053A" stroke-width="0.75" stroke-miterlimit="10"/>
<path d="M125.585 118.665C125.585 118.665 107.393 125.548 98.9481 148.264C90.5032 170.979 88.5523 251.8 95.6993 273.139C102.846 294.477 176.918 293.787 200.302 278.644C219.799 262.812 199.003 228.109 195.756 199.887C192.51 171.666 192.51 147.575 180.81 138.631C169.111 129.687 125.585 118.665 125.585 118.665Z" fill="white"/>
<path d="M185.968 144.679C184.667 142.341 182.914 140.285 180.81 138.631C169.117 129.678 125.585 118.665 125.585 118.665C125.585 118.665 107.393 125.549 98.9481 148.262C90.5032 170.976 88.5523 251.8 95.6993 273.133C102.846 294.465 176.918 293.783 200.302 278.638C219.799 262.808 199.003 228.104 195.756 199.881C194.902 192.445 191.749 184.096 191.075 177.43" stroke="#0A053A" stroke-width="0.75" stroke-miterlimit="10"/>
<path d="M167.287 153.487C167.287 153.487 175.477 210.435 171.623 214.329C167.769 218.223 154.278 219.682 149.944 214.815C149.463 202.648 147.535 153.487 147.535 150.567C147.535 147.648 167.287 153.487 167.287 153.487Z" fill="#FF4591"/>
<path d="M182.223 147.979C182.223 147.979 167.49 168.438 141.627 157.073C115.764 145.707 120.346 117.455 124.275 113.883C127.876 122.326 135.079 152.851 182.223 147.979Z" fill="#C62E73"/>
<path d="M185.308 138.016C185.308 138.016 189.674 149.653 172.693 155.472C155.713 161.291 130.485 148.683 125.149 134.137C119.813 119.59 122.237 105.042 132.912 102.134C143.586 99.2248 182.398 127.838 185.303 138.016" fill="#FF4591"/>
<path d="M177.438 136.17C177.438 136.17 146.158 150.655 131.985 113.961C143.715 106.231 177.438 136.17 177.438 136.17Z" fill="#DADFE5"/>
<path d="M189.467 72.1164C189.467 72.1164 195.695 110.961 187.767 131.524C181.538 140.664 153.796 132.667 140.201 117.815C126.606 102.962 122.646 77.8288 128.875 62.4048C135.103 46.9807 163.984 46.4116 173.044 49.8381C182.103 53.2646 188.9 65.8325 189.467 72.1164Z" fill="white"/>
<path d="M136.572 113.297C125.945 98.2516 123.241 76.3559 128.875 62.4048C135.104 46.9819 163.984 46.4116 173.044 49.8381C182.103 53.2646 188.9 65.8325 189.467 72.1164C189.467 72.1164 195.695 110.961 187.767 131.523C183.185 138.247 166.954 135.697 153.286 127.964" stroke="#0A053A" stroke-width="0.75" stroke-miterlimit="10"/>
<path d="M157.104 105.514C157.104 106.223 157.314 106.916 157.709 107.506C158.103 108.096 158.663 108.556 159.319 108.827C159.975 109.099 160.696 109.17 161.392 109.031C162.089 108.893 162.728 108.551 163.23 108.05C163.732 107.548 164.073 106.909 164.212 106.213C164.35 105.518 164.279 104.796 164.008 104.141C163.736 103.486 163.276 102.925 162.686 102.531C162.096 102.137 161.402 101.927 160.692 101.927C159.741 101.927 158.828 102.305 158.155 102.977C157.482 103.65 157.104 104.562 157.104 105.514" fill="#DADFE5"/>
<path d="M177.702 116.679C177.702 116.679 174.724 114.806 173.1 119.117C171.476 123.428 174.588 126.99 177.566 125.489C179.6 123.99 178.107 122.303 178.107 120.428C178.107 118.554 178.515 117.618 177.702 116.679Z" fill="#0E2549"/>
<path d="M178.635 131.062C177.9 131.399 177.089 131.535 176.284 131.458C175.479 131.38 174.709 131.092 174.052 130.621C172.907 131.357 176.917 135.337 178.635 131.062Z" fill="#0E2549"/>
<path d="M191.471 57.9334C191.471 57.9334 195.473 59.4876 193.694 65.267C191.916 71.0464 187.691 71.7123 182.131 69.9297C176.571 68.1471 174.126 75.042 167.897 74.3749C161.667 73.7078 156.334 71.0416 152.331 73.4854C148.329 75.9291 149.886 82.3756 140.769 83.4875C136.104 85.7089 136.546 90.5988 136.989 94.598C137.694 99.0421 138.736 103.426 140.107 107.712C139.596 108.173 138.943 108.447 138.256 108.487C137.568 108.527 136.888 108.332 136.327 107.933C135.215 107.267 133.437 98.8219 130.547 97.2653C127.657 95.7087 124.098 95.7111 122.765 94.8215C121.431 93.932 120.096 83.4875 118.317 82.3768C116.886 81.2001 115.756 79.6989 115.021 77.998C114.286 76.2971 113.968 74.4455 114.093 72.5971C114.536 68.1555 116.761 69.045 117.427 63.7152C118.094 58.3853 118.317 54.3813 120.985 51.9352C123.652 49.489 124.875 41.0471 129.1 41.7166C133.324 42.3862 137.439 42.1566 143.665 38.601C149.891 35.0453 151.23 21.9586 161.676 37.2643C164.335 41.1595 169.681 36.3748 175.017 37.9303C180.354 39.4857 181.519 48.737 181.687 45.931C182.479 32.7929 184.979 48.3222 189.693 51.488C192.786 53.5671 191.472 57.9334 191.472 57.9334" fill="#0E2549"/>
<path d="M133.314 99.819C133.314 99.819 122.588 87.9804 118.2 96.8599C113.813 105.739 136.239 118.563 136.727 112.151C137.215 105.739 133.314 99.819 133.314 99.819Z" fill="white"/>
<path d="M136.616 108.502C136.098 105.424 134.988 102.475 133.348 99.819C133.348 99.819 122.598 87.9817 118.201 96.86C113.804 105.738 136.28 118.563 136.769 112.151" stroke="#0A053A" stroke-width="0.75" stroke-miterlimit="10"/>
<path d="M129.665 101.654C129.665 101.654 125.963 99.4591 125.047 101.841C123.133 106.829 133.248 112.753 133.181 109.229C132.965 106.362 131.716 103.671 129.665 101.654Z" fill="#DADFE5"/>
<path d="M133.181 108.428C133.181 108.428 130.931 99.483 125.674 98.4764C121.433 97.5988 120.731 101.191 121.481 102.23C122.231 103.269 122.854 102.193 122.862 101.19C122.869 100.187 124.546 98.4847 127.37 101.157C129.47 103 131.046 105.364 131.94 108.011C132.224 109.356 132.858 109.407 133.181 108.428Z" fill="#DADFE5"/>
<path d="M145.866 87.58C145.866 87.58 149.215 91.3556 146.423 92.2989C143.913 93.0067 145.866 87.58 145.866 87.58Z" fill="white"/>
<path d="M144.664 107.905C144.664 107.905 148.013 111.679 145.222 112.624C142.717 113.33 144.664 107.905 144.664 107.905Z" fill="white"/>
<path d="M157.828 75.6242C157.828 75.6242 161.177 79.3998 158.385 80.3431C155.874 81.0509 157.828 75.6242 157.828 75.6242Z" fill="white"/>
<path d="M184.554 91.1667C184.504 91.1668 184.453 91.1628 184.404 91.1547C184.089 91.0893 183.811 90.9046 183.63 90.6394C183.448 90.3742 183.376 90.049 183.429 89.732L183.556 88.6799C183.564 88.5237 183.605 88.3709 183.674 88.2307C183.743 88.0905 183.841 87.9659 183.959 87.8642C184.078 87.7625 184.217 87.686 184.366 87.6392C184.515 87.5924 184.673 87.5763 184.828 87.5919C185.143 87.6576 185.42 87.8423 185.601 88.1075C185.783 88.3727 185.855 88.6977 185.802 89.0146L185.682 90.0715C185.661 90.3605 185.535 90.6316 185.327 90.8335C185.119 91.0354 184.844 91.1539 184.554 91.1667Z" fill="#0E2549"/>
<path d="M163.024 93.5578C162.973 93.5579 162.923 93.5539 162.873 93.5458C162.558 93.4801 162.281 93.2954 162.099 93.0303C161.918 92.7652 161.846 92.4401 161.898 92.1231L162.025 91.0686C162.034 90.9127 162.075 90.7603 162.144 90.6204C162.214 90.4806 162.311 90.3563 162.43 90.2549C162.549 90.1535 162.687 90.0772 162.836 90.0305C162.985 89.9837 163.142 89.9676 163.298 89.983C163.612 90.0492 163.889 90.2341 164.07 90.4992C164.251 90.7642 164.323 91.0889 164.271 91.4057L164.146 92.4626C164.125 92.7506 163.999 93.021 163.792 93.2227C163.586 93.4245 163.312 93.5436 163.024 93.5578Z" fill="#0E2549"/>
<path d="M166.051 86.9762C165.89 87.0285 165.72 87.0429 165.552 87.018C163.16 86.767 160.752 87.3229 158.713 88.5974C158.497 88.7385 158.239 88.7978 157.984 88.7647C157.728 88.7316 157.494 88.6082 157.322 88.4169C157.241 88.3298 157.181 88.2264 157.145 88.1138C157.109 88.0012 157.098 87.8821 157.113 87.7648C157.128 87.6475 157.168 87.5348 157.23 87.4345C157.293 87.3343 157.377 87.2489 157.476 87.1842C159.953 85.6085 162.898 84.9335 165.814 85.2725C165.937 85.2833 166.056 85.3182 166.165 85.3752C166.274 85.4321 166.371 85.51 166.45 85.6044C166.529 85.6988 166.589 85.8078 166.626 85.9252C166.662 86.0427 166.676 86.1662 166.665 86.2887C166.636 86.4489 166.564 86.598 166.455 86.7194C166.347 86.8408 166.207 86.9297 166.051 86.9762Z" fill="#0E2549"/>
<path d="M175.564 107.905C174.813 107.895 174.065 107.823 173.326 107.689C172.913 107.62 172.608 107.028 172.659 106.374C172.709 105.72 173.071 105.237 173.491 105.303C174.679 105.561 175.91 105.551 177.094 105.274C177.059 105.127 177.003 104.928 176.954 104.744C176.189 101.912 175.756 99.0004 175.665 96.0685C175.625 95.4086 175.928 94.8227 176.34 94.7534C176.753 94.684 177.121 95.173 177.161 95.8294C177.237 98.5162 177.629 101.185 178.328 103.78C178.654 104.631 178.71 105.562 178.487 106.446C178.365 106.847 178.037 107.905 175.564 107.905Z" fill="#0E2549"/>
<path d="M187.374 84.7859C187.211 84.8142 187.043 84.7891 186.895 84.7142C185.797 84.237 184.602 84.0211 183.406 84.0833C182.209 84.1455 181.044 84.4843 180.001 85.0728C179.88 85.1362 179.746 85.1707 179.61 85.1738C179.474 85.1768 179.338 85.1483 179.215 85.0904C179.092 85.0324 178.983 84.9468 178.899 84.84C178.814 84.7333 178.755 84.6083 178.727 84.475C178.616 84.1887 178.602 83.8737 178.689 83.579C178.776 83.2844 178.957 83.0265 179.205 82.8455C180.47 82.1143 181.891 81.695 183.351 81.6222C184.81 81.5494 186.266 81.8253 187.597 82.427C187.853 82.5927 188.046 82.8399 188.143 83.1285C188.241 83.4171 188.238 83.7302 188.136 84.0171C188.09 84.2026 187.996 84.3722 187.861 84.5076C187.727 84.6431 187.558 84.7393 187.372 84.7859" fill="#0E2549"/>
<path d="M91.9135 190.399C91.9135 190.399 95.8847 258.378 98.1814 263.623C100.478 268.868 105.909 278.79 111.126 280.649C114.596 282.069 117.655 284.335 120.023 287.24C120.023 287.24 99.7041 283.813 95.2903 272.983C89.2042 244.319 91.9135 190.399 91.9135 190.399Z" fill="#4AEAFF"/>
<path d="M122.415 119.86C121.891 122.628 121.654 125.442 121.707 128.258C122.017 131.066 107.758 142.335 106.419 146.706C105.081 151.077 93.7076 167.683 93.7076 167.683C93.7076 167.683 97.2542 148.435 105.271 135.394C113.287 122.354 122.415 119.86 122.415 119.86Z" fill="#4AEAFF"/>
<path d="M155.624 214.568C155.624 214.568 151.324 213.474 149.688 215.792C148.051 218.11 148.202 231.308 152.725 231.049C157.247 230.789 155.624 214.568 155.624 214.568Z" fill="#DADFE5"/>
<path d="M216.764 216.96C216.764 216.96 186.879 208.899 153.982 213.164C153.982 213.164 151.35 223.685 152.708 230.391C153.704 234.393 206.186 252.761 220.677 239.407C225.94 234.555 225.469 219.505 216.764 216.961" fill="white"/>
<path d="M221.696 239.407C207.242 252.761 154.897 234.396 153.903 230.391C152.55 223.681 155.173 213.164 155.173 213.164C169.752 211.418 184.493 211.529 199.043 213.495" stroke="#0A053A" stroke-width="0.75" stroke-miterlimit="10"/>
<path d="M191.069 173.661C191.069 173.661 193.627 175.288 195.692 183.264C197.756 191.24 199.03 189.398 199.878 197.307C200.726 205.216 203.515 212.065 202.224 214.253C201.469 215.488 200.378 216.483 199.078 217.12C197.778 217.757 196.323 218.011 194.884 217.852C191.601 217.5 167.949 214.535 164.917 214.957C161.885 215.379 153.515 216.745 153.515 216.745L154.233 213.27L183.13 211.996C183.13 211.996 200.549 216.42 198.516 211.24C197.503 206.659 191.069 173.661 191.069 173.661Z" fill="#4AEAFF"/>
<path d="M177.389 222.799C177.389 222.799 185.837 212.767 188.502 214.52C191.167 216.272 185.935 219.96 185.152 222.509C184.774 223.728 197.773 219.897 198.884 221.76C199.995 223.623 189.923 226.466 189.923 226.466C189.923 226.466 199.567 225.344 198.894 227.041C198.22 228.738 190.101 230.001 188.032 230.062C188.032 230.062 198.189 228.986 197.23 230.91C196.271 232.834 187.134 234.003 187.134 234.003C187.134 234.003 193.872 233.618 192.937 235.292C192.002 236.965 181.215 239.237 175.69 237.725C171.997 235.875 170.727 227.713 177.389 222.799Z" fill="white"/>
<path d="M177.389 222.799C177.389 222.799 185.837 212.767 188.502 214.52C191.167 216.272 185.935 219.96 185.152 222.509C184.774 223.728 197.773 219.897 198.884 221.76C199.995 223.623 189.923 226.466 189.923 226.466C189.923 226.466 199.567 225.344 198.894 227.041C198.22 228.738 190.101 230.001 188.032 230.062C188.032 230.062 198.189 228.986 197.23 230.91C196.271 232.834 187.134 234.003 187.134 234.003C187.134 234.003 193.872 233.618 192.937 235.292C192.002 236.965 181.215 239.237 175.69 237.725C171.997 235.875 170.727 227.713 177.389 222.799Z" stroke="#0A053A" stroke-width="0.75" stroke-miterlimit="10"/>
<path d="M171.099 222.254C171.099 222.254 174.651 219.76 177.954 223.748C181.257 227.737 182.778 236.462 177.954 239.452C176.587 240.293 174.986 240.673 173.386 240.538C171.786 240.402 170.272 239.758 169.065 238.7L171.099 222.254Z" fill="#DADFE5"/>
<path d="M123.372 164.664C123.372 164.664 123.372 145.685 107.133 146.173C90.8943 146.66 90.8967 179.75 94.3405 206.029C97.7842 232.308 97.7854 243.255 110.577 247.635C121.807 251.48 150.347 251.45 169.468 244.144C171.971 243.212 174.099 241.487 175.528 239.233C176.958 236.979 177.61 234.319 177.386 231.66C177.011 227.652 175.558 223.53 171.422 222.167C162.57 219.247 135.178 224.276 129.765 217.949C124.351 211.622 123.372 164.664 123.372 164.664Z" fill="white"/>
<path d="M98.5964 151.611C92.1742 162.499 92.8309 185.757 95.3632 205.263C98.7806 231.535 98.7806 242.482 111.469 246.861C122.608 250.705 150.92 250.674 169.887 243.37C172.377 242.427 174.491 240.699 175.908 238.446C177.326 236.194 177.97 233.541 177.742 230.89C177.371 226.882 175.929 222.76 171.826 221.398C163.045 218.48 135.873 223.507 130.51 217.182C125.146 210.858 124.17 163.906 124.17 163.906" fill="white"/>
<path d="M98.5964 151.611C92.1742 162.499 92.8309 185.757 95.3632 205.263C98.7806 231.535 98.7806 242.482 111.469 246.861C122.608 250.705 150.92 250.674 169.887 243.37C172.377 242.427 174.491 240.699 175.908 238.446C177.326 236.194 177.97 233.541 177.742 230.89C177.371 226.882 175.929 222.76 171.826 221.398C163.045 218.48 135.873 223.507 130.51 217.182C125.146 210.858 124.17 163.906 124.17 163.906" stroke="#0A053A" stroke-width="0.75" stroke-miterlimit="10"/>
<path d="M128.396 220.354C128.396 220.354 118.357 222.283 116.683 232.244C115.68 229.352 117.353 219.389 128.396 220.354Z" fill="#DADFE5"/>
<path d="M126.004 218.924C126.004 218.924 119.177 217.852 115.277 222.68C114.789 221.875 118.933 215.439 126.004 218.924Z" fill="#DADFE5"/>
<path d="M123.882 161.705C123.882 161.705 121.627 162.104 121.079 169.254C120.531 176.405 123.927 182.927 121.079 189.236C118.231 195.545 121.571 214.571 125.968 217.68C130.365 220.788 130.43 220.169 132.281 222.162C134.133 224.155 150.733 225.629 157.802 224.364C164.872 223.099 168.209 222.39 172.441 224.833C173.644 225.481 174.703 226.366 175.554 227.435C176.405 228.503 177.031 229.733 177.393 231.05C177.393 231.05 179.307 218.371 158.178 220.895C136.741 221.105 128.347 222.07 127.682 209.545C124.298 196.377 123.882 161.705 123.882 161.705Z" fill="#4AEAFF"/>
<path d="M97.2961 224.114C97.2961 224.114 115.658 221.386 119.754 234.456C123.85 247.526 121.998 248.982 121.998 248.982C121.998 248.982 109.123 247.702 103.74 242.426C98.3571 237.15 97.2961 224.114 97.2961 224.114Z" fill="#4AEAFF"/>
<path d="M203.754 244.359C203.754 244.359 203.861 232.802 209.569 230.307C215.278 227.812 225.285 228.889 225.285 228.889C225.285 228.889 225.185 237.722 218.724 242.138C212.262 246.553 203.754 245.199 203.754 245.199V244.359Z" fill="#4AEAFF"/>
</svg>
