<svg width="93" height="93" viewBox="0 0 93 93" fill="none" xmlns="http://www.w3.org/2000/svg">
<path opacity="0.5" d="M40.1577 13.7841H39.2266V40.1177H40.1577V13.7841Z" fill="#DF0A56"/>
<path opacity="0.5" d="M42.845 13.7841H41.9138V40.1177H42.845V13.7841Z" fill="#DF0A56"/>
<path opacity="0.5" d="M45.5403 13.7841H44.6091V40.1177H45.5403V13.7841Z" fill="#DF0A56"/>
<path opacity="0.5" d="M48.2358 13.7841H47.3047V40.1177H48.2358V13.7841Z" fill="#DF0A56"/>
<path opacity="0.5" d="M50.9312 13.7841H50V40.1177H50.9312V13.7841Z" fill="#DF0A56"/>
<path d="M36.8334 48.0775L42.8613 42.0588C43.3506 41.5443 43.9553 41.1533 44.6256 40.9179C45.2958 40.6825 46.0126 40.6096 46.7166 40.705C47.5467 40.7913 48.3332 41.1184 48.9792 41.6459C49.6251 42.1735 50.1022 42.8784 50.3514 43.6736C52.6302 42.3116 54.8274 42.3116 56.6571 44.3423C58.2906 46.1283 58.1681 48.1509 56.8858 50.206C57.6655 50.4477 58.3597 50.9071 58.8865 51.5299C59.4133 52.1527 59.7507 52.913 59.8589 53.721C59.9732 54.4958 59.8885 55.2869 59.6127 56.0201C59.337 56.7533 58.8793 57.4046 58.2825 57.9128C58.9692 58.4229 59.6089 58.9934 60.1938 59.6173C61.4353 61.1668 61.1739 63.2546 59.6139 64.9183C58.8624 65.7338 58.0701 66.4678 57.2942 67.2426C53.1693 71.3773 49.0363 75.5366 44.8625 79.6387C43.4313 81.1312 41.6898 82.2924 39.7608 83.0405C37.8317 83.7887 35.7619 84.1057 33.6969 83.9692C30.5461 83.7561 27.5335 82.5961 25.0552 80.6418C21.5597 78.1245 19.0503 74.4714 17.9572 70.309C16.7075 65.3668 17.8919 60.9956 21.1509 57.0891C24.1649 53.4682 27.0727 49.7493 30.005 46.0876C30.1918 45.824 30.4357 45.6058 30.7185 45.4491C31.0012 45.2924 31.3157 45.2012 31.6386 45.1823C33.8684 45.0274 35.502 45.9081 36.8334 48.0775ZM50.2289 70.9125C52.6793 68.4659 55.1296 66.0193 57.5229 63.6216C57.8455 63.2947 58.1205 62.924 58.3397 62.5206C58.5182 62.2434 58.5893 61.9107 58.5396 61.5849C58.49 61.2591 58.3231 60.9626 58.0701 60.7509C57.8791 60.5667 57.6515 60.4246 57.4019 60.3338C57.1524 60.2431 56.8865 60.2057 56.6216 60.2242C56.3566 60.2426 56.0986 60.3165 55.864 60.4409C55.6295 60.5654 55.4239 60.7377 55.2603 60.9466C54.2965 61.8682 53.3572 62.8224 52.4179 63.7684C50.9395 65.2445 49.4774 66.7206 47.9908 68.1804C47.857 68.3488 47.6796 68.4776 47.4779 68.5529C47.2762 68.6282 47.0578 68.6471 46.8461 68.6077C46.6344 68.5683 46.4374 68.472 46.2765 68.3292C46.1155 68.1863 45.9966 68.0024 45.9325 67.7971C45.8646 67.5424 45.875 67.2732 45.9624 67.0245C46.0498 66.7757 46.2101 66.559 46.4226 66.4026L56.4365 56.3715C56.6293 56.1913 56.812 56.0008 56.9838 55.8006C57.3383 55.4137 57.5285 54.9045 57.5142 54.3803C57.4999 53.8562 57.2823 53.358 56.9073 52.991C56.5322 52.6239 56.029 52.4166 55.5039 52.4128C54.9787 52.4091 54.4726 52.6091 54.0923 52.9707C53.9371 53.1012 53.8064 53.248 53.6676 53.3866L47.1985 59.8375C45.9325 61.1097 44.6665 62.382 43.3841 63.6461C43.2857 63.7646 43.1647 63.8623 43.028 63.9336C42.8914 64.0049 42.7419 64.0482 42.5883 64.0611C42.4347 64.0741 42.28 64.0563 42.1333 64.0088C41.9867 63.9613 41.851 63.8851 41.7342 63.7847C41.6005 63.6693 41.4946 63.5253 41.4244 63.3634C41.3541 63.2015 41.3213 63.0258 41.3284 62.8495C41.3354 62.6732 41.3822 62.5008 41.4652 62.345C41.5481 62.1892 41.6652 62.0541 41.8077 61.9497L49.0853 54.6344C50.9558 52.7586 52.8426 50.8911 54.7131 49.0153C54.9538 48.8156 55.1498 48.5677 55.2886 48.2877C55.4274 48.0076 55.5058 47.7016 55.5188 47.3894C55.5317 47.0772 55.479 46.7657 55.3639 46.4752C55.2489 46.1846 55.074 45.9213 54.8508 45.7024C54.6275 45.4834 54.3607 45.3137 54.0676 45.2041C53.7745 45.0945 53.4617 45.0475 53.1493 45.0661C52.8369 45.0848 52.5319 45.1686 52.254 45.3122C51.976 45.4559 51.7314 45.6561 51.5357 45.9L38.8999 58.4919C38.7357 58.6679 38.5611 58.834 38.3771 58.9893C38.2214 59.1195 38.0336 59.2057 37.8332 59.2387C37.6328 59.2717 37.4272 59.2505 37.2378 59.1772C37.0484 59.1039 36.8822 58.9812 36.7565 58.822C36.6308 58.6627 36.5501 58.4726 36.523 58.2717C36.5318 57.8045 36.7187 57.3582 37.0458 57.0239C40.3701 53.6557 43.7272 50.3202 47.076 46.9765C47.2688 46.7964 47.4515 46.6058 47.6233 46.4056C47.9551 46.0197 48.1375 45.5278 48.1375 45.0192C48.1375 44.5106 47.9551 44.0187 47.6233 43.6328C47.2678 43.284 46.7993 43.0734 46.3021 43.039C45.8049 43.0046 45.3117 43.1487 44.9115 43.4452C44.735 43.5738 44.571 43.7185 44.4214 43.8775C41.9057 46.3784 39.3954 48.8876 36.8906 51.4049C36.7279 51.5523 36.5875 51.7226 36.474 51.9105C35.2896 54.0961 34.1216 56.2981 32.9209 58.4756C32.8116 58.6308 32.7529 58.8159 32.7529 59.0056C32.7529 59.1954 32.8116 59.3805 32.9209 59.5357C33.9189 61.3919 34.2826 63.5227 33.9568 65.6041C33.631 67.6855 32.6334 69.6038 31.1158 71.0674C30.9472 71.2573 30.7213 71.3871 30.4722 71.4371C30.2231 71.4871 29.9644 71.4547 29.7354 71.3447C28.9186 70.9696 28.8206 70.0562 29.5394 69.2814C32.341 66.2884 32.243 62.227 30.3153 59.919C30.1341 59.6959 30.0339 59.4181 30.0309 59.1308C30.0279 58.8435 30.1224 58.5637 30.299 58.3369C31.2547 56.7058 32.2103 55.0014 33.117 53.2969C33.6606 52.2781 34.1407 51.2268 34.5545 50.1489C34.7266 49.7281 34.7266 49.2567 34.5545 48.8359C34.3456 48.4601 34.0453 48.1429 33.6813 47.9134C33.3173 47.6839 32.9013 47.5496 32.4717 47.5229C31.6957 47.4413 31.4997 48.1101 31.1566 48.5342C28.4367 51.886 25.7821 55.2868 22.9887 58.5979C20.1952 61.909 19.2396 65.481 20.2606 69.6076C21.2625 73.5085 23.6744 76.9014 27.0318 79.1331C32.439 82.9416 38.7937 82.3952 43.4739 77.7059C45.7338 75.4441 47.9936 73.1824 50.2534 70.9206L50.2289 70.9125Z" fill="#404040"/>
<path d="M33.7613 34.2694C35.8497 28.8826 33.1691 22.8253 27.774 20.7401C22.3789 18.6549 16.3123 21.3314 14.2238 26.7182C12.1354 32.1049 14.816 38.1622 20.2111 40.2474C25.6062 42.3326 31.6728 39.6562 33.7613 34.2694Z" stroke="#404040" stroke-width="2.99174" stroke-miterlimit="10"/>
<path d="M24.0586 30.4699V21.972C25.5909 21.9718 27.0949 22.3846 28.4118 23.1669C29.7287 23.9492 30.8096 25.072 31.5405 26.4167L24.0586 30.4699Z" fill="#DF0A56"/>
<path d="M59.5158 72.0542C62.154 75.5528 58.2334 79.5 54.7294 76.8332C52.0666 73.3427 56.0199 69.3955 59.5158 72.0542Z" stroke="#DF0A56" stroke-miterlimit="10"/>
<path d="M57.441 22.3636C59.4422 24.9814 56.4772 27.95 53.8471 25.9519C51.846 23.3259 54.8028 20.3655 57.441 22.3636Z" stroke="#DF0A56" stroke-miterlimit="10"/>
<path d="M43.1226 61.8192C45.8247 61.8192 48.0152 59.6321 48.0152 56.9341C48.0152 54.2362 45.8247 52.0491 43.1226 52.0491C40.4205 52.0491 38.23 54.2362 38.23 56.9341C38.23 59.6321 40.4205 61.8192 43.1226 61.8192Z" fill="#DF0A56"/>
<path d="M51.6827 65.8235C54.3848 65.8235 56.5753 63.6364 56.5753 60.9384C56.5753 58.2405 54.3848 56.0533 51.6827 56.0533C48.9805 56.0533 46.79 58.2405 46.79 60.9384C46.79 63.6364 48.9805 65.8235 51.6827 65.8235Z" fill="#DF0A56"/>
<path d="M42.412 56.4121C46.4945 56.4121 49.804 53.1077 49.804 49.0315C49.804 44.9553 46.4945 41.6509 42.412 41.6509C38.3295 41.6509 35.02 44.9553 35.02 49.0315C35.02 53.1077 38.3295 56.4121 42.412 56.4121Z" fill="#DF0A56"/>
<path d="M43.0737 48.0448C47.1561 48.0448 50.4657 44.7404 50.4657 40.6642C50.4657 36.588 47.1561 33.2836 43.0737 33.2836C38.9912 33.2836 35.6816 36.588 35.6816 40.6642C35.6816 44.7404 38.9912 48.0448 43.0737 48.0448Z" fill="#DF0A56"/>
<path d="M40.2313 42.2626C40.233 43.0404 40.0034 43.8012 39.5718 44.4487C39.1402 45.0962 38.5259 45.6013 37.8067 45.9C37.0874 46.1988 36.2956 46.2778 35.5313 46.1271C34.7671 45.9763 34.0648 45.6026 33.5134 45.0532C32.962 44.5038 32.5862 43.8033 32.4337 43.0406C32.2811 42.2779 32.3586 41.4871 32.6563 40.7683C32.9541 40.0496 33.4587 39.4352 34.1063 39.0029C34.7539 38.5706 35.5154 38.3398 36.2944 38.3398C37.3371 38.3398 38.3373 38.7529 39.0753 39.4883C39.8134 40.2237 40.2292 41.2215 40.2313 42.2626Z" fill="#DF0A56"/>
<path d="M47.7703 32.9247C47.7703 33.8425 47.4977 34.7397 46.987 35.5028C46.4763 36.2659 45.7505 36.8607 44.9012 37.2119C44.052 37.5631 43.1175 37.655 42.216 37.4759C41.3144 37.2969 40.4863 36.8549 39.8363 36.206C39.1864 35.557 38.7437 34.7302 38.5644 33.83C38.3851 32.9299 38.4771 31.9968 38.8289 31.1489C39.1806 30.301 39.7763 29.5762 40.5406 29.0664C41.3049 28.5565 42.2035 28.2843 43.1227 28.2843C44.3546 28.2865 45.5355 28.776 46.4066 29.6458C47.2777 30.5156 47.7681 31.6947 47.7703 32.9247Z" fill="#DF0A56"/>
<path d="M53.9043 30.47C53.9043 31.3878 53.6317 32.285 53.121 33.0481C52.6103 33.8112 51.8845 34.406 51.0353 34.7572C50.186 35.1084 49.2516 35.2003 48.35 35.0212C47.4485 34.8422 46.6203 34.4002 45.9704 33.7513C45.3204 33.1023 44.8778 32.2754 44.6984 31.3753C44.5191 30.4751 44.6111 29.5421 44.9629 28.6942C45.3147 27.8463 45.9104 27.1215 46.6747 26.6116C47.4389 26.1018 48.3375 25.8296 49.2567 25.8296C49.8673 25.8285 50.4722 25.9478 51.0365 26.1806C51.6009 26.4135 52.1137 26.7552 52.5454 27.1863C52.9772 27.6175 53.3195 28.1294 53.5527 28.6929C53.7859 29.2564 53.9054 29.8603 53.9043 30.47Z" fill="#DF0A56"/>
<path d="M52.5323 59.079C52.5372 59.9298 52.2885 60.7629 51.8179 61.4722C51.3473 62.1816 50.6761 62.7352 49.8896 63.0626C49.103 63.3901 48.2367 63.4766 47.4008 63.3112C46.5649 63.1458 45.7972 62.7359 45.1952 62.1337C44.5932 61.5315 44.1841 60.7641 44.0201 59.9292C43.856 59.0943 43.9443 58.2295 44.2738 57.4448C44.6033 56.6601 45.159 55.991 45.8704 55.5225C46.5817 55.054 47.4165 54.8073 48.2687 54.8137C49.3982 54.8223 50.479 55.2747 51.2769 56.0729C52.0749 56.8712 52.5259 57.9511 52.5323 59.079Z" fill="#DF0A56"/>
<path d="M77.7466 61.0444C75.5163 64.403 72.1166 66.8152 68.2064 67.8133C64.0734 68.8409 60.4387 67.8133 57.1796 65.0894C53.9206 62.3656 50.4574 59.7069 47.1085 56.9749C46.6838 56.6242 46.014 56.4366 46.0875 55.6537C46.1172 55.2255 46.2529 54.8113 46.4824 54.4483C46.712 54.0854 47.0281 53.785 47.4026 53.5741C47.8172 53.4105 48.2785 53.4105 48.6931 53.5741L48.8401 53.4273L55.2193 59.7885C55.3165 59.9316 55.4442 60.0516 55.5933 60.1397C55.7423 60.2279 55.909 60.2821 56.0815 60.2985C56.254 60.3148 56.4279 60.293 56.5909 60.2344C56.7539 60.1759 56.902 60.0821 57.0245 59.9598C57.147 59.8375 57.2409 59.6897 57.2996 59.5269C57.3582 59.3641 57.3801 59.1904 57.3637 59.0183C57.3473 58.8461 57.293 58.6796 57.2047 58.5308C57.1164 58.382 56.9963 58.2545 56.8529 58.1574L50.4819 51.7962L50.5554 51.731L50.4574 51.6739C50.2894 51.5754 50.1356 51.4547 50 51.315L48.5461 49.8634L42.4283 43.7632C42.2689 43.6111 42.124 43.4445 41.9954 43.2657C41.6978 42.8658 41.5539 42.3725 41.5899 41.8756C41.6259 41.3787 41.8393 40.9112 42.1914 40.5581C42.5759 40.2259 43.0674 40.043 43.5759 40.043C44.0844 40.043 44.5759 40.2259 44.9603 40.5581C45.1607 40.7269 45.3516 40.9066 45.5321 41.0964C48.881 44.4401 52.2217 47.7919 55.595 51.1112C55.9309 51.4372 56.3766 51.6263 56.8447 51.6413C57.0475 51.6151 57.2395 51.5348 57.4003 51.4087C57.5611 51.2827 57.6849 51.1156 57.7585 50.9252C57.8321 50.7347 57.8529 50.528 57.8185 50.3267C57.7842 50.1255 57.6961 49.9372 57.5635 49.7818C57.4081 49.598 57.2417 49.4237 57.0653 49.2599C52.8615 45.068 48.6604 40.8735 44.4621 36.6762C44.2274 36.4784 44.0359 36.2345 43.8997 35.9597C43.7634 35.6848 43.6853 35.3849 43.6702 35.0786C43.655 34.7724 43.7032 34.4662 43.8116 34.1793C43.9201 33.8924 44.0865 33.6309 44.3006 33.411C44.5147 33.1911 44.7718 33.0175 45.0559 32.9011C45.3401 32.7847 45.6451 32.7279 45.9522 32.7343C46.2593 32.7407 46.5617 32.8102 46.8408 32.9383C47.1198 33.0665 47.3694 33.2506 47.5741 33.4793C49.4527 35.3496 51.3286 37.2226 53.2018 39.0983L60.553 46.3892C60.6576 46.5314 60.7929 46.6483 60.9489 46.7312C61.1049 46.814 61.2776 46.8607 61.4542 46.8678C61.6308 46.8748 61.8067 46.8421 61.9688 46.7719C62.131 46.7018 62.2752 46.596 62.3908 46.4626C62.499 46.3455 62.5821 46.2074 62.6348 46.057C62.6875 45.9065 62.7088 45.7469 62.6973 45.588C62.6858 45.429 62.6418 45.2741 62.568 45.1328C62.4942 44.9914 62.3922 44.8667 62.2683 44.7663C60.9777 43.3962 59.7035 42.1403 58.4293 40.868L51.9603 34.4253C51.8214 34.2866 51.6744 34.148 51.5519 34.0012C51.2071 33.6192 51.0209 33.1204 51.0313 32.6062C51.0417 32.0921 51.2479 31.6012 51.6079 31.2334C51.968 30.8656 52.4548 30.6486 52.9694 30.6265C53.4839 30.6043 53.9876 30.7787 54.378 31.1142C54.5822 31.2773 54.7619 31.473 54.9498 31.6525C58.2986 34.9962 61.6475 38.3426 64.9964 41.6917C65.1531 41.9038 65.3701 42.0639 65.6192 42.1512C65.8684 42.2385 66.138 42.2489 66.3931 42.181C66.595 42.1139 66.7753 41.9941 66.9152 41.834C67.0551 41.6739 67.1496 41.4793 67.1887 41.2704C67.2279 41.0615 67.2104 40.846 67.138 40.6462C67.0656 40.4464 66.9409 40.2695 66.777 40.134C65.3149 38.6579 63.8365 37.19 62.3581 35.722C61.4188 34.776 60.455 33.8463 59.532 32.8839C58.609 31.9216 58.5764 30.8532 59.336 30.0785C59.543 29.8151 59.8404 29.6377 60.1708 29.5805C60.5011 29.5232 60.841 29.5903 61.1248 29.7686C61.525 29.9895 61.8933 30.2639 62.2193 30.5841C64.6588 33.0035 67.1092 35.4338 69.5704 37.875L76.358 44.6521C80.9974 49.3007 81.561 55.6292 77.7466 61.0444Z" fill="white"/>
<path d="M78.2531 43.2249C74.1691 39.0575 69.9789 34.9472 65.8459 30.8206C65.0291 30.0458 64.3104 29.2548 63.5099 28.5045C61.8763 26.9468 59.7526 26.6858 58.2007 27.9173C57.5799 28.5082 57.0089 29.1492 56.4936 29.8338C55.9864 29.2352 55.3347 28.7758 54.6 28.4989C53.8653 28.2221 53.0721 28.137 52.2953 28.2517C51.4867 28.3616 50.7262 28.6992 50.1028 29.2249C49.4793 29.7506 49.0187 30.4427 48.7749 31.2202C46.7247 29.9398 44.6909 29.8501 42.9021 31.4567C40.8683 33.2754 40.8683 35.4773 42.2323 37.7527C41.4399 38.0046 40.7386 38.4823 40.2147 39.1271C39.6908 39.772 39.3672 40.5557 39.2837 41.3818C39.1915 42.0797 39.2662 42.7895 39.5019 43.453C39.7376 44.1164 40.1275 44.7146 40.6396 45.1985C42.6326 47.2047 44.6419 49.1946 46.6757 51.2253C44.4949 52.571 43.6046 54.2102 43.7516 56.4121C43.7678 56.7342 43.8571 57.0484 44.0128 57.3309C44.1684 57.6135 44.3863 57.857 44.6501 58.0432C48.3175 60.9873 52.0257 63.8906 55.6196 66.8999C59.5321 70.1621 63.9101 71.3446 68.8599 70.0968C73.0536 69.0071 76.7325 66.4852 79.2577 62.969C81.2002 60.5031 82.3556 57.5111 82.5739 54.3814C82.7106 52.3199 82.3947 50.2534 81.6484 48.3264C80.9021 46.3994 79.7433 44.6583 78.2531 43.2249ZM77.7467 61.0444C75.5164 64.403 72.1167 66.8152 68.2065 67.8133C64.0735 68.8409 60.4387 67.8133 57.1797 65.0894C53.9207 62.3655 50.4575 59.7069 47.1086 56.9748C46.6839 56.6242 46.0141 56.4366 46.0876 55.6537C46.1173 55.2255 46.253 54.8113 46.4825 54.4483C46.7121 54.0854 47.0282 53.785 47.4027 53.5741C47.8172 53.4105 48.2786 53.4105 48.6932 53.5741L48.8402 53.4273L55.2194 59.7884C55.3166 59.9316 55.4443 60.0516 55.5934 60.1397C55.7424 60.2279 55.9091 60.2821 56.0816 60.2985C56.2541 60.3148 56.428 60.293 56.591 60.2344C56.754 60.1759 56.9021 60.0821 57.0246 59.9598C57.1471 59.8375 57.241 59.6896 57.2997 59.5269C57.3583 59.3641 57.3802 59.1904 57.3638 59.0182C57.3474 58.846 57.2931 58.6796 57.2048 58.5308C57.1165 58.382 56.9964 58.2545 56.853 58.1574L50.482 51.7962L50.5555 51.731L50.4575 51.6739C50.2895 51.5753 50.1357 51.4546 50.0001 51.315L48.5462 49.8634L42.4284 43.7632C42.269 43.611 42.1241 43.4445 41.9955 43.2657C41.6979 42.8658 41.554 42.3725 41.59 41.8756C41.626 41.3786 41.8394 40.9111 42.1915 40.5581C42.576 40.2258 43.0675 40.043 43.576 40.043C44.0845 40.043 44.576 40.2258 44.9604 40.5581C45.1608 40.7268 45.3517 40.9065 45.5322 41.0964C48.8811 44.4401 52.2218 47.7919 55.5951 51.1111C55.9309 51.4372 56.3766 51.6263 56.8448 51.6412C57.0476 51.6151 57.2395 51.5348 57.4004 51.4087C57.5612 51.2827 57.685 51.1156 57.7586 50.9252C57.8322 50.7347 57.853 50.528 57.8186 50.3267C57.7843 50.1255 57.6962 49.9372 57.5636 49.7818C57.4082 49.598 57.2418 49.4237 57.0654 49.2599C52.8616 45.068 48.6605 40.8734 44.4622 36.6762C44.2275 36.4784 44.036 36.2345 43.8998 35.9596C43.7635 35.6848 43.6854 35.3849 43.6703 35.0786C43.6551 34.7723 43.7033 34.4662 43.8117 34.1793C43.9202 33.8924 44.0866 33.6309 44.3007 33.411C44.5147 33.1911 44.7719 33.0175 45.056 32.9011C45.3401 32.7847 45.6452 32.7279 45.9523 32.7343C46.2594 32.7407 46.5618 32.8102 46.8409 32.9383C47.1199 33.0665 47.3695 33.2506 47.5742 33.4793C49.4528 35.3495 51.3287 37.2226 53.2019 39.0983L60.5531 46.3892C60.6577 46.5314 60.793 46.6483 60.949 46.7312C61.105 46.814 61.2777 46.8607 61.4543 46.8678C61.6309 46.8748 61.8068 46.8421 61.9689 46.7719C62.1311 46.7018 62.2753 46.596 62.3909 46.4626C62.4991 46.3454 62.5822 46.2074 62.6349 46.057C62.6876 45.9065 62.7088 45.7469 62.6974 45.5879C62.6859 45.429 62.6419 45.2741 62.5681 45.1327C62.4943 44.9914 62.3923 44.8667 62.2684 44.7663C60.9778 43.3962 59.7036 42.1402 58.4294 40.868L51.9604 34.4253C51.8215 34.2866 51.6745 34.148 51.552 34.0012C51.2072 33.6192 51.021 33.1204 51.0314 32.6062C51.0418 32.0921 51.248 31.6012 51.608 31.2334C51.9681 30.8656 52.4549 30.6486 52.9694 30.6265C53.484 30.6043 53.9877 30.7787 54.3781 31.1142C54.5823 31.2773 54.762 31.473 54.9499 31.6525C58.2987 34.9962 61.6476 38.3426 64.9965 41.6917C65.1532 41.9038 65.3702 42.0639 65.6193 42.1512C65.8684 42.2385 66.1381 42.2489 66.3932 42.181C66.5951 42.1139 66.7754 41.9941 66.9153 41.834C67.0552 41.6739 67.1497 41.4793 67.1888 41.2704C67.228 41.0615 67.2105 40.846 67.1381 40.6462C67.0657 40.4464 66.941 40.2695 66.7771 40.134C65.315 38.6579 63.8366 37.1899 62.3582 35.722C61.4189 34.776 60.4551 33.8462 59.5321 32.8839C58.6091 31.9216 58.5764 30.8532 59.3361 30.0785C59.5431 29.8151 59.8405 29.6377 60.1708 29.5805C60.5012 29.5232 60.8411 29.5902 61.1249 29.7686C61.5251 29.9895 61.8933 30.2639 62.2194 30.5841C64.6589 33.0035 67.1093 35.4338 69.5705 37.875L76.3581 44.6521C80.9975 49.3007 81.5611 55.6292 77.7467 61.0444Z" fill="#404040"/>
<path d="M50.9232 13.784H39.2348C38.1105 13.784 37.0322 13.3381 36.2372 12.5443C35.4422 11.7505 34.9956 10.674 34.9956 9.55139H55.1623C55.1623 10.674 54.7157 11.7505 53.9207 12.5443C53.1257 13.3381 52.0475 13.784 50.9232 13.784V13.784Z" stroke="#DF0A56" stroke-miterlimit="10"/>
</svg>
