<svg width="363" height="107" viewBox="0 0 363 107" fill="none" xmlns="http://www.w3.org/2000/svg">
<path d="M41.2511 30.1664C43.116 30.1664 44.5812 30.6992 45.5802 31.7648C46.5126 32.897 46.9788 34.3623 46.779 36.1605L43.9818 71.7254C43.782 73.5903 43.116 75.0555 41.9837 76.1877C40.8515 77.3199 39.3197 77.8527 37.5214 77.8527C35.7232 77.8527 34.258 77.3199 33.2589 76.1877C32.2599 75.1221 31.7937 73.6569 31.9935 71.792L33.0591 58.4718H13.9445L12.0131 76.3875C11.8799 78.2524 11.2139 79.7176 10.0151 80.8498C8.88283 81.9154 7.4176 82.5148 5.55276 82.5148C3.68792 82.5148 2.28929 81.982 1.29027 80.8498C0.291252 79.7842 -0.108356 78.319 0.024847 76.4541L3.68792 36.2271C3.88773 34.3623 4.55374 32.897 5.68597 31.7648C6.81819 30.6992 8.35002 30.1664 10.1483 30.1664C12.0131 30.1664 13.4783 30.6992 14.4774 31.7648C15.4764 32.897 15.876 34.3623 15.6762 36.1605L14.6772 48.7481H33.7918L34.7908 36.2271C34.9906 34.3623 35.6566 32.897 36.7888 31.7648C37.9211 30.6992 39.4529 30.1664 41.2511 30.1664Z" fill="white"/>
<path d="M125.611 36.0977C128.341 36.0977 130.806 36.6971 132.937 37.9625C135.001 39.2946 136.667 41.0928 137.799 43.4238C138.931 45.7549 139.53 48.5521 139.53 51.8155C139.53 55.3454 138.864 58.5422 137.532 61.3395C136.2 64.1367 134.335 66.3346 132.004 67.8664C129.607 69.3982 126.876 70.1974 123.746 70.1974C119.816 70.1974 116.62 68.7988 114.222 66.0016L113.356 77.0573C113.29 78.5891 112.69 79.8546 111.558 80.8536C110.426 81.786 108.96 82.2522 107.229 82.2522C105.431 82.2522 103.965 81.786 102.966 80.787C101.901 79.788 101.434 78.4559 101.501 76.8575L104.298 41.6922C104.365 40.0272 104.964 38.7618 106.097 37.6961C107.229 36.6971 108.627 36.2309 110.426 36.2309C111.957 36.2309 113.223 36.6305 114.222 37.3631C115.154 38.0957 115.687 39.1614 115.82 40.4934C116.886 39.0948 118.285 37.9625 119.95 37.2299C121.615 36.4973 123.479 36.0977 125.611 36.0977ZM121.148 61.4727C123.213 61.4727 124.878 60.6735 126.077 59.0751C127.209 57.4766 127.809 55.3454 127.809 52.6148C127.809 50.1505 127.276 48.2191 126.144 46.8205C125.011 45.4885 123.479 44.8224 121.415 44.8224C119.417 44.8224 117.818 45.6217 116.686 47.2201C115.554 48.8185 114.955 50.8831 114.955 53.4806C114.955 56.078 115.487 58.076 116.553 59.4081C117.619 60.8067 119.15 61.4727 121.148 61.4727Z" fill="white"/>
<path d="M175.429 52.415C175.429 53.414 175.163 54.1466 174.63 54.6794C174.031 55.2788 173.298 55.5452 172.299 55.5452H154.916C155.449 59.5413 157.847 61.5393 162.176 61.5393C163.441 61.5393 164.507 61.4061 165.373 61.1397C166.239 60.9399 167.304 60.5403 168.703 59.9409C169.502 59.6079 170.168 59.4081 170.767 59.4081C171.766 59.4081 172.499 59.8077 173.098 60.5403C173.631 61.2729 173.898 62.2053 173.898 63.2709C173.898 64.2033 173.698 65.0691 173.298 65.9349C172.899 66.8008 172.299 67.4668 171.433 67.933C170.301 68.599 168.836 69.1318 167.038 69.5314C165.24 69.9976 163.308 70.1974 161.31 70.1974C157.78 70.1974 154.717 69.5314 152.052 68.1994C149.322 66.8674 147.257 65.0025 145.792 62.5383C144.26 60.1407 143.528 57.3434 143.528 54.08C143.528 50.6833 144.26 47.6197 145.725 44.8224C147.124 42.1584 149.122 39.9606 151.719 38.4288C154.317 36.8969 157.181 36.0977 160.378 36.0977C165.106 36.0977 168.836 37.4963 171.5 40.3602C174.097 43.224 175.429 47.2867 175.429 52.415ZM160.777 44.0898C159.179 44.0898 157.913 44.556 156.981 45.4885C155.982 46.4875 155.383 47.9527 155.05 49.9507H165.639C165.573 48.0193 165.173 46.5541 164.374 45.5551C163.508 44.556 162.309 44.0898 160.777 44.0898Z" fill="white"/>
<path fill-rule="evenodd" clip-rule="evenodd" d="M74.1694 15.7576C70.5807 14.7739 68.047 11.3749 68.2914 7.51499C68.5714 3.0967 72.3855 -0.263459 76.8055 0.0162729C81.2236 0.296004 84.5837 4.11014 84.3037 8.52871C84.0548 12.4435 81.0312 15.5274 77.2722 15.985L76.2512 32.122C80.556 32.7098 84.448 34.5961 87.5225 37.3716L93.6036 31.5185C92.4807 29.3522 92.8569 26.6182 94.7039 24.8414C96.9525 22.6776 100.536 22.7466 102.7 24.9952C104.864 27.2438 104.793 30.8261 102.544 32.9895C100.672 34.7918 97.8746 35.0449 95.7419 33.7801L89.6721 39.6202C91.8641 42.2764 93.4198 45.4762 94.1043 48.9854H108.682C111.338 48.9854 113.49 51.1398 113.49 53.7937C113.49 56.4474 111.338 58.6021 108.682 58.6021H93.7592C92.3139 63.9127 88.849 68.3944 84.2415 71.1668L87.4207 77.3164C89.6806 76.8839 92.0508 77.959 93.1624 80.106C94.5144 82.7212 93.4905 85.9428 90.8742 87.2956C88.2607 88.6482 85.0391 87.6234 83.6843 85.0083C82.5869 82.8861 83.0564 80.3646 84.6686 78.7668L81.464 72.57C79.0344 73.5792 76.3756 74.1482 73.5899 74.1765L72.5442 90.6934C76.2427 91.6288 78.8731 95.0962 78.6242 99.0415C78.3414 103.495 74.4975 106.881 70.0447 106.599C65.5916 106.317 62.2054 102.473 62.4871 98.0199C62.7341 94.1212 65.7113 91.0402 69.4375 90.5226L70.4848 73.9816C66.2147 73.397 62.3494 71.5348 59.2876 68.7932L43.2724 84.203C46.035 88.0997 45.609 93.5414 42.0635 96.9527C38.1575 100.711 31.9352 100.591 28.177 96.6852C24.4186 92.7794 24.5385 86.5571 28.4443 82.7987C31.9479 79.4275 37.3154 79.1766 41.0959 81.9796L57.1275 66.5536C55.22 64.262 53.7877 61.5603 52.9833 58.6021H43.6036C40.9497 58.6021 38.7953 56.4474 38.7953 53.7937C38.7953 51.1398 40.9497 48.9854 43.6036 48.9854H52.6374C53.7461 43.3082 57.1321 38.4413 61.8041 35.3762L58.2889 28.5811C56.0889 28.9556 53.8044 27.8941 52.7248 25.8073C51.3889 23.2249 52.4009 20.0435 54.9836 18.7077C57.5659 17.3718 60.7474 18.3838 62.0832 20.9664C63.1778 23.0824 62.6959 25.6005 61.0653 27.1762L64.5253 33.8652C67.1532 32.6504 70.0716 31.96 73.1467 31.928L74.1694 15.7576ZM70.364 93.5609C67.8453 93.6553 65.7551 95.6474 65.5925 98.2165C65.4188 100.956 67.502 103.321 70.2413 103.494C72.9806 103.667 75.3461 101.584 75.5186 98.845C75.6826 96.2414 73.8099 93.9761 71.2714 93.6093C71.1204 93.6466 70.9614 93.6618 70.7982 93.6517C70.6461 93.6418 70.5004 93.6107 70.364 93.5609ZM39.6582 84.8131C37.066 82.5538 33.1257 82.612 30.6016 85.0408C27.9329 87.6085 27.8512 91.8596 30.4189 94.5279C32.9865 97.1965 37.2377 97.2786 39.9063 94.7106C42.4643 92.2493 42.6453 88.2412 40.3945 85.5629C40.2327 85.4852 40.0819 85.3774 39.9501 85.2408C39.8262 85.1118 39.729 84.967 39.6582 84.8131ZM87.1209 80.7546C86.2441 81.3882 85.9358 82.588 86.4477 83.5788C87.0134 84.6689 88.3541 85.096 89.4458 84.532C90.5348 83.9683 90.9619 82.6256 90.399 81.5355C89.8786 80.5309 88.6963 80.0894 87.6611 80.4681C87.5791 80.5351 87.4886 80.5948 87.3924 80.6454C87.3047 80.691 87.2142 80.7272 87.1209 80.7546ZM73.371 40.1293C80.5023 40.1293 86.295 45.92 86.295 53.0521C86.295 60.1846 80.5023 65.9752 73.371 65.9752C66.2385 65.9752 60.4478 60.1846 60.4478 53.0521C60.4478 45.92 66.2385 40.1293 73.371 40.1293ZM100.457 27.1525C101.43 28.1637 101.399 29.7747 100.386 30.7477C99.3765 31.7207 97.7643 31.6896 96.7913 30.6784C95.8183 29.6672 95.8494 28.0562 96.862 27.0832C97.8717 26.1102 99.4839 26.1413 100.457 27.1525ZM56.4131 21.471C57.4703 20.9243 58.7728 21.3387 59.3196 22.3959C59.8666 23.4532 59.4522 24.7557 58.395 25.3024C57.3377 25.8494 56.0352 25.4351 55.4882 24.3778C54.9414 23.3205 55.3558 22.0181 56.4131 21.471ZM76.6076 3.12131C79.3115 3.29243 81.3678 5.62731 81.1981 8.33214C81.0256 11.0367 78.6921 13.0935 75.9881 12.9224C73.2822 12.7513 71.2253 10.4161 71.3964 7.71157C71.5678 5.00674 73.9036 2.94991 76.6076 3.12131Z" fill="white"/>
<path d="M192.245 70.1728C191.563 70.1728 190.996 69.9457 190.598 69.4916C190.201 69.0942 189.974 68.5265 190.031 67.7886L192.699 33.842H180.551C179.926 33.842 179.415 33.6717 179.075 33.2743C178.677 32.9337 178.507 32.4795 178.507 31.9119C178.507 31.2874 178.677 30.7765 179.075 30.3792C179.472 30.0386 179.983 29.8683 180.721 29.8683H209.842C210.524 29.8683 211.034 30.0386 211.375 30.3792C211.716 30.7198 211.886 31.1739 211.886 31.7983C211.886 33.1608 211.148 33.842 209.672 33.842H197.354L194.686 67.9589C194.629 68.5833 194.345 69.151 193.948 69.5484C193.493 69.9457 192.926 70.1728 192.245 70.1728Z" fill="#22577A"/>
<path d="M225.225 41.6753C225.849 41.6185 226.36 41.732 226.757 42.0159C227.098 42.3565 227.268 42.8106 227.268 43.435C227.268 44.7974 226.53 45.5354 225.054 45.6489L223.522 45.8192C220.74 46.1031 218.696 46.8978 217.334 48.2602C215.915 49.6226 215.12 51.5527 214.95 54.1072L213.815 67.9016C213.758 68.6395 213.531 69.2072 213.077 69.6046C212.566 70.002 211.998 70.1723 211.374 70.1723C210.749 70.1723 210.181 70.002 209.784 69.6046C209.387 69.2072 209.16 68.6395 209.216 67.9016L211.203 43.8324C211.26 43.1512 211.487 42.6403 211.998 42.2429C212.452 41.8456 213.02 41.6753 213.644 41.6753C214.269 41.6753 214.78 41.8456 215.177 42.1862C215.518 42.5835 215.688 43.0944 215.631 43.7756L215.404 46.7275C216.369 45.1948 217.618 44.0027 219.151 43.208C220.683 42.4132 222.5 41.9023 224.6 41.732L225.225 41.6753Z" fill="#22577A"/>
<path d="M242.03 41.562C248.672 41.562 252.021 44.7409 252.021 51.0421C252.021 51.7233 252.021 52.2342 251.965 52.5748L250.772 68.0721C250.716 68.7533 250.489 69.2642 250.091 69.6048C249.694 70.0022 249.126 70.1725 248.502 70.1725C247.821 70.1725 247.253 69.9454 246.856 69.4913C246.458 69.0939 246.288 68.5263 246.345 67.9018L246.515 65.4041C245.663 66.9368 244.528 68.1289 243.109 68.9804C241.633 69.8887 239.93 70.286 238.057 70.286C235.275 70.286 233.061 69.5481 231.301 68.0154C229.542 66.5394 228.633 64.6661 228.633 62.3387C228.633 60.2383 229.201 58.5921 230.28 57.3432C231.358 56.1511 233.118 55.2428 235.559 54.6751C238 54.1075 241.236 53.8236 245.38 53.8236H247.423L247.537 52.1774L247.594 51.0988C247.594 49.112 247.139 47.6928 246.174 46.7278C245.209 45.8195 243.677 45.3654 241.69 45.3654C238.965 45.3654 236.013 46.2736 232.891 48.1469C232.493 48.3172 232.21 48.4308 231.983 48.4308C231.528 48.4308 231.131 48.2605 230.847 47.8631C230.563 47.5225 230.393 47.1251 230.393 46.6142C230.393 45.7627 230.734 45.1383 231.472 44.6842C232.834 43.7191 234.48 42.9812 236.41 42.4135C238.284 41.8458 240.157 41.562 242.03 41.562ZM239.022 66.653C241.179 66.653 242.995 65.915 244.528 64.3823C246.061 62.8496 246.856 60.9195 247.026 58.5353L247.139 56.7755H245.55C242.428 56.7755 239.987 56.9458 238.227 57.2297C236.467 57.5703 235.162 58.0812 234.424 58.8191C233.686 59.5571 233.288 60.6357 233.288 61.9413C233.288 63.3605 233.799 64.4958 234.821 65.3473C235.843 66.1988 237.262 66.653 239.022 66.653Z" fill="#22577A"/>
<path d="M271.265 70.286C268.71 70.286 266.439 69.7184 264.509 68.6398C262.522 67.5612 261.046 65.9718 260.025 63.9849C258.946 61.9981 258.435 59.6139 258.435 56.9458C258.435 53.8236 259.003 51.1556 260.138 48.8281C261.274 46.5007 262.92 44.7409 265.02 43.4353C267.121 42.1864 269.618 41.562 272.513 41.562C274.387 41.562 276.09 41.8458 277.736 42.3567C279.382 42.9244 280.688 43.6056 281.653 44.4571C282.221 44.9112 282.504 45.4789 282.504 46.2169C282.504 46.7278 282.334 47.2387 281.994 47.636C281.653 48.0902 281.256 48.3172 280.745 48.3172C280.461 48.3172 280.12 48.2037 279.78 47.9766C277.509 46.2736 275.068 45.4221 272.513 45.4221C269.562 45.4221 267.291 46.4439 265.645 48.4875C263.998 50.5312 263.204 53.3695 263.204 57.0026C263.204 59.9545 263.942 62.2819 265.418 63.9282C266.893 65.6312 268.994 66.4827 271.662 66.4827C272.968 66.4827 274.216 66.2556 275.295 65.8582C276.374 65.4609 277.509 64.8364 278.588 63.9849C278.985 63.7011 279.325 63.5875 279.666 63.5875C280.12 63.5875 280.518 63.7579 280.801 64.0985C281.028 64.4958 281.199 64.8932 281.199 65.4041C281.199 66.0285 280.972 66.5394 280.461 66.9936C279.382 68.0154 278.02 68.8101 276.374 69.3778C274.727 70.0022 273.024 70.286 271.265 70.286Z" fill="#22577A"/>
<path d="M306.231 42.5289C306.629 42.1315 307.14 41.9044 307.707 41.9044C308.218 41.9044 308.672 42.0747 309.127 42.4721C309.524 42.8695 309.694 43.3804 309.694 43.8913C309.694 44.4589 309.467 44.9698 308.956 45.424L297.035 55.642L308.445 66.6548C308.843 67.0522 309.013 67.5063 309.013 68.0172C309.013 68.5849 308.786 69.0958 308.332 69.5499C307.878 70.004 307.367 70.2311 306.799 70.2311C306.288 70.2311 305.834 70.004 305.38 69.5499L291.869 56.7206L290.961 68.0172C290.904 68.7552 290.677 69.2661 290.223 69.6067C289.769 70.004 289.201 70.1743 288.577 70.1743C287.896 70.1743 287.328 69.9473 286.931 69.5499C286.533 69.1525 286.306 68.5849 286.363 67.8469L289.201 31.7432C289.258 31.062 289.485 30.5511 289.996 30.1537C290.507 29.7563 291.075 29.586 291.699 29.586C292.38 29.586 292.891 29.7563 293.289 30.1537C293.686 30.5511 293.856 31.1755 293.799 31.9135L291.983 54.8473L306.231 42.5289Z" fill="#22577A"/>
<path d="M318.097 56.7755V57.0026C318.097 60.0112 318.835 62.3954 320.367 64.0417C321.843 65.6879 324 66.5394 326.839 66.5394C329.847 66.5394 332.459 65.6879 334.729 64.0417C335.127 63.7579 335.467 63.6443 335.865 63.6443C336.319 63.6443 336.716 63.8146 337 64.1552C337.227 64.4958 337.397 64.8932 337.397 65.3473C337.397 66.0285 337.114 66.653 336.489 67.2206C335.467 68.1289 334.048 68.8669 332.232 69.4345C330.358 70.0022 328.485 70.286 326.612 70.286C322.581 70.286 319.402 69.0939 317.075 66.653C314.691 64.212 313.498 60.9763 313.498 56.8891C313.498 53.8804 314.066 51.2124 315.201 48.8849C316.28 46.5575 317.87 44.7977 319.97 43.4921C322.014 42.1864 324.398 41.562 327.123 41.562C330.812 41.562 333.651 42.6406 335.638 44.8545C337.624 47.1251 338.589 50.3041 338.589 54.5048C338.589 55.2428 338.419 55.7537 338.022 56.1511C337.624 56.5485 337.114 56.7755 336.489 56.7755H318.097ZM327.293 45.1383C324.738 45.1383 322.751 45.8763 321.219 47.3522C319.686 48.8849 318.721 51.0421 318.324 53.8236H334.445C334.559 50.9853 333.991 48.8281 332.742 47.3522C331.437 45.8763 329.62 45.1383 327.293 45.1383Z" fill="#22577A"/>
<path d="M360.103 41.6753C360.727 41.6185 361.238 41.732 361.636 42.0159C361.976 42.3565 362.147 42.8106 362.147 43.435C362.147 44.7974 361.409 45.5354 359.933 45.6489L358.4 45.8192C355.618 46.1031 353.575 46.8978 352.212 48.2602C350.793 49.6226 349.998 51.5527 349.828 54.1072L348.693 67.9016C348.636 68.6395 348.409 69.2072 347.955 69.6046C347.444 70.002 346.876 70.1723 346.252 70.1723C345.627 70.1723 345.06 70.002 344.662 69.6046C344.265 69.2072 344.038 68.6395 344.095 67.9016L346.081 43.8324C346.138 43.1512 346.365 42.6403 346.876 42.2429C347.33 41.8456 347.898 41.6753 348.522 41.6753C349.147 41.6753 349.658 41.8456 350.055 42.1862C350.396 42.5835 350.566 43.0944 350.509 43.7756L350.282 46.7275C351.247 45.1948 352.496 44.0027 354.029 43.208C355.562 42.4132 357.378 41.9023 359.478 41.732L360.103 41.6753Z" fill="#22577A"/>
</svg>
