<?xml version="1.0" encoding="UTF-8" standalone="no"?>
<!DOCTYPE svg PUBLIC "-//W3C//DTD SVG 1.1//EN" "http://www.w3.org/Graphics/SVG/1.1/DTD/svg11.dtd">
<svg width="100%" height="100%" viewBox="0 0 449 449" version="1.1" xmlns="http://www.w3.org/2000/svg" xmlns:xlink="http://www.w3.org/1999/xlink" xml:space="preserve" xmlns:serif="http://www.serif.com/" style="fill-rule:evenodd;clip-rule:evenodd;stroke-linejoin:round;stroke-miterlimit:2;">
    <g transform="matrix(1,0,0,1,0,-577)">
        <g id="favicon-white" transform="matrix(0.843685,0,0,0.843685,0.680239,124.858)">
            <rect x="-0.806" y="536.609" width="531.134" height="531.134" style="fill:none;"/>
            <g id="icon" transform="matrix(1.18528,0,0,1.18528,-50.0096,-147.903)">
                <path d="M270.577,668.196C257.886,664.717 248.929,652.7 249.793,639.054C250.782,623.432 264.267,611.552 279.889,612.541C295.51,613.531 307.39,627.016 306.401,642.638C305.524,656.478 294.838,667.381 281.548,669L277.936,726.053C293.152,728.131 306.916,734.8 317.78,744.613L339.287,723.919C335.316,716.259 336.647,706.594 343.176,700.311C351.126,692.662 363.791,692.906 371.441,700.856C379.09,708.806 378.846,721.47 370.896,729.12C364.275,735.491 354.382,736.387 346.842,731.915L325.383,752.563C333.132,761.953 338.632,773.267 341.055,785.674L392.598,785.674C401.98,785.674 409.598,793.291 409.598,802.674C409.598,812.056 401.98,819.674 392.598,819.674L339.832,819.674C334.725,838.45 322.471,854.294 306.179,864.097L317.426,885.839C325.417,884.31 333.797,888.111 337.723,895.702C342.506,904.948 338.883,916.337 329.637,921.12C320.391,925.903 309.001,922.28 304.218,913.034C300.337,905.53 301.992,896.616 307.694,890.966L296.36,869.057C287.772,872.626 278.376,874.637 268.525,874.737L264.828,933.134C277.908,936.441 287.206,948.7 286.323,962.649C285.326,978.393 271.735,990.365 255.991,989.368C240.247,988.372 228.275,974.78 229.272,959.037C230.144,945.253 240.671,934.36 253.844,932.53L257.547,874.049C242.45,871.982 228.784,865.397 217.959,855.704L161.337,910.186C171.104,923.964 169.598,943.202 157.063,955.264C143.253,968.551 121.254,968.127 107.967,954.318C94.679,940.509 95.103,918.509 108.912,905.222C121.299,893.303 140.276,892.416 153.642,902.325L210.322,847.787C203.578,839.684 198.514,830.133 195.67,819.674L162.508,819.674C153.125,819.674 145.508,812.056 145.508,802.674C145.508,793.291 153.125,785.674 162.508,785.674L194.447,785.674C198.368,765.601 210.338,748.395 226.856,737.558L214.429,713.533C206.65,714.857 198.573,711.105 194.756,703.727C190.033,694.596 193.611,683.349 202.742,678.626C211.872,673.903 223.12,677.481 227.843,686.611C231.713,694.093 230.009,702.996 224.244,708.566L236.477,732.215C245.768,727.921 256.086,725.48 266.958,725.367L270.577,668.196ZM257.12,943.272C248.215,943.606 240.825,950.648 240.25,959.732C239.636,969.417 247.001,977.777 256.686,978.39C266.371,979.004 274.732,971.639 275.345,961.954C275.928,952.748 269.303,944.739 260.328,943.442C259.794,943.575 259.232,943.629 258.655,943.592C258.117,943.558 257.602,943.448 257.12,943.272ZM148.559,912.344C139.394,904.356 125.463,904.561 116.539,913.148C107.104,922.226 106.815,937.256 115.893,946.691C124.971,956.126 140.001,956.415 149.436,947.337C158.48,938.635 159.12,924.463 151.162,914.995C150.59,914.719 150.057,914.339 149.591,913.855C149.153,913.4 148.809,912.888 148.559,912.344ZM316.367,897.994C313.26,900.234 312.176,904.476 313.989,907.98C315.982,911.833 320.729,913.343 324.583,911.35C328.436,909.357 329.947,904.609 327.953,900.756C326.115,897.203 321.937,895.642 318.277,896.982C317.987,897.219 317.668,897.429 317.322,897.608C317.011,897.769 316.691,897.898 316.367,897.994ZM267.751,754.363C292.968,754.363 313.44,774.835 313.44,800.052C313.44,825.269 292.968,845.741 267.751,845.741C242.534,845.741 222.061,825.269 222.061,800.052C222.061,774.835 242.534,754.363 267.751,754.363ZM363.514,708.483C366.954,712.058 366.844,717.753 363.269,721.193C359.694,724.634 353.999,724.524 350.558,720.949C347.118,717.373 347.228,711.678 350.803,708.238C354.378,704.798 360.074,704.907 363.514,708.483ZM207.796,688.396C211.534,686.462 216.139,687.927 218.073,691.665C220.006,695.403 218.541,700.008 214.803,701.942C211.065,703.876 206.46,702.411 204.527,698.673C202.593,694.934 204.058,690.33 207.796,688.396ZM279.194,623.52C288.756,624.125 296.028,632.38 295.423,641.942C294.817,651.505 286.562,658.777 277,658.172C267.437,657.566 260.165,649.311 260.771,639.749C261.376,630.186 269.631,622.914 279.194,623.52Z" style="fill:white;"/>
            </g>
        </g>
    </g>
</svg>
